<?xml version="1.0" encoding="utf-8"?>
<!-- Generator: Adobe Illustrator 23.0.0, SVG Export Plug-In . SVG Version: 6.00 Build 0)  -->
<svg version="1.1" id="layer1" xmlns="http://www.w3.org/2000/svg" xmlns:xlink="http://www.w3.org/1999/xlink" x="0px" y="0px"
	 viewBox="0 0 480 640" style="enable-background:new 0 0 480 640;" xml:space="preserve">
<style type="text/css">
	.st0{fill:#FFFFFF;}
	.st1{clip-path:url(#SVGID_2_);fill:#FFFFFF;}
</style>
<g>
	<path class="st0" d="M24,639c-12.68,0-23-10.32-23-23V24C1,11.32,11.32,1,24,1h432c12.68,0,23,10.32,23,23v592
		c0,12.68-10.32,23-23,23H24z"/>
	<path d="M456,2c12.13,0,22,9.87,22,22v592c0,12.13-9.87,22-22,22H24c-12.13,0-22-9.87-22-22V24C2,11.87,11.87,2,24,2H456 M456,0H24
		C10.8,0,0,10.8,0,24v592c0,13.2,10.8,24,24,24h432c13.2,0,24-10.8,24-24V24C480,10.8,469.2,0,456,0L456,0z"/>
</g>
<g>
	<path d="M60.06,175.58c-2.15,3.53-5.57,5.45-10.18,5.45c-8.99,0-13.89-6.6-13.89-15.66c0-7.68,7.35-16.35,12.25-22.18
		c5.2-6.14,12.03-14.12,15.67-18.19h0.15c3.64,4.07,10.47,12.05,15.67,18.19C84.28,148.56,92,157.62,92,165.37
		c0,9.06-4.9,15.66-13.89,15.66c-4.6,0-8.02-1.92-10.18-5.45l-0.07,0.08c0.52,8.44,2.01,14.66,5.57,18.8V195H54.57v-0.54
		c3.56-4.14,5.12-10.36,5.57-18.8L60.06,175.58z"/>
	<path d="M67.11,103.5c-1.28,0-1.63-1.29,0-1.2c1.63,0.09,3.08,0.17,4.54,0c3.42-0.43,3.59-1.2,3.34-2.23l-5.05-15.61
		c-0.09-0.34-0.34-0.34-0.68-0.34h-18.4c-0.26,0-0.43,0-0.43,0.26L45.55,99.9c-0.34,1.03-0.6,2.14,2.48,2.4
		c1.97,0.17,3.17,0.09,5.14,0c1.46-0.09,1.03,1.2,0,1.2H36.99c-1.11,0-1.54-1.29,0.09-1.2c1.11,0.09,2.05,0.17,3,0
		c3-0.51,3.17-0.69,4.62-5.15l17.63-56.01c0.26-0.86,0.6-0.86,0.94,0l20.03,56.01c1.63,4.72,1.37,4.98,4.62,5.15
		c1.11,0.09,1.88,0.09,2.82,0c1.8-0.17,1.54,1.2,0.09,1.2H67.11z M60.18,55.81c-0.6-1.63-0.6-1.97-1.2,0.17l-7.96,26.68
		c-0.09,0.17,0.09,0.26,0.34,0.26h17.46c0.26,0,0.6,0,0.43-0.34L60.18,55.81z"/>
</g>
<g>
	<path d="M419.94,464.42c2.15-3.53,5.57-5.45,10.18-5.45c8.99,0,13.89,6.6,13.89,15.66c0,7.68-7.35,16.35-12.25,22.18
		c-5.2,6.14-12.03,14.12-15.67,18.19h-0.15c-3.64-4.07-10.47-12.05-15.67-18.19c-4.53-5.37-12.25-14.43-12.25-22.18
		c0-9.06,4.9-15.66,13.89-15.66c4.6,0,8.02,1.92,10.18,5.45l0.07-0.08c-0.52-8.44-2.01-14.66-5.57-18.8V445h18.86v0.54
		c-3.57,4.14-5.12,10.36-5.57,18.8L419.94,464.42z"/>
	<path d="M412.89,536.5c1.28,0,1.63,1.29,0,1.2c-1.63-0.09-3.08-0.17-4.54,0c-3.42,0.43-3.59,1.2-3.34,2.23l5.05,15.61
		c0.09,0.34,0.34,0.34,0.68,0.34h18.4c0.26,0,0.43,0,0.43-0.26l4.88-15.52c0.34-1.03,0.6-2.14-2.48-2.4c-1.97-0.17-3.17-0.09-5.14,0
		c-1.46,0.09-1.03-1.2,0-1.2h16.18c1.11,0,1.54,1.29-0.09,1.2c-1.11-0.09-2.05-0.17-3,0c-3,0.52-3.17,0.69-4.62,5.15l-17.63,56.01
		c-0.26,0.86-0.6,0.86-0.94,0l-20.03-56.01c-1.63-4.72-1.37-4.98-4.62-5.15c-1.11-0.09-1.88-0.09-2.82,0
		c-1.8,0.17-1.54-1.2-0.09-1.2H412.89z M419.82,584.19c0.6,1.63,0.6,1.97,1.2-0.17l7.96-26.68c0.09-0.17-0.09-0.26-0.34-0.26h-17.46
		c-0.26,0-0.6,0-0.43,0.34L419.82,584.19z"/>
</g>
<g>
	<path class="st0" d="M286.2,417c34.13,0,61.8-27.36,61.8-61.11C348,301.27,240,254,240,193c0,61-108,108.27-108,162.89
		c0,33.75,27.67,61.11,61.8,61.11c19.81,0,36.09-14.91,38-34h0.2c0,35.35-21.49,64-48,64h112c-26.51,0-48-28.65-48-64h0.2
		C250.11,402.09,266.39,417,286.2,417z"/>
	<path d="M353.46,351.69c-0.42-4.62-1.47-9.12-3-13.35c-1.52-4.24-3.44-8.24-5.62-12.02c-4.4-7.55-9.64-14.31-15.2-20.62
		c-5.57-6.3-11.42-12.23-17.38-17.95c-5.94-5.74-12-11.29-17.99-16.86c-6-5.55-11.94-11.13-17.72-16.82
		c-5.78-5.69-11.32-11.59-16.42-17.84c-5.14-6.2-9.75-12.84-13.38-20.02c-1.82-3.59-3.34-7.33-4.49-11.22
		c-1.19-3.87-1.93-7.9-2.26-12c-0.33,4.1-1.07,8.12-2.26,12c-1.15,3.88-2.67,7.63-4.49,11.22c-3.63,7.18-8.24,13.82-13.38,20.02
		c-5.09,6.24-10.64,12.14-16.42,17.84c-5.78,5.69-11.71,11.27-17.72,16.82c-5.99,5.57-12.05,11.12-17.99,16.86
		c-5.97,5.72-11.81,11.65-17.38,17.95c-5.56,6.31-10.8,13.07-15.2,20.62c-2.18,3.78-4.1,7.79-5.62,12.02
		c-1.53,4.23-2.58,8.73-3,13.35c-0.23,2.31-0.2,4.66-0.12,6.86c0.1,2.24,0.3,4.47,0.62,6.69c0.64,4.43,1.73,8.81,3.26,13.02
		c3.1,8.41,7.89,16.17,14.05,22.62c6.15,6.44,13.57,11.66,21.72,15.15c8.13,3.53,16.96,5.34,25.74,5.38
		c1.1,0.01,2.18,0.02,3.34-0.09c1.14-0.09,2.28-0.13,3.4-0.3l3.36-0.6c1.11-0.23,2.2-0.59,3.29-0.88c4.33-1.34,8.45-3.34,12.11-5.96
		c3.64-2.65,6.81-5.88,9.42-9.49c0.2-0.28,0.39-0.56,0.58-0.84c-0.11,0.34-0.21,0.68-0.33,1.02c-2.3,6.79-5.3,13.27-9.14,19.17
		c-3.84,5.89-8.54,11.19-14.18,15.36c-3.99,2.93-8.48,5.21-13.37,6.72c-2.1,0.36-4.19,0.76-6.29,1.21v0.57l2.96,0.03
		c0.9,0.05,1.81,0.06,2.72,0.03l8.32,0.08l14,0.05l28,0.09l28-0.09l14-0.05l8.25-0.08c0.97,0.04,1.94,0.03,2.9-0.03l2.85-0.03v-0.57
		c-2.07-0.44-4.13-0.83-6.2-1.18c-4.92-1.52-9.43-3.8-13.45-6.75c-5.65-4.16-10.34-9.47-14.19-15.35
		c-3.85-5.89-6.85-12.37-9.14-19.16c-0.12-0.35-0.22-0.7-0.34-1.04c0.2,0.29,0.39,0.58,0.6,0.87c2.6,3.61,5.78,6.83,9.42,9.49
		c3.66,2.62,7.78,4.62,12.11,5.96c1.09,0.29,2.18,0.66,3.29,0.88l3.36,0.6c1.13,0.17,2.27,0.21,3.4,0.3
		c1.16,0.11,2.24,0.09,3.34,0.09c8.78-0.04,17.6-1.85,25.74-5.38c8.15-3.49,15.57-8.71,21.72-15.15
		c6.16-6.45,10.95-14.21,14.05-22.62c1.53-4.21,2.62-8.58,3.26-13.02c0.32-2.22,0.52-4.45,0.62-6.69
		C353.67,356.35,353.7,354,353.46,351.69z M341.8,363.66c-0.51,3.68-1.4,7.31-2.64,10.81c-2.44,7.03-6.36,13.55-11.39,19.09
		c-5.01,5.57-11.17,10.1-17.96,13.36c-6.8,3.24-14.27,5.15-21.88,5.58c-0.95,0.05-1.92,0.12-2.81,0.06c-0.91-0.04-1.82,0-2.73-0.08
		l-2.72-0.32c-0.9-0.12-1.78-0.38-2.68-0.55c-3.55-0.87-6.98-2.3-10.16-4.2c-3.15-1.95-5.99-4.43-8.41-7.3
		c-2.42-2.86-4.41-6.13-5.75-9.68c-1.39-3.53-2.23-7.31-2.47-11.17c-0.15-3.71,0.59-7.52,2.35-10.92
		c3.39-6.92,10.84-11.81,19.05-12.44c-2.04-0.08-4.15-0.08-6.19,0.38c-1.04,0.15-2.03,0.5-3.05,0.78c-0.5,0.16-0.98,0.38-1.48,0.57
		c-0.49,0.2-0.99,0.38-1.46,0.64l-1.42,0.74c-0.46,0.27-0.9,0.58-1.35,0.87c-0.92,0.55-1.71,1.29-2.57,1.95l-1.16,1.13l-0.58,0.57
		l-0.53,0.62l-1.05,1.25l-0.93,1.35c-0.33,0.44-0.6,0.92-0.86,1.4c-0.26,0.48-0.55,0.96-0.79,1.45c-0.43,1.01-0.92,2.02-1.2,3.09
		c-0.73,2.11-1.01,4.34-1.19,6.57c-0.14,4.22,0.36,8.49,1.51,12.63c-0.01,4.52,0.47,9.07,1.41,13.54c1.6,7.41,4.48,14.64,8.68,21.09
		c4.19,6.44,9.78,12.13,16.52,16c0.72,0.41,1.46,0.8,2.21,1.17c-2.72-0.28-5.43-0.52-8.15-0.72c-9.33-0.77-18.67-1.05-28-1.07
		c-9.33,0.01-18.67,0.29-28,1.06c-2.71,0.21-5.42,0.44-8.13,0.72c0.74-0.36,1.48-0.75,2.19-1.16c6.74-3.87,12.33-9.56,16.52-15.99
		c4.21-6.45,7.09-13.68,8.69-21.09c0.95-4.48,1.42-9.04,1.41-13.57c1.15-4.12,1.64-8.39,1.5-12.6c-0.17-2.23-0.45-4.47-1.19-6.57
		c-0.28-1.07-0.78-2.08-1.2-3.09c-0.24-0.5-0.53-0.97-0.79-1.45c-0.26-0.48-0.53-0.96-0.86-1.4l-0.93-1.35l-1.05-1.25l-0.53-0.62
		l-0.58-0.57l-1.16-1.13c-0.86-0.66-1.64-1.4-2.57-1.95c-0.45-0.29-0.89-0.6-1.35-0.87l-1.42-0.74c-0.46-0.26-0.96-0.45-1.46-0.64
		c-0.5-0.19-0.98-0.41-1.48-0.57c-1.02-0.28-2.01-0.63-3.05-0.78c-2.04-0.46-4.15-0.46-6.19-0.38c8.21,0.63,15.66,5.52,19.05,12.44
		c1.76,3.41,2.5,7.22,2.35,10.92c-0.25,3.87-1.08,7.64-2.47,11.17c-1.34,3.55-3.33,6.82-5.75,9.68c-2.42,2.86-5.26,5.34-8.41,7.3
		c-3.19,1.9-6.61,3.33-10.16,4.2c-0.9,0.18-1.78,0.43-2.68,0.55l-2.72,0.32c-0.91,0.08-1.82,0.04-2.73,0.08
		c-0.89,0.05-1.85-0.01-2.81-0.06c-7.61-0.43-15.07-2.34-21.88-5.58c-6.79-3.26-12.95-7.8-17.96-13.36
		c-5.03-5.54-8.95-12.06-11.39-19.09c-1.24-3.51-2.13-7.13-2.64-10.81c-0.49-3.65-0.68-7.52-0.37-10.97
		c0.56-7.11,3.31-14.17,7.05-20.84c3.73-6.71,8.51-13.03,13.62-19.15c10.29-12.24,22-23.65,33.44-35.44
		c11.45-11.79,22.83-23.96,32.36-37.7c4.66-6.92,8.9-14.22,11.81-22.09c1.45-3.93,2.59-7.97,3.28-12.08
		c0.28-1.78,0.48-3.57,0.6-5.36c0.12,1.79,0.31,3.58,0.6,5.36c0.69,4.11,1.83,8.15,3.28,12.08c2.91,7.87,7.15,15.17,11.81,22.09
		c9.53,13.74,20.92,25.91,32.36,37.7c11.44,11.8,23.16,23.2,33.44,35.44c5.1,6.13,9.89,12.45,13.62,19.15
		c3.74,6.67,6.49,13.73,7.05,20.84C342.49,356.14,342.3,360.01,341.8,363.66z"/>
	<path d="M289.66,284.75C269.96,265.6,250.8,246,240,224.43c-10.8,21.57-29.96,41.17-49.66,60.32
		C164.97,309.42,143,332.72,143,355.89c0,29.29,21.13,52.11,50.8,52.11c15.6,0,36.51-10.52,38.04-25.8l6.92,15.8
		c-2.15,13.08-7.08,25.27-14.42,35.05c-1.6,2.13-3.27,4.11-5.03,5.95c0,0,11.69-1,20.69-1s20.69,1,20.69,1
		c-1.75-1.83-3.43-3.82-5.03-5.95c-7.22-9.63-12.11-22.21-14.31-35.05l6.81-15.8c1.53,15.28,22.45,25.8,38.04,25.8
		c29.67,0,50.8-22.83,50.8-52.11C337,332.72,315.03,309.42,289.66,284.75z"/>
	<g>
		<defs>
			<path id="SVGID_1_" d="M289.66,284.75C269.96,265.6,250.8,246,240,224.43c-10.8,21.57-29.96,41.17-49.66,60.32
				C164.97,309.42,143,332.72,143,355.89c0,29.29,21.13,52.11,50.8,52.11c15.6,0,36.51-10.52,38.04-25.8l6.92,15.8
				c-2.15,13.08-7.08,25.27-14.42,35.05c-1.6,2.13-3.27,4.11-5.03,5.95c0,0,11.69-1,20.69-1s20.69,1,20.69,1
				c-1.75-1.83-3.43-3.82-5.03-5.95c-7.22-9.63-12.11-22.21-14.31-35.05l6.81-15.8c1.53,15.28,22.45,25.8,38.04,25.8
				c29.67,0,50.8-22.83,50.8-52.11C337,332.72,315.03,309.42,289.66,284.75z"/>
		</defs>
		<clipPath id="SVGID_2_">
			<use xlink:href="#SVGID_1_"  style="overflow:visible;"/>
		</clipPath>
		<path class="st1" d="M353.46,351.69c-0.42-4.62-1.47-9.12-3-13.35c-1.52-4.24-3.44-8.24-5.62-12.02
			c-4.4-7.55-9.64-14.31-15.2-20.62c-5.57-6.3-11.42-12.23-17.38-17.95c-5.94-5.74-12-11.29-17.99-16.86
			c-6-5.55-11.94-11.13-17.72-16.82c-5.78-5.69-11.32-11.59-16.42-17.84c-5.14-6.2-9.75-12.84-13.38-20.02
			c-1.82-3.59-3.34-7.33-4.49-11.22c-1.19-3.87-1.93-7.9-2.26-12c-0.33,4.1-1.07,8.12-2.26,12c-1.15,3.88-2.67,7.63-4.49,11.22
			c-3.63,7.18-8.24,13.82-13.38,20.02c-5.09,6.24-10.64,12.14-16.42,17.84c-5.78,5.69-11.71,11.27-17.72,16.82
			c-5.99,5.57-12.05,11.12-17.99,16.86c-5.97,5.72-11.81,11.65-17.38,17.95c-5.56,6.31-10.8,13.07-15.2,20.62
			c-2.18,3.78-4.1,7.79-5.62,12.02c-1.53,4.23-2.58,8.73-3,13.35c-0.23,2.31-0.2,4.66-0.12,6.86c0.1,2.24,0.3,4.47,0.62,6.69
			c0.64,4.43,1.73,8.81,3.26,13.02c3.1,8.41,7.89,16.17,14.05,22.62c6.15,6.44,13.57,11.66,21.72,15.15
			c8.13,3.53,16.96,5.34,25.74,5.38c1.1,0.01,2.18,0.02,3.34-0.09c1.14-0.09,2.28-0.13,3.4-0.3l3.36-0.6
			c1.11-0.23,2.2-0.59,3.29-0.88c4.33-1.34,8.45-3.34,12.11-5.96c3.64-2.65,6.81-5.88,9.42-9.49c0.2-0.28,0.39-0.56,0.58-0.84
			c-0.11,0.34-0.21,0.68-0.33,1.02c-2.3,6.79-5.3,13.27-9.14,19.17c-3.84,5.89-8.54,11.19-14.18,15.36
			c-3.99,2.93-8.48,5.21-13.37,6.72c-2.1,0.36-4.19,0.76-6.29,1.21v0.57l2.96,0.03c0.9,0.05,1.81,0.06,2.72,0.03l8.32,0.08l14,0.05
			l28,0.09l28-0.09l14-0.05l8.25-0.08c0.97,0.04,1.94,0.03,2.9-0.03l2.85-0.03v-0.57c-2.07-0.44-4.13-0.83-6.2-1.18
			c-4.92-1.52-9.43-3.8-13.45-6.75c-5.65-4.16-10.34-9.47-14.19-15.35c-3.85-5.89-6.85-12.37-9.14-19.16
			c-0.12-0.35-0.22-0.7-0.34-1.04c0.2,0.29,0.39,0.58,0.6,0.87c2.6,3.61,5.78,6.83,9.42,9.49c3.66,2.62,7.78,4.62,12.11,5.96
			c1.09,0.29,2.18,0.66,3.29,0.88l3.36,0.6c1.13,0.17,2.27,0.21,3.4,0.3c1.16,0.11,2.24,0.09,3.34,0.09
			c8.78-0.04,17.6-1.85,25.74-5.38c8.15-3.49,15.57-8.71,21.72-15.15c6.16-6.45,10.95-14.21,14.05-22.62
			c1.53-4.21,2.62-8.58,3.26-13.02c0.32-2.22,0.52-4.45,0.62-6.69C353.67,356.35,353.7,354,353.46,351.69z M341.8,363.66
			c-0.51,3.68-1.4,7.31-2.64,10.81c-2.44,7.03-6.36,13.55-11.39,19.09c-5.01,5.57-11.17,10.1-17.96,13.36
			c-6.8,3.24-14.27,5.15-21.88,5.58c-0.95,0.05-1.92,0.12-2.81,0.06c-0.91-0.04-1.82,0-2.73-0.08l-2.72-0.32
			c-0.9-0.12-1.78-0.38-2.68-0.55c-3.55-0.87-6.98-2.3-10.16-4.2c-3.15-1.95-5.99-4.43-8.41-7.3c-2.42-2.86-4.41-6.13-5.75-9.68
			c-1.39-3.53-2.23-7.31-2.47-11.17c-0.15-3.71,0.59-7.52,2.35-10.92c3.39-6.92,10.84-11.81,19.05-12.44
			c-2.04-0.08-4.15-0.08-6.19,0.38c-1.04,0.15-2.03,0.5-3.05,0.78c-0.5,0.16-0.98,0.38-1.48,0.57c-0.49,0.2-0.99,0.38-1.46,0.64
			l-1.42,0.74c-0.46,0.27-0.9,0.58-1.35,0.87c-0.92,0.55-1.71,1.29-2.57,1.95l-1.16,1.13l-0.58,0.57l-0.53,0.62l-1.05,1.25
			l-0.93,1.35c-0.33,0.44-0.6,0.92-0.86,1.4c-0.26,0.48-0.55,0.96-0.79,1.45c-0.43,1.01-0.92,2.02-1.2,3.09
			c-0.73,2.11-1.01,4.34-1.19,6.57c-0.14,4.22,0.36,8.49,1.51,12.63c-0.01,4.52,0.47,9.07,1.41,13.54
			c1.6,7.41,4.48,14.64,8.68,21.09c4.19,6.44,9.78,12.13,16.52,16c0.72,0.41,1.46,0.8,2.21,1.17c-2.72-0.28-5.43-0.52-8.15-0.72
			c-9.33-0.77-18.67-1.05-28-1.07c-9.33,0.01-18.67,0.29-28,1.06c-2.71,0.21-5.42,0.44-8.13,0.72c0.74-0.36,1.48-0.75,2.19-1.16
			c6.74-3.87,12.33-9.56,16.52-15.99c4.21-6.45,7.09-13.68,8.69-21.09c0.95-4.48,1.42-9.04,1.41-13.57c1.15-4.12,1.64-8.39,1.5-12.6
			c-0.17-2.23-0.45-4.47-1.19-6.57c-0.28-1.07-0.78-2.08-1.2-3.09c-0.24-0.5-0.53-0.97-0.79-1.45c-0.26-0.48-0.53-0.96-0.86-1.4
			l-0.93-1.35l-1.05-1.25l-0.53-0.62l-0.58-0.57l-1.16-1.13c-0.86-0.66-1.64-1.4-2.57-1.95c-0.45-0.29-0.89-0.6-1.35-0.87
			l-1.42-0.74c-0.46-0.26-0.96-0.45-1.46-0.64c-0.5-0.19-0.98-0.41-1.48-0.57c-1.02-0.28-2.01-0.63-3.05-0.78
			c-2.04-0.46-4.15-0.46-6.19-0.38c8.21,0.63,15.66,5.52,19.05,12.44c1.76,3.41,2.5,7.22,2.35,10.92
			c-0.25,3.87-1.08,7.64-2.47,11.17c-1.34,3.55-3.33,6.82-5.75,9.68c-2.42,2.86-5.26,5.34-8.41,7.3c-3.19,1.9-6.61,3.33-10.16,4.2
			c-0.9,0.18-1.78,0.43-2.68,0.55l-2.72,0.32c-0.91,0.08-1.82,0.04-2.73,0.08c-0.89,0.05-1.85-0.01-2.81-0.06
			c-7.61-0.43-15.07-2.34-21.88-5.58c-6.79-3.26-12.95-7.8-17.96-13.36c-5.03-5.54-8.95-12.06-11.39-19.09
			c-1.24-3.51-2.13-7.13-2.64-10.81c-0.49-3.65-0.68-7.52-0.37-10.97c0.56-7.11,3.31-14.17,7.05-20.84
			c3.73-6.71,8.51-13.03,13.62-19.15c10.29-12.24,22-23.65,33.44-35.44c11.45-11.79,22.83-23.96,32.36-37.7
			c4.66-6.92,8.9-14.22,11.81-22.09c1.45-3.93,2.59-7.97,3.28-12.08c0.28-1.78,0.48-3.57,0.6-5.36c0.12,1.79,0.31,3.58,0.6,5.36
			c0.69,4.11,1.83,8.15,3.28,12.08c2.91,7.87,7.15,15.17,11.81,22.09c9.53,13.74,20.92,25.91,32.36,37.7
			c11.44,11.8,23.16,23.2,33.44,35.44c5.1,6.13,9.89,12.45,13.62,19.15c3.74,6.67,6.49,13.73,7.05,20.84
			C342.49,356.14,342.3,360.01,341.8,363.66z"/>
	</g>
</g>
</svg>
