<?xml version="1.0" encoding="utf-8"?>
<!-- Generator: Adobe Illustrator 21.1.0, SVG Export Plug-In . SVG Version: 6.00 Build 0)  -->
<svg version="1.1" xmlns="http://www.w3.org/2000/svg" xmlns:xlink="http://www.w3.org/1999/xlink" x="0px" y="0px"
	 viewBox="0 0 1920 1200" style="enable-background:new 0 0 1920 1200;" xml:space="preserve">
<style type="text/css">
	.st0{fill:#808080;}
	.st1{fill:none;stroke:#808080;stroke-miterlimit:10;}
	.st2{fill:none;stroke:#808080;stroke-width:4;stroke-linejoin:round;stroke-miterlimit:10;}
</style>
<g id="guide">
	<g>
		<path class="st0" d="M1919,1v1198H1V1H1919 M1920,0H0v1200h1920V0L1920,0z"/>
	</g>
	<g>
		<path class="st0" d="M1799,81v1038H121V81H1799 M1800,80H120v1040h1680V80L1800,80z"/>
	</g>
	<g>
		<line class="st1" x1="120" y1="80" x2="1800" y2="1120"/>
	</g>
	<g>
		<line class="st1" x1="1797.1" y1="80" x2="120" y2="1120"/>
	</g>
</g>
<g id="five-star_x0A_">
	<g>
		<path class="st0" d="M960,81c70.1,0,138,13.7,202,40.8c61.8,26.1,117.3,63.6,165,111.2c47.7,47.7,85.1,103.2,111.2,165
			c27.1,64,40.8,132,40.8,202s-13.7,138-40.8,202c-26.1,61.8-63.6,117.3-111.2,165c-47.7,47.7-103.2,85.1-165,111.2
			c-64,27.1-132,40.8-202,40.8c-70.1,0-138-13.7-202-40.8c-61.8-26.1-117.3-63.6-165-111.2c-47.7-47.7-85.1-103.2-111.2-165
			c-27.1-64-40.8-132-40.8-202s13.7-138,40.8-202c26.1-61.8,63.6-117.3,111.2-165c47.7-47.7,103.2-85.1,165-111.2
			C822,94.7,889.9,81,960,81 M960,80c-287.2,0-520,232.8-520,520s232.8,520,520,520s520-232.8,520-520S1247.2,80,960,80L960,80z"/>
	</g>
	<g>
		<path class="st0" d="M960,82.5l492.2,357.6l-188,578.6H655.8l-188-578.6L960,82.5 M960,80L465.5,439.3l188.9,581.4h611.3
			l188.9-581.4L960,80L960,80z"/>
	</g>
	<polygon class="st2" points="654.9,1020.8 1454.8,439.3 465.2,439.2 1265.5,1020.8 960.2,80 	"/>
</g>
</svg>
