<?xml version="1.0" encoding="utf-8"?>
<!-- Generator: Adobe Illustrator 21.1.0, SVG Export Plug-In . SVG Version: 6.00 Build 0)  -->
<svg version="1.1" id="レイヤー_1" xmlns="http://www.w3.org/2000/svg" xmlns:xlink="http://www.w3.org/1999/xlink" x="0px"
	 y="0px" viewBox="0 0 1200 1920" style="enable-background:new 0 0 1200 1920;" xml:space="preserve">
<style type="text/css">
	.st0{fill:none;stroke:#808080;stroke-miterlimit:10;}
	.st1{fill:#808080;}
	.st2{fill:none;stroke:#808080;stroke-width:4;stroke-miterlimit:10;}
</style>
<g id="guide">
	<rect x="80" y="118.7" class="st0" width="1040" height="1682.7"/>
	<rect x="80" y="118.7" class="st0" width="1040" height="642.7"/>
	<rect x="80" y="118.7" class="st0" width="397.3" height="642.7"/>
	<rect x="80" y="516" class="st0" width="397.3" height="245.4"/>
	<rect x="325.5" y="516" class="st0" width="151.8" height="245.4"/>
	<rect x="325.5" y="515.9" class="st0" width="151.8" height="93.6"/>
	<rect x="325.5" y="515.9" class="st0" width="58.2" height="93.6"/>
	<rect x="325.5" y="574.1" class="st0" width="58.2" height="35.4"/>
	<rect x="360.8" y="574.1" class="st0" width="22.9" height="35.4"/>
	<g>
		<path class="st1" d="M1199,1v1918H1L1,1L1199,1 M1200,0L0,0l0,1920h1200V0L1200,0z"/>
	</g>
	<g>
		<line class="st0" x1="80" y1="118.6" x2="1120" y2="1801.4"/>
	</g>
	<g>
		<line class="st0" x1="80" y1="1801.4" x2="1120" y2="118.6"/>
	</g>
</g>
<g id="spiral">
	<path class="st2" d="M361.4,609.6c-19.8,0-35.8-16-35.8-35.8c0-32,25.9-57.9,57.9-57.9c51.8,0,93.8,42,93.8,93.8
		c0,83.8-67.9,151.7-151.7,151.7C190,761.4,80.1,651.5,80.1,515.9c0-219.4,177.8-397.2,397.2-397.2c354.9,0,642.7,287.7,642.7,642.7
		c0,574.4-465.6,1040-1040,1040"/>
</g>
</svg>
