<svg xmlns="http://www.w3.org/2000/svg" viewBox="0 0 3200 2400"><defs><style>.cls-1{fill:none;stroke:gray;stroke-miterlimit:10;}.cls-2{fill:gray;}</style></defs><title>ruler</title><g id="layer1"><line class="cls-1" y1="40" x2="3200" y2="40"/><line class="cls-1" x1="45" y1="30" x2="45" y2="40"/><line class="cls-1" x1="50" y1="10" x2="50" y2="40"/><line class="cls-1" x1="55" y1="30" x2="55" y2="40"/><line class="cls-1" x1="60" y1="20" x2="60" y2="40"/><line class="cls-1" x1="65" y1="30" x2="65" y2="40"/><line class="cls-1" x1="70" y1="20" x2="70" y2="40"/><line class="cls-1" x1="75" y1="30" x2="75" y2="40"/><line class="cls-1" x1="80" y1="20" x2="80" y2="40"/><line class="cls-1" x1="85" y1="30" x2="85" y2="40"/><line class="cls-1" x1="90" y1="20" x2="90" y2="40"/><line class="cls-1" x1="95" y1="30" x2="95" y2="40"/><line class="cls-1" x1="100" x2="100" y2="40"/><line class="cls-1" x1="10" x2="10" y2="40"/><line class="cls-1" x1="105" y1="30" x2="105" y2="40"/><line class="cls-1" x1="110" y1="20" x2="110" y2="40"/><line class="cls-1" x1="115" y1="30" x2="115" y2="40"/><line class="cls-1" x1="120" y1="20" x2="120" y2="40"/><line class="cls-1" x1="125" y1="30" x2="125" y2="40"/><line class="cls-1" x1="130" y1="20" x2="130" y2="40"/><line class="cls-1" x1="135" y1="30" x2="135" y2="40"/><line class="cls-1" x1="140" y1="20" x2="140" y2="40"/><line class="cls-1" x1="145" y1="30" x2="145" y2="40"/><line class="cls-1" x1="150" y1="10" x2="150" y2="40"/><line class="cls-1" x1="155" y1="30" x2="155" y2="40"/><line class="cls-1" x1="160" y1="20" x2="160" y2="40"/><line class="cls-1" x1="165" y1="30" x2="165" y2="40"/><line class="cls-1" x1="170" y1="20" x2="170" y2="40"/><line class="cls-1" x1="175" y1="30" x2="175" y2="40"/><line class="cls-1" x1="180" y1="20" x2="180" y2="40"/><line class="cls-1" x1="185" y1="30" x2="185" y2="40"/><line class="cls-1" x1="190" y1="20" x2="190" y2="40"/><line class="cls-1" x1="195" y1="30" x2="195" y2="40"/><line class="cls-1" x1="200" x2="200" y2="40"/><line class="cls-1" x1="205" y1="30" x2="205" y2="40"/><line class="cls-1" x1="210" y1="20" x2="210" y2="40"/><line class="cls-1" x1="215" y1="30" x2="215" y2="40"/><line class="cls-1" x1="220" y1="20" x2="220" y2="40"/><line class="cls-1" x1="225" y1="30" x2="225" y2="40"/><line class="cls-1" x1="230" y1="20" x2="230" y2="40"/><line class="cls-1" x1="235" y1="30" x2="235" y2="40"/><line class="cls-1" x1="240" y1="20" x2="240" y2="40"/><line class="cls-1" x1="245" y1="30" x2="245" y2="40"/><line class="cls-1" x1="250" y1="10" x2="250" y2="40"/><line class="cls-1" x1="255" y1="30" x2="255" y2="40"/><line class="cls-1" x1="260" y1="20" x2="260" y2="40"/><line class="cls-1" x1="265" y1="30" x2="265" y2="40"/><line class="cls-1" x1="270" y1="20" x2="270" y2="40"/><line class="cls-1" x1="275" y1="30" x2="275" y2="40"/><line class="cls-1" x1="280" y1="20" x2="280" y2="40"/><line class="cls-1" x1="285" y1="30" x2="285" y2="40"/><line class="cls-1" x1="290" y1="20" x2="290" y2="40"/><line class="cls-1" x1="295" y1="30" x2="295" y2="40"/><line class="cls-1" x1="300" x2="300" y2="40"/><line class="cls-1" x1="305" y1="30" x2="305" y2="40"/><line class="cls-1" x1="310" y1="20" x2="310" y2="40"/><line class="cls-1" x1="315" y1="30" x2="315" y2="40"/><line class="cls-1" x1="320" y1="20" x2="320" y2="40"/><line class="cls-1" x1="325" y1="30" x2="325" y2="40"/><line class="cls-1" x1="330" y1="20" x2="330" y2="40"/><line class="cls-1" x1="335" y1="30" x2="335" y2="40"/><line class="cls-1" x1="340" y1="20" x2="340" y2="40"/><line class="cls-1" x1="345" y1="30" x2="345" y2="40"/><line class="cls-1" x1="350" y1="10" x2="350" y2="40"/><line class="cls-1" x1="355" y1="30" x2="355" y2="40"/><line class="cls-1" x1="360" y1="20" x2="360" y2="40"/><line class="cls-1" x1="365" y1="30" x2="365" y2="40"/><line class="cls-1" x1="370" y1="20" x2="370" y2="40"/><line class="cls-1" x1="375" y1="30" x2="375" y2="40"/><line class="cls-1" x1="380" y1="20" x2="380" y2="40"/><line class="cls-1" x1="385" y1="30" x2="385" y2="40"/><line class="cls-1" x1="390" y1="20" x2="390" y2="40"/><line class="cls-1" x1="395" y1="30" x2="395" y2="40"/><line class="cls-1" x1="400" x2="400" y2="40"/><line class="cls-1" x1="405" y1="30" x2="405" y2="40"/><line class="cls-1" x1="410" y1="20" x2="410" y2="40"/><line class="cls-1" x1="415" y1="30" x2="415" y2="40"/><line class="cls-1" x1="420" y1="20" x2="420" y2="40"/><line class="cls-1" x1="425" y1="30" x2="425" y2="40"/><line class="cls-1" x1="430" y1="20" x2="430" y2="40"/><line class="cls-1" x1="435" y1="30" x2="435" y2="40"/><line class="cls-1" x1="440" y1="20" x2="440" y2="40"/><line class="cls-1" x1="445" y1="30" x2="445" y2="40"/><line class="cls-1" x1="450" y1="10" x2="450" y2="40"/><line class="cls-1" x1="455" y1="30" x2="455" y2="40"/><line class="cls-1" x1="460" y1="20" x2="460" y2="40"/><line class="cls-1" x1="465" y1="30" x2="465" y2="40"/><line class="cls-1" x1="470" y1="20" x2="470" y2="40"/><line class="cls-1" x1="475" y1="30" x2="475" y2="40"/><line class="cls-1" x1="480" y1="20" x2="480" y2="40"/><line class="cls-1" x1="485" y1="30" x2="485" y2="40"/><line class="cls-1" x1="490" y1="20" x2="490" y2="40"/><line class="cls-1" x1="495" y1="30" x2="495" y2="40"/><line class="cls-1" x1="500" x2="500" y2="40"/><line class="cls-1" x1="505" y1="30" x2="505" y2="40"/><line class="cls-1" x1="510" y1="20" x2="510" y2="40"/><line class="cls-1" x1="515" y1="30" x2="515" y2="40"/><line class="cls-1" x1="520" y1="20" x2="520" y2="40"/><line class="cls-1" x1="525" y1="30" x2="525" y2="40"/><line class="cls-1" x1="530" y1="20" x2="530" y2="40"/><line class="cls-1" x1="535" y1="30" x2="535" y2="40"/><line class="cls-1" x1="540" y1="20" x2="540" y2="40"/><line class="cls-1" x1="545" y1="30" x2="545" y2="40"/><line class="cls-1" x1="550" y1="10" x2="550" y2="40"/><line class="cls-1" x1="555" y1="30" x2="555" y2="40"/><line class="cls-1" x1="560" y1="20" x2="560" y2="40"/><line class="cls-1" x1="565" y1="30" x2="565" y2="40"/><line class="cls-1" x1="570" y1="20" x2="570" y2="40"/><line class="cls-1" x1="575" y1="30" x2="575" y2="40"/><line class="cls-1" x1="580" y1="20" x2="580" y2="40"/><line class="cls-1" x1="585" y1="30" x2="585" y2="40"/><line class="cls-1" x1="590" y1="20" x2="590" y2="40"/><line class="cls-1" x1="595" y1="30" x2="595" y2="40"/><line class="cls-1" x1="600" x2="600" y2="40"/><line class="cls-1" x1="605" y1="30" x2="605" y2="40"/><line class="cls-1" x1="610" y1="20" x2="610" y2="40"/><line class="cls-1" x1="615" y1="30" x2="615" y2="40"/><line class="cls-1" x1="620" y1="20" x2="620" y2="40"/><line class="cls-1" x1="625" y1="30" x2="625" y2="40"/><line class="cls-1" x1="630" y1="20" x2="630" y2="40"/><line class="cls-1" x1="635" y1="30" x2="635" y2="40"/><line class="cls-1" x1="640" y1="20" x2="640" y2="40"/><line class="cls-1" x1="645" y1="30" x2="645" y2="40"/><line class="cls-1" x1="650" y1="10" x2="650" y2="40"/><line class="cls-1" x1="655" y1="30" x2="655" y2="40"/><line class="cls-1" x1="660" y1="20" x2="660" y2="40"/><line class="cls-1" x1="665" y1="30" x2="665" y2="40"/><line class="cls-1" x1="670" y1="20" x2="670" y2="40"/><line class="cls-1" x1="675" y1="30" x2="675" y2="40"/><line class="cls-1" x1="680" y1="20" x2="680" y2="40"/><line class="cls-1" x1="685" y1="30" x2="685" y2="40"/><line class="cls-1" x1="690" y1="20" x2="690" y2="40"/><line class="cls-1" x1="695" y1="30" x2="695" y2="40"/><line class="cls-1" x1="700" x2="700" y2="40"/><line class="cls-1" x1="705" y1="30" x2="705" y2="40"/><line class="cls-1" x1="710" y1="20" x2="710" y2="40"/><line class="cls-1" x1="715" y1="30" x2="715" y2="40"/><line class="cls-1" x1="720" y1="20" x2="720" y2="40"/><line class="cls-1" x1="725" y1="30" x2="725" y2="40"/><line class="cls-1" x1="730" y1="20" x2="730" y2="40"/><line class="cls-1" x1="735" y1="30" x2="735" y2="40"/><line class="cls-1" x1="740" y1="20" x2="740" y2="40"/><line class="cls-1" x1="745" y1="30" x2="745" y2="40"/><line class="cls-1" x1="750" y1="10" x2="750" y2="40"/><line class="cls-1" x1="755" y1="30" x2="755" y2="40"/><line class="cls-1" x1="760" y1="20" x2="760" y2="40"/><line class="cls-1" x1="765" y1="30" x2="765" y2="40"/><line class="cls-1" x1="770" y1="20" x2="770" y2="40"/><line class="cls-1" x1="775" y1="30" x2="775" y2="40"/><line class="cls-1" x1="780" y1="20" x2="780" y2="40"/><line class="cls-1" x1="785" y1="30" x2="785" y2="40"/><line class="cls-1" x1="790" y1="20" x2="790" y2="40"/><line class="cls-1" x1="795" y1="30" x2="795" y2="40"/><line class="cls-1" x1="800" x2="800" y2="40"/><line class="cls-1" x1="805" y1="30" x2="805" y2="40"/><line class="cls-1" x1="810" y1="20" x2="810" y2="40"/><line class="cls-1" x1="815" y1="30" x2="815" y2="40"/><line class="cls-1" x1="820" y1="20" x2="820" y2="40"/><line class="cls-1" x1="825" y1="30" x2="825" y2="40"/><line class="cls-1" x1="830" y1="20" x2="830" y2="40"/><line class="cls-1" x1="835" y1="30" x2="835" y2="40"/><line class="cls-1" x1="840" y1="20" x2="840" y2="40"/><line class="cls-1" x1="845" y1="30" x2="845" y2="40"/><line class="cls-1" x1="850" y1="10" x2="850" y2="40"/><line class="cls-1" x1="855" y1="30" x2="855" y2="40"/><line class="cls-1" x1="860" y1="20" x2="860" y2="40"/><line class="cls-1" x1="865" y1="30" x2="865" y2="40"/><line class="cls-1" x1="870" y1="20" x2="870" y2="40"/><line class="cls-1" x1="875" y1="30" x2="875" y2="40"/><line class="cls-1" x1="880" y1="20" x2="880" y2="40"/><line class="cls-1" x1="885" y1="30" x2="885" y2="40"/><line class="cls-1" x1="890" y1="20" x2="890" y2="40"/><line class="cls-1" x1="895" y1="30" x2="895" y2="40"/><line class="cls-1" x1="900" x2="900" y2="40"/><line class="cls-1" x1="905" y1="30" x2="905" y2="40"/><line class="cls-1" x1="910" y1="20" x2="910" y2="40"/><line class="cls-1" x1="915" y1="30" x2="915" y2="40"/><line class="cls-1" x1="920" y1="20" x2="920" y2="40"/><line class="cls-1" x1="925" y1="30" x2="925" y2="40"/><line class="cls-1" x1="930" y1="20" x2="930" y2="40"/><line class="cls-1" x1="935" y1="30" x2="935" y2="40"/><line class="cls-1" x1="940" y1="20" x2="940" y2="40"/><line class="cls-1" x1="945" y1="30" x2="945" y2="40"/><line class="cls-1" x1="950" y1="10" x2="950" y2="40"/><line class="cls-1" x1="955" y1="30" x2="955" y2="40"/><line class="cls-1" x1="960" y1="20" x2="960" y2="40"/><line class="cls-1" x1="965" y1="30" x2="965" y2="40"/><line class="cls-1" x1="970" y1="20" x2="970" y2="40"/><line class="cls-1" x1="975" y1="30" x2="975" y2="40"/><line class="cls-1" x1="980" y1="20" x2="980" y2="40"/><line class="cls-1" x1="985" y1="30" x2="985" y2="40"/><line class="cls-1" x1="990" y1="20" x2="990" y2="40"/><line class="cls-1" x1="995" y1="30" x2="995" y2="40"/><line class="cls-1" x1="1000" x2="1000" y2="40"/><line class="cls-1" x1="1005" y1="30" x2="1005" y2="40"/><line class="cls-1" x1="1010" y1="20" x2="1010" y2="40"/><line class="cls-1" x1="1015" y1="30" x2="1015" y2="40"/><line class="cls-1" x1="1020" y1="20" x2="1020" y2="40"/><line class="cls-1" x1="1025" y1="30" x2="1025" y2="40"/><line class="cls-1" x1="1030" y1="20" x2="1030" y2="40"/><line class="cls-1" x1="1035" y1="30" x2="1035" y2="40"/><line class="cls-1" x1="1040" y1="20" x2="1040" y2="40"/><line class="cls-1" x1="1045" y1="30" x2="1045" y2="40"/><line class="cls-1" x1="1050" y1="10" x2="1050" y2="40"/><line class="cls-1" x1="1055" y1="30" x2="1055" y2="40"/><line class="cls-1" x1="1060" y1="20" x2="1060" y2="40"/><line class="cls-1" x1="1065" y1="30" x2="1065" y2="40"/><line class="cls-1" x1="1070" y1="20" x2="1070" y2="40"/><line class="cls-1" x1="1075" y1="30" x2="1075" y2="40"/><line class="cls-1" x1="1080" y1="20" x2="1080" y2="40"/><line class="cls-1" x1="1085" y1="30" x2="1085" y2="40"/><line class="cls-1" x1="1090" y1="20" x2="1090" y2="40"/><line class="cls-1" x1="1095" y1="30" x2="1095" y2="40"/><line class="cls-1" x1="1100" x2="1100" y2="40"/><line class="cls-1" x1="1105" y1="30" x2="1105" y2="40"/><line class="cls-1" x1="1110" y1="20" x2="1110" y2="40"/><line class="cls-1" x1="1115" y1="30" x2="1115" y2="40"/><line class="cls-1" x1="1120" y1="20" x2="1120" y2="40"/><line class="cls-1" x1="1125" y1="30" x2="1125" y2="40"/><line class="cls-1" x1="1130" y1="20" x2="1130" y2="40"/><line class="cls-1" x1="1135" y1="30" x2="1135" y2="40"/><line class="cls-1" x1="1140" y1="20" x2="1140" y2="40"/><line class="cls-1" x1="1145" y1="30" x2="1145" y2="40"/><line class="cls-1" x1="1150" y1="10" x2="1150" y2="40"/><line class="cls-1" x1="1155" y1="30" x2="1155" y2="40"/><line class="cls-1" x1="1160" y1="20" x2="1160" y2="40"/><line class="cls-1" x1="1165" y1="30" x2="1165" y2="40"/><line class="cls-1" x1="1170" y1="20" x2="1170" y2="40"/><line class="cls-1" x1="1175" y1="30" x2="1175" y2="40"/><line class="cls-1" x1="1180" y1="20" x2="1180" y2="40"/><line class="cls-1" x1="1185" y1="30" x2="1185" y2="40"/><line class="cls-1" x1="1190" y1="20" x2="1190" y2="40"/><line class="cls-1" x1="1195" y1="30" x2="1195" y2="40"/><line class="cls-1" x1="1200" x2="1200" y2="40"/><line class="cls-1" x1="1205" y1="30" x2="1205" y2="40"/><line class="cls-1" x1="1210" y1="20" x2="1210" y2="40"/><line class="cls-1" x1="1215" y1="30" x2="1215" y2="40"/><line class="cls-1" x1="1220" y1="20" x2="1220" y2="40"/><line class="cls-1" x1="1225" y1="30" x2="1225" y2="40"/><line class="cls-1" x1="1230" y1="20" x2="1230" y2="40"/><line class="cls-1" x1="1235" y1="30" x2="1235" y2="40"/><line class="cls-1" x1="1240" y1="20" x2="1240" y2="40"/><line class="cls-1" x1="1245" y1="30" x2="1245" y2="40"/><line class="cls-1" x1="1250" y1="10" x2="1250" y2="40"/><line class="cls-1" x1="1255" y1="30" x2="1255" y2="40"/><line class="cls-1" x1="1260" y1="20" x2="1260" y2="40"/><line class="cls-1" x1="1265" y1="30" x2="1265" y2="40"/><line class="cls-1" x1="1270" y1="20" x2="1270" y2="40"/><line class="cls-1" x1="1275" y1="30" x2="1275" y2="40"/><line class="cls-1" x1="1280" y1="20" x2="1280" y2="40"/><line class="cls-1" x1="1285" y1="30" x2="1285" y2="40"/><line class="cls-1" x1="1290" y1="20" x2="1290" y2="40"/><line class="cls-1" x1="1295" y1="30" x2="1295" y2="40"/><line class="cls-1" x1="1300" x2="1300" y2="40"/><line class="cls-1" x1="1305" y1="30" x2="1305" y2="40"/><line class="cls-1" x1="1310" y1="20" x2="1310" y2="40"/><line class="cls-1" x1="1315" y1="30" x2="1315" y2="40"/><line class="cls-1" x1="1320" y1="20" x2="1320" y2="40"/><line class="cls-1" x1="1325" y1="30" x2="1325" y2="40"/><line class="cls-1" x1="1330" y1="20" x2="1330" y2="40"/><line class="cls-1" x1="1335" y1="30" x2="1335" y2="40"/><line class="cls-1" x1="1340" y1="20" x2="1340" y2="40"/><line class="cls-1" x1="1345" y1="30" x2="1345" y2="40"/><line class="cls-1" x1="1350" y1="10" x2="1350" y2="40"/><line class="cls-1" x1="1355" y1="30" x2="1355" y2="40"/><line class="cls-1" x1="1360" y1="20" x2="1360" y2="40"/><line class="cls-1" x1="1365" y1="30" x2="1365" y2="40"/><line class="cls-1" x1="1370" y1="20" x2="1370" y2="40"/><line class="cls-1" x1="1375" y1="30" x2="1375" y2="40"/><line class="cls-1" x1="1380" y1="20" x2="1380" y2="40"/><line class="cls-1" x1="1385" y1="30" x2="1385" y2="40"/><line class="cls-1" x1="1390" y1="20" x2="1390" y2="40"/><line class="cls-1" x1="1395" y1="30" x2="1395" y2="40"/><line class="cls-1" x1="1400" x2="1400" y2="40"/><line class="cls-1" x1="1405" y1="30" x2="1405" y2="40"/><line class="cls-1" x1="1410" y1="20" x2="1410" y2="40"/><line class="cls-1" x1="1415" y1="30" x2="1415" y2="40"/><line class="cls-1" x1="1420" y1="20" x2="1420" y2="40"/><line class="cls-1" x1="1425" y1="30" x2="1425" y2="40"/><line class="cls-1" x1="1430" y1="20" x2="1430" y2="40"/><line class="cls-1" x1="1435" y1="30" x2="1435" y2="40"/><line class="cls-1" x1="1440" y1="20" x2="1440" y2="40"/><line class="cls-1" x1="1445" y1="30" x2="1445" y2="40"/><line class="cls-1" x1="1450" y1="10" x2="1450" y2="40"/><line class="cls-1" x1="1455" y1="30" x2="1455" y2="40"/><line class="cls-1" x1="1460" y1="20" x2="1460" y2="40"/><line class="cls-1" x1="1465" y1="30" x2="1465" y2="40"/><line class="cls-1" x1="1470" y1="20" x2="1470" y2="40"/><line class="cls-1" x1="1475" y1="30" x2="1475" y2="40"/><line class="cls-1" x1="1480" y1="20" x2="1480" y2="40"/><line class="cls-1" x1="1485" y1="30" x2="1485" y2="40"/><line class="cls-1" x1="1490" y1="20" x2="1490" y2="40"/><line class="cls-1" x1="1495" y1="30" x2="1495" y2="40"/><line class="cls-1" x1="1500" x2="1500" y2="40"/><line class="cls-1" x1="1505" y1="30" x2="1505" y2="40"/><line class="cls-1" x1="1510" y1="20" x2="1510" y2="40"/><line class="cls-1" x1="1515" y1="30" x2="1515" y2="40"/><line class="cls-1" x1="1520" y1="20" x2="1520" y2="40"/><line class="cls-1" x1="1525" y1="30" x2="1525" y2="40"/><line class="cls-1" x1="1530" y1="20" x2="1530" y2="40"/><line class="cls-1" x1="1535" y1="30" x2="1535" y2="40"/><line class="cls-1" x1="1540" y1="20" x2="1540" y2="40"/><line class="cls-1" x1="1545" y1="30" x2="1545" y2="40"/><line class="cls-1" x1="1550" y1="10" x2="1550" y2="40"/><line class="cls-1" x1="1555" y1="30" x2="1555" y2="40"/><line class="cls-1" x1="1560" y1="20" x2="1560" y2="40"/><line class="cls-1" x1="1565" y1="30" x2="1565" y2="40"/><line class="cls-1" x1="1570" y1="20" x2="1570" y2="40"/><line class="cls-1" x1="1575" y1="30" x2="1575" y2="40"/><line class="cls-1" x1="1580" y1="20" x2="1580" y2="40"/><line class="cls-1" x1="1585" y1="30" x2="1585" y2="40"/><line class="cls-1" x1="1590" y1="20" x2="1590" y2="40"/><line class="cls-1" x1="1595" y1="30" x2="1595" y2="40"/><line class="cls-1" x1="1600" x2="1600" y2="40"/><line class="cls-1" x1="1605" y1="30" x2="1605" y2="40"/><line class="cls-1" x1="1610" y1="20" x2="1610" y2="40"/><line class="cls-1" x1="1615" y1="30" x2="1615" y2="40"/><line class="cls-1" x1="1620" y1="20" x2="1620" y2="40"/><line class="cls-1" x1="1625" y1="30" x2="1625" y2="40"/><line class="cls-1" x1="1630" y1="20" x2="1630" y2="40"/><line class="cls-1" x1="1635" y1="30" x2="1635" y2="40"/><line class="cls-1" x1="1640" y1="20" x2="1640" y2="40"/><line class="cls-1" x1="1645" y1="30" x2="1645" y2="40"/><line class="cls-1" x1="1650" y1="10" x2="1650" y2="40"/><line class="cls-1" x1="1655" y1="30" x2="1655" y2="40"/><line class="cls-1" x1="1660" y1="20" x2="1660" y2="40"/><line class="cls-1" x1="1665" y1="30" x2="1665" y2="40"/><line class="cls-1" x1="1670" y1="20" x2="1670" y2="40"/><line class="cls-1" x1="1675" y1="30" x2="1675" y2="40"/><line class="cls-1" x1="1680" y1="20" x2="1680" y2="40"/><line class="cls-1" x1="1685" y1="30" x2="1685" y2="40"/><line class="cls-1" x1="1690" y1="20" x2="1690" y2="40"/><line class="cls-1" x1="1695" y1="30" x2="1695" y2="40"/><line class="cls-1" x1="1700" x2="1700" y2="40"/><line class="cls-1" x1="1705" y1="30" x2="1705" y2="40"/><line class="cls-1" x1="1710" y1="20" x2="1710" y2="40"/><line class="cls-1" x1="1715" y1="30" x2="1715" y2="40"/><line class="cls-1" x1="1720" y1="20" x2="1720" y2="40"/><line class="cls-1" x1="1725" y1="30" x2="1725" y2="40"/><line class="cls-1" x1="1730" y1="20" x2="1730" y2="40"/><line class="cls-1" x1="1735" y1="30" x2="1735" y2="40"/><line class="cls-1" x1="1740" y1="20" x2="1740" y2="40"/><line class="cls-1" x1="1745" y1="30" x2="1745" y2="40"/><line class="cls-1" x1="1750" y1="10" x2="1750" y2="40"/><line class="cls-1" x1="1755" y1="30" x2="1755" y2="40"/><line class="cls-1" x1="1760" y1="20" x2="1760" y2="40"/><line class="cls-1" x1="1765" y1="30" x2="1765" y2="40"/><line class="cls-1" x1="1770" y1="20" x2="1770" y2="40"/><line class="cls-1" x1="1775" y1="30" x2="1775" y2="40"/><line class="cls-1" x1="1780" y1="20" x2="1780" y2="40"/><line class="cls-1" x1="1785" y1="30" x2="1785" y2="40"/><line class="cls-1" x1="1790" y1="20" x2="1790" y2="40"/><line class="cls-1" x1="1795" y1="30" x2="1795" y2="40"/><line class="cls-1" x1="1800" x2="1800" y2="40"/><line class="cls-1" x1="1805" y1="30" x2="1805" y2="40"/><line class="cls-1" x1="1810" y1="20" x2="1810" y2="40"/><line class="cls-1" x1="1815" y1="30" x2="1815" y2="40"/><line class="cls-1" x1="1820" y1="20" x2="1820" y2="40"/><line class="cls-1" x1="1825" y1="30" x2="1825" y2="40"/><line class="cls-1" x1="1830" y1="20" x2="1830" y2="40"/><line class="cls-1" x1="1835" y1="30" x2="1835" y2="40"/><line class="cls-1" x1="1840" y1="20" x2="1840" y2="40"/><line class="cls-1" x1="1845" y1="30" x2="1845" y2="40"/><line class="cls-1" x1="1850" y1="10" x2="1850" y2="40"/><line class="cls-1" x1="1855" y1="30" x2="1855" y2="40"/><line class="cls-1" x1="1860" y1="20" x2="1860" y2="40"/><line class="cls-1" x1="1865" y1="30" x2="1865" y2="40"/><line class="cls-1" x1="1870" y1="20" x2="1870" y2="40"/><line class="cls-1" x1="1875" y1="30" x2="1875" y2="40"/><line class="cls-1" x1="1880" y1="20" x2="1880" y2="40"/><line class="cls-1" x1="1885" y1="30" x2="1885" y2="40"/><line class="cls-1" x1="1890" y1="20" x2="1890" y2="40"/><line class="cls-1" x1="1895" y1="30" x2="1895" y2="40"/><line class="cls-1" x1="1900" x2="1900" y2="40"/><line class="cls-1" x1="1905" y1="30" x2="1905" y2="40"/><line class="cls-1" x1="1910" y1="20" x2="1910" y2="40"/><line class="cls-1" x1="1915" y1="30" x2="1915" y2="40"/><line class="cls-1" x1="1920" y1="20" x2="1920" y2="40"/><line class="cls-1" x1="1925" y1="30" x2="1925" y2="40"/><line class="cls-1" x1="1930" y1="20" x2="1930" y2="40"/><line class="cls-1" x1="1935" y1="30" x2="1935" y2="40"/><line class="cls-1" x1="1940" y1="20" x2="1940" y2="40"/><line class="cls-1" x1="1945" y1="30" x2="1945" y2="40"/><line class="cls-1" x1="1950" y1="10" x2="1950" y2="40"/><line class="cls-1" x1="1955" y1="30" x2="1955" y2="40"/><line class="cls-1" x1="1960" y1="20" x2="1960" y2="40"/><line class="cls-1" x1="1965" y1="30" x2="1965" y2="40"/><line class="cls-1" x1="1970" y1="20" x2="1970" y2="40"/><line class="cls-1" x1="1975" y1="30" x2="1975" y2="40"/><line class="cls-1" x1="1980" y1="20" x2="1980" y2="40"/><line class="cls-1" x1="1985" y1="30" x2="1985" y2="40"/><line class="cls-1" x1="1990" y1="20" x2="1990" y2="40"/><line class="cls-1" x1="1995" y1="30" x2="1995" y2="40"/><line class="cls-1" x1="2000" x2="2000" y2="40"/><line class="cls-1" x1="2005" y1="30" x2="2005" y2="40"/><line class="cls-1" x1="2010" y1="20" x2="2010" y2="40"/><line class="cls-1" x1="2015" y1="30" x2="2015" y2="40"/><line class="cls-1" x1="2020" y1="20" x2="2020" y2="40"/><line class="cls-1" x1="2025" y1="30" x2="2025" y2="40"/><line class="cls-1" x1="2030" y1="20" x2="2030" y2="40"/><line class="cls-1" x1="2035" y1="30" x2="2035" y2="40"/><line class="cls-1" x1="2040" y1="20" x2="2040" y2="40"/><line class="cls-1" x1="2045" y1="30" x2="2045" y2="40"/><line class="cls-1" x1="2050" y1="10" x2="2050" y2="40"/><line class="cls-1" x1="2055" y1="30" x2="2055" y2="40"/><line class="cls-1" x1="2060" y1="20" x2="2060" y2="40"/><line class="cls-1" x1="2065" y1="30" x2="2065" y2="40"/><line class="cls-1" x1="2070" y1="20" x2="2070" y2="40"/><line class="cls-1" x1="2075" y1="30" x2="2075" y2="40"/><line class="cls-1" x1="2080" y1="20" x2="2080" y2="40"/><line class="cls-1" x1="2085" y1="30" x2="2085" y2="40"/><line class="cls-1" x1="2090" y1="20" x2="2090" y2="40"/><line class="cls-1" x1="2095" y1="30" x2="2095" y2="40"/><line class="cls-1" x1="2100" x2="2100" y2="40"/><line class="cls-1" x1="2105" y1="30" x2="2105" y2="40"/><line class="cls-1" x1="2110" y1="20" x2="2110" y2="40"/><line class="cls-1" x1="2115" y1="30" x2="2115" y2="40"/><line class="cls-1" x1="2120" y1="20" x2="2120" y2="40"/><line class="cls-1" x1="2125" y1="30" x2="2125" y2="40"/><line class="cls-1" x1="2130" y1="20" x2="2130" y2="40"/><line class="cls-1" x1="2135" y1="30" x2="2135" y2="40"/><line class="cls-1" x1="2140" y1="20" x2="2140" y2="40"/><line class="cls-1" x1="2145" y1="30" x2="2145" y2="40"/><line class="cls-1" x1="2150" y1="10" x2="2150" y2="40"/><line class="cls-1" x1="2155" y1="30" x2="2155" y2="40"/><line class="cls-1" x1="2160" y1="20" x2="2160" y2="40"/><line class="cls-1" x1="2165" y1="30" x2="2165" y2="40"/><line class="cls-1" x1="2170" y1="20" x2="2170" y2="40"/><line class="cls-1" x1="2175" y1="30" x2="2175" y2="40"/><line class="cls-1" x1="2180" y1="20" x2="2180" y2="40"/><line class="cls-1" x1="2185" y1="30" x2="2185" y2="40"/><line class="cls-1" x1="2190" y1="20" x2="2190" y2="40"/><line class="cls-1" x1="2195" y1="30" x2="2195" y2="40"/><line class="cls-1" x1="2200" x2="2200" y2="40"/><line class="cls-1" x1="2205" y1="30" x2="2205" y2="40"/><line class="cls-1" x1="2210" y1="20" x2="2210" y2="40"/><line class="cls-1" x1="2215" y1="30" x2="2215" y2="40"/><line class="cls-1" x1="2220" y1="20" x2="2220" y2="40"/><line class="cls-1" x1="2225" y1="30" x2="2225" y2="40"/><line class="cls-1" x1="2230" y1="20" x2="2230" y2="40"/><line class="cls-1" x1="2235" y1="30" x2="2235" y2="40"/><line class="cls-1" x1="2240" y1="20" x2="2240" y2="40"/><line class="cls-1" x1="2245" y1="30" x2="2245" y2="40"/><line class="cls-1" x1="2250" y1="10" x2="2250" y2="40"/><line class="cls-1" x1="2255" y1="30" x2="2255" y2="40"/><line class="cls-1" x1="2260" y1="20" x2="2260" y2="40"/><line class="cls-1" x1="2265" y1="30" x2="2265" y2="40"/><line class="cls-1" x1="2270" y1="20" x2="2270" y2="40"/><line class="cls-1" x1="2275" y1="30" x2="2275" y2="40"/><line class="cls-1" x1="2280" y1="20" x2="2280" y2="40"/><line class="cls-1" x1="2285" y1="30" x2="2285" y2="40"/><line class="cls-1" x1="2290" y1="20" x2="2290" y2="40"/><line class="cls-1" x1="2295" y1="30" x2="2295" y2="40"/><line class="cls-1" x1="2300" x2="2300" y2="40"/><line class="cls-1" x1="2305" y1="30" x2="2305" y2="40"/><line class="cls-1" x1="2310" y1="20" x2="2310" y2="40"/><line class="cls-1" x1="2315" y1="30" x2="2315" y2="40"/><line class="cls-1" x1="2320" y1="20" x2="2320" y2="40"/><line class="cls-1" x1="2325" y1="30" x2="2325" y2="40"/><line class="cls-1" x1="2330" y1="20" x2="2330" y2="40"/><line class="cls-1" x1="2335" y1="30" x2="2335" y2="40"/><line class="cls-1" x1="2340" y1="20" x2="2340" y2="40"/><line class="cls-1" x1="2345" y1="30" x2="2345" y2="40"/><line class="cls-1" x1="2350" y1="10" x2="2350" y2="40"/><line class="cls-1" x1="2355" y1="30" x2="2355" y2="40"/><line class="cls-1" x1="2360" y1="20" x2="2360" y2="40"/><line class="cls-1" x1="2365" y1="30" x2="2365" y2="40"/><line class="cls-1" x1="2370" y1="20" x2="2370" y2="40"/><line class="cls-1" x1="2375" y1="30" x2="2375" y2="40"/><line class="cls-1" x1="2380" y1="20" x2="2380" y2="40"/><line class="cls-1" x1="2385" y1="30" x2="2385" y2="40"/><line class="cls-1" x1="2390" y1="20" x2="2390" y2="40"/><line class="cls-1" x1="2395" y1="30" x2="2395" y2="40"/><line class="cls-1" x1="2400" x2="2400" y2="40"/><line class="cls-1" x1="2405" y1="30" x2="2405" y2="40"/><line class="cls-1" x1="2410" y1="20" x2="2410" y2="40"/><line class="cls-1" x1="2415" y1="30" x2="2415" y2="40"/><line class="cls-1" x1="2420" y1="20" x2="2420" y2="40"/><line class="cls-1" x1="2425" y1="30" x2="2425" y2="40"/><line class="cls-1" x1="2430" y1="20" x2="2430" y2="40"/><line class="cls-1" x1="2435" y1="30" x2="2435" y2="40"/><line class="cls-1" x1="2440" y1="20" x2="2440" y2="40"/><line class="cls-1" x1="2445" y1="30" x2="2445" y2="40"/><line class="cls-1" x1="2450" y1="10" x2="2450" y2="40"/><line class="cls-1" x1="2455" y1="30" x2="2455" y2="40"/><line class="cls-1" x1="2460" y1="20" x2="2460" y2="40"/><line class="cls-1" x1="2465" y1="30" x2="2465" y2="40"/><line class="cls-1" x1="2470" y1="20" x2="2470" y2="40"/><line class="cls-1" x1="2475" y1="30" x2="2475" y2="40"/><line class="cls-1" x1="2480" y1="20" x2="2480" y2="40"/><line class="cls-1" x1="2485" y1="30" x2="2485" y2="40"/><line class="cls-1" x1="2490" y1="20" x2="2490" y2="40"/><line class="cls-1" x1="2495" y1="30" x2="2495" y2="40"/><line class="cls-1" x1="2500" x2="2500" y2="40"/><line class="cls-1" x1="2505" y1="30" x2="2505" y2="40"/><line class="cls-1" x1="2510" y1="20" x2="2510" y2="40"/><line class="cls-1" x1="2515" y1="30" x2="2515" y2="40"/><line class="cls-1" x1="2520" y1="20" x2="2520" y2="40"/><line class="cls-1" x1="2525" y1="30" x2="2525" y2="40"/><line class="cls-1" x1="2530" y1="20" x2="2530" y2="40"/><line class="cls-1" x1="2535" y1="30" x2="2535" y2="40"/><line class="cls-1" x1="2540" y1="20" x2="2540" y2="40"/><line class="cls-1" x1="2545" y1="30" x2="2545" y2="40"/><line class="cls-1" x1="2550" y1="10" x2="2550" y2="40"/><line class="cls-1" x1="2555" y1="30" x2="2555" y2="40"/><line class="cls-1" x1="2560" y1="20" x2="2560" y2="40"/><line class="cls-1" x1="2565" y1="30" x2="2565" y2="40"/><line class="cls-1" x1="2570" y1="20" x2="2570" y2="40"/><line class="cls-1" x1="2575" y1="30" x2="2575" y2="40"/><line class="cls-1" x1="2580" y1="20" x2="2580" y2="40"/><line class="cls-1" x1="2585" y1="30" x2="2585" y2="40"/><line class="cls-1" x1="2590" y1="20" x2="2590" y2="40"/><line class="cls-1" x1="2595" y1="30" x2="2595" y2="40"/><line class="cls-1" x1="2600" x2="2600" y2="40"/><line class="cls-1" x1="2605" y1="30" x2="2605" y2="40"/><line class="cls-1" x1="2610" y1="20" x2="2610" y2="40"/><line class="cls-1" x1="2615" y1="30" x2="2615" y2="40"/><line class="cls-1" x1="2620" y1="20" x2="2620" y2="40"/><line class="cls-1" x1="2625" y1="30" x2="2625" y2="40"/><line class="cls-1" x1="2630" y1="20" x2="2630" y2="40"/><line class="cls-1" x1="2635" y1="30" x2="2635" y2="40"/><line class="cls-1" x1="2640" y1="20" x2="2640" y2="40"/><line class="cls-1" x1="2645" y1="30" x2="2645" y2="40"/><line class="cls-1" x1="2650" y1="10" x2="2650" y2="40"/><line class="cls-1" x1="2655" y1="30" x2="2655" y2="40"/><line class="cls-1" x1="2660" y1="20" x2="2660" y2="40"/><line class="cls-1" x1="2665" y1="30" x2="2665" y2="40"/><line class="cls-1" x1="2670" y1="20" x2="2670" y2="40"/><line class="cls-1" x1="2675" y1="30" x2="2675" y2="40"/><line class="cls-1" x1="2680" y1="20" x2="2680" y2="40"/><line class="cls-1" x1="2685" y1="30" x2="2685" y2="40"/><line class="cls-1" x1="2690" y1="20" x2="2690" y2="40"/><line class="cls-1" x1="2695" y1="30" x2="2695" y2="40"/><line class="cls-1" x1="2700" x2="2700" y2="40"/><line class="cls-1" x1="2705" y1="30" x2="2705" y2="40"/><line class="cls-1" x1="2710" y1="20" x2="2710" y2="40"/><line class="cls-1" x1="2715" y1="30" x2="2715" y2="40"/><line class="cls-1" x1="2720" y1="20" x2="2720" y2="40"/><line class="cls-1" x1="2725" y1="30" x2="2725" y2="40"/><line class="cls-1" x1="2730" y1="20" x2="2730" y2="40"/><line class="cls-1" x1="2735" y1="30" x2="2735" y2="40"/><line class="cls-1" x1="2740" y1="20" x2="2740" y2="40"/><line class="cls-1" x1="2745" y1="30" x2="2745" y2="40"/><line class="cls-1" x1="2750" y1="10" x2="2750" y2="40"/><line class="cls-1" x1="2755" y1="30" x2="2755" y2="40"/><line class="cls-1" x1="2760" y1="20" x2="2760" y2="40"/><line class="cls-1" x1="2765" y1="30" x2="2765" y2="40"/><line class="cls-1" x1="2770" y1="20" x2="2770" y2="40"/><line class="cls-1" x1="2775" y1="30" x2="2775" y2="40"/><line class="cls-1" x1="2780" y1="20" x2="2780" y2="40"/><line class="cls-1" x1="2785" y1="30" x2="2785" y2="40"/><line class="cls-1" x1="2790" y1="20" x2="2790" y2="40"/><line class="cls-1" x1="2795" y1="30" x2="2795" y2="40"/><line class="cls-1" x1="2800" x2="2800" y2="40"/><line class="cls-1" x1="2805" y1="30" x2="2805" y2="40"/><line class="cls-1" x1="2810" y1="20" x2="2810" y2="40"/><line class="cls-1" x1="2815" y1="30" x2="2815" y2="40"/><line class="cls-1" x1="2820" y1="20" x2="2820" y2="40"/><line class="cls-1" x1="2825" y1="30" x2="2825" y2="40"/><line class="cls-1" x1="2830" y1="20" x2="2830" y2="40"/><line class="cls-1" x1="2835" y1="30" x2="2835" y2="40"/><line class="cls-1" x1="2840" y1="20" x2="2840" y2="40"/><line class="cls-1" x1="2845" y1="30" x2="2845" y2="40"/><line class="cls-1" x1="2850" y1="10" x2="2850" y2="40"/><line class="cls-1" x1="2855" y1="30" x2="2855" y2="40"/><line class="cls-1" x1="2860" y1="20" x2="2860" y2="40"/><line class="cls-1" x1="2865" y1="30" x2="2865" y2="40"/><line class="cls-1" x1="2870" y1="20" x2="2870" y2="40"/><line class="cls-1" x1="2875" y1="30" x2="2875" y2="40"/><line class="cls-1" x1="2880" y1="20" x2="2880" y2="40"/><line class="cls-1" x1="2885" y1="30" x2="2885" y2="40"/><line class="cls-1" x1="2890" y1="20" x2="2890" y2="40"/><line class="cls-1" x1="2895" y1="30" x2="2895" y2="40"/><line class="cls-1" x1="2900" x2="2900" y2="40"/><line class="cls-1" x1="2905" y1="30" x2="2905" y2="40"/><line class="cls-1" x1="2910" y1="20" x2="2910" y2="40"/><line class="cls-1" x1="2915" y1="30" x2="2915" y2="40"/><line class="cls-1" x1="2920" y1="20" x2="2920" y2="40"/><line class="cls-1" x1="2925" y1="30" x2="2925" y2="40"/><line class="cls-1" x1="2930" y1="20" x2="2930" y2="40"/><line class="cls-1" x1="2935" y1="30" x2="2935" y2="40"/><line class="cls-1" x1="2940" y1="20" x2="2940" y2="40"/><line class="cls-1" x1="2945" y1="30" x2="2945" y2="40"/><line class="cls-1" x1="2950" y1="10" x2="2950" y2="40"/><line class="cls-1" x1="2955" y1="30" x2="2955" y2="40"/><line class="cls-1" x1="2960" y1="20" x2="2960" y2="40"/><line class="cls-1" x1="2965" y1="30" x2="2965" y2="40"/><line class="cls-1" x1="2970" y1="20" x2="2970" y2="40"/><line class="cls-1" x1="2975" y1="30" x2="2975" y2="40"/><line class="cls-1" x1="2980" y1="20" x2="2980" y2="40"/><line class="cls-1" x1="2985" y1="30" x2="2985" y2="40"/><line class="cls-1" x1="2990" y1="20" x2="2990" y2="40"/><line class="cls-1" x1="2995" y1="30" x2="2995" y2="40"/><line class="cls-1" x1="3000" x2="3000" y2="40"/><line class="cls-1" x1="3005" y1="30" x2="3005" y2="40"/><line class="cls-1" x1="3010" y1="20" x2="3010" y2="40"/><line class="cls-1" x1="3015" y1="30" x2="3015" y2="40"/><line class="cls-1" x1="3020" y1="20" x2="3020" y2="40"/><line class="cls-1" x1="3025" y1="30" x2="3025" y2="40"/><line class="cls-1" x1="3030" y1="20" x2="3030" y2="40"/><line class="cls-1" x1="3035" y1="30" x2="3035" y2="40"/><line class="cls-1" x1="3040" y1="20" x2="3040" y2="40"/><line class="cls-1" x1="3045" y1="30" x2="3045" y2="40"/><line class="cls-1" x1="3050" y1="10" x2="3050" y2="40"/><line class="cls-1" x1="3055" y1="30" x2="3055" y2="40"/><line class="cls-1" x1="3060" y1="20" x2="3060" y2="40"/><line class="cls-1" x1="3065" y1="30" x2="3065" y2="40"/><line class="cls-1" x1="3070" y1="20" x2="3070" y2="40"/><line class="cls-1" x1="3075" y1="30" x2="3075" y2="40"/><line class="cls-1" x1="3080" y1="20" x2="3080" y2="40"/><line class="cls-1" x1="3085" y1="30" x2="3085" y2="40"/><line class="cls-1" x1="3090" y1="20" x2="3090" y2="40"/><line class="cls-1" x1="3095" y1="30" x2="3095" y2="40"/><line class="cls-1" x1="3100" x2="3100" y2="40"/><line class="cls-1" x1="3105" y1="30" x2="3105" y2="40"/><line class="cls-1" x1="3110" y1="20" x2="3110" y2="40"/><line class="cls-1" x1="3115" y1="30" x2="3115" y2="40"/><line class="cls-1" x1="3120" y1="20" x2="3120" y2="40"/><line class="cls-1" x1="3125" y1="30" x2="3125" y2="40"/><line class="cls-1" x1="3130" y1="20" x2="3130" y2="40"/><line class="cls-1" x1="3135" y1="30" x2="3135" y2="40"/><line class="cls-1" x1="3140" y1="20" x2="3140" y2="40"/><line class="cls-1" x1="3145" y1="30" x2="3145" y2="40"/><line class="cls-1" x1="3150" y1="10" x2="3150" y2="40"/><line class="cls-1" x1="3155" y1="30" x2="3155" y2="40"/><line class="cls-1" x1="3160" y1="20" x2="3160" y2="40"/><line class="cls-1" x1="3165" y1="30" x2="3165" y2="40"/><line class="cls-1" x1="3170" y1="20" x2="3170" y2="40"/><line class="cls-1" x1="3175" y1="30" x2="3175" y2="40"/><line class="cls-1" x1="3180" y1="20" x2="3180" y2="40"/><line class="cls-1" x1="3185" y1="30" x2="3185" y2="40"/><line class="cls-1" x1="3190" y1="20" x2="3190" y2="40"/><line class="cls-1" x1="3195" y1="30" x2="3195" y2="40"/></g><g id="layer2"><line class="cls-1" x1="40" x2="40" y2="2400"/><line class="cls-1" x1="30" y1="45" x2="40" y2="45"/><line class="cls-1" x1="10" y1="50" x2="40" y2="50"/><line class="cls-1" x1="30" y1="55" x2="40" y2="55"/><line class="cls-1" x1="20" y1="60" x2="40" y2="60"/><line class="cls-1" x1="30" y1="65" x2="40" y2="65"/><line class="cls-1" x1="20" y1="70" x2="40" y2="70"/><line class="cls-1" x1="30" y1="75" x2="40" y2="75"/><line class="cls-1" x1="20" y1="80" x2="40" y2="80"/><line class="cls-1" x1="30" y1="85" x2="40" y2="85"/><line class="cls-1" x1="20" y1="90" x2="40" y2="90"/><line class="cls-1" x1="30" y1="95" x2="40" y2="95"/><line class="cls-1" y1="100" x2="40" y2="100"/><line class="cls-1" y1="10" x2="40" y2="10"/><line class="cls-1" x1="30" y1="105" x2="40" y2="105"/><line class="cls-1" x1="20" y1="110" x2="40" y2="110"/><line class="cls-1" x1="30" y1="115" x2="40" y2="115"/><line class="cls-1" x1="20" y1="120" x2="40" y2="120"/><line class="cls-1" x1="30" y1="125" x2="40" y2="125"/><line class="cls-1" x1="20" y1="130" x2="40" y2="130"/><line class="cls-1" x1="30" y1="135" x2="40" y2="135"/><line class="cls-1" x1="20" y1="140" x2="40" y2="140"/><line class="cls-1" x1="30" y1="145" x2="40" y2="145"/><line class="cls-1" x1="10" y1="150" x2="40" y2="150"/><line class="cls-1" x1="30" y1="155" x2="40" y2="155"/><line class="cls-1" x1="20" y1="160" x2="40" y2="160"/><line class="cls-1" x1="30" y1="165" x2="40" y2="165"/><line class="cls-1" x1="20" y1="170" x2="40" y2="170"/><line class="cls-1" x1="30" y1="175" x2="40" y2="175"/><line class="cls-1" x1="20" y1="180" x2="40" y2="180"/><line class="cls-1" x1="30" y1="185" x2="40" y2="185"/><line class="cls-1" x1="20" y1="190" x2="40" y2="190"/><line class="cls-1" x1="30" y1="195" x2="40" y2="195"/><line class="cls-1" y1="200" x2="40" y2="200"/><line class="cls-1" x1="30" y1="205" x2="40" y2="205"/><line class="cls-1" x1="20" y1="210" x2="40" y2="210"/><line class="cls-1" x1="30" y1="215" x2="40" y2="215"/><line class="cls-1" x1="20" y1="220" x2="40" y2="220"/><line class="cls-1" x1="30" y1="225" x2="40" y2="225"/><line class="cls-1" x1="20" y1="230" x2="40" y2="230"/><line class="cls-1" x1="30" y1="235" x2="40" y2="235"/><line class="cls-1" x1="20" y1="240" x2="40" y2="240"/><line class="cls-1" x1="30" y1="245" x2="40" y2="245"/><line class="cls-1" x1="10" y1="250" x2="40" y2="250"/><line class="cls-1" x1="30" y1="255" x2="40" y2="255"/><line class="cls-1" x1="20" y1="260" x2="40" y2="260"/><line class="cls-1" x1="30" y1="265" x2="40" y2="265"/><line class="cls-1" x1="20" y1="270" x2="40" y2="270"/><line class="cls-1" x1="30" y1="275" x2="40" y2="275"/><line class="cls-1" x1="20" y1="280" x2="40" y2="280"/><line class="cls-1" x1="30" y1="285" x2="40" y2="285"/><line class="cls-1" x1="20" y1="290" x2="40" y2="290"/><line class="cls-1" x1="30" y1="295" x2="40" y2="295"/><line class="cls-1" y1="300" x2="40" y2="300"/><line class="cls-1" x1="30" y1="305" x2="40" y2="305"/><line class="cls-1" x1="20" y1="310" x2="40" y2="310"/><line class="cls-1" x1="30" y1="315" x2="40" y2="315"/><line class="cls-1" x1="20" y1="320" x2="40" y2="320"/><line class="cls-1" x1="30" y1="325" x2="40" y2="325"/><line class="cls-1" x1="20" y1="330" x2="40" y2="330"/><line class="cls-1" x1="30" y1="335" x2="40" y2="335"/><line class="cls-1" x1="20" y1="340" x2="40" y2="340"/><line class="cls-1" x1="30" y1="345" x2="40" y2="345"/><line class="cls-1" x1="10" y1="350" x2="40" y2="350"/><line class="cls-1" x1="30" y1="355" x2="40" y2="355"/><line class="cls-1" x1="20" y1="360" x2="40" y2="360"/><line class="cls-1" x1="30" y1="365" x2="40" y2="365"/><line class="cls-1" x1="20" y1="370" x2="40" y2="370"/><line class="cls-1" x1="30" y1="375" x2="40" y2="375"/><line class="cls-1" x1="20" y1="380" x2="40" y2="380"/><line class="cls-1" x1="30" y1="385" x2="40" y2="385"/><line class="cls-1" x1="20" y1="390" x2="40" y2="390"/><line class="cls-1" x1="30" y1="395" x2="40" y2="395"/><line class="cls-1" y1="400" x2="40" y2="400"/><line class="cls-1" x1="30" y1="405" x2="40" y2="405"/><line class="cls-1" x1="20" y1="410" x2="40" y2="410"/><line class="cls-1" x1="30" y1="415" x2="40" y2="415"/><line class="cls-1" x1="20" y1="420" x2="40" y2="420"/><line class="cls-1" x1="30" y1="425" x2="40" y2="425"/><line class="cls-1" x1="20" y1="430" x2="40" y2="430"/><line class="cls-1" x1="30" y1="435" x2="40" y2="435"/><line class="cls-1" x1="20" y1="440" x2="40" y2="440"/><line class="cls-1" x1="30" y1="445" x2="40" y2="445"/><line class="cls-1" x1="10" y1="450" x2="40" y2="450"/><line class="cls-1" x1="30" y1="455" x2="40" y2="455"/><line class="cls-1" x1="20" y1="460" x2="40" y2="460"/><line class="cls-1" x1="30" y1="465" x2="40" y2="465"/><line class="cls-1" x1="20" y1="470" x2="40" y2="470"/><line class="cls-1" x1="30" y1="475" x2="40" y2="475"/><line class="cls-1" x1="20" y1="480" x2="40" y2="480"/><line class="cls-1" x1="30" y1="485" x2="40" y2="485"/><line class="cls-1" x1="20" y1="490" x2="40" y2="490"/><line class="cls-1" x1="30" y1="495" x2="40" y2="495"/><line class="cls-1" y1="500" x2="40" y2="500"/><line class="cls-1" x1="30" y1="505" x2="40" y2="505"/><line class="cls-1" x1="20" y1="510" x2="40" y2="510"/><line class="cls-1" x1="30" y1="515" x2="40" y2="515"/><line class="cls-1" x1="20" y1="520" x2="40" y2="520"/><line class="cls-1" x1="30" y1="525" x2="40" y2="525"/><line class="cls-1" x1="20" y1="530" x2="40" y2="530"/><line class="cls-1" x1="30" y1="535" x2="40" y2="535"/><line class="cls-1" x1="20" y1="540" x2="40" y2="540"/><line class="cls-1" x1="30" y1="545" x2="40" y2="545"/><line class="cls-1" x1="10" y1="550" x2="40" y2="550"/><line class="cls-1" x1="30" y1="555" x2="40" y2="555"/><line class="cls-1" x1="20" y1="560" x2="40" y2="560"/><line class="cls-1" x1="30" y1="565" x2="40" y2="565"/><line class="cls-1" x1="20" y1="570" x2="40" y2="570"/><line class="cls-1" x1="30" y1="575" x2="40" y2="575"/><line class="cls-1" x1="20" y1="580" x2="40" y2="580"/><line class="cls-1" x1="30" y1="585" x2="40" y2="585"/><line class="cls-1" x1="20" y1="590" x2="40" y2="590"/><line class="cls-1" x1="30" y1="595" x2="40" y2="595"/><line class="cls-1" y1="600" x2="40" y2="600"/><line class="cls-1" x1="30" y1="605" x2="40" y2="605"/><line class="cls-1" x1="20" y1="610" x2="40" y2="610"/><line class="cls-1" x1="30" y1="615" x2="40" y2="615"/><line class="cls-1" x1="20" y1="620" x2="40" y2="620"/><line class="cls-1" x1="30" y1="625" x2="40" y2="625"/><line class="cls-1" x1="20" y1="630" x2="40" y2="630"/><line class="cls-1" x1="30" y1="635" x2="40" y2="635"/><line class="cls-1" x1="20" y1="640" x2="40" y2="640"/><line class="cls-1" x1="30" y1="645" x2="40" y2="645"/><line class="cls-1" x1="10" y1="650" x2="40" y2="650"/><line class="cls-1" x1="30" y1="655" x2="40" y2="655"/><line class="cls-1" x1="20" y1="660" x2="40" y2="660"/><line class="cls-1" x1="30" y1="665" x2="40" y2="665"/><line class="cls-1" x1="20" y1="670" x2="40" y2="670"/><line class="cls-1" x1="30" y1="675" x2="40" y2="675"/><line class="cls-1" x1="20" y1="680" x2="40" y2="680"/><line class="cls-1" x1="30" y1="685" x2="40" y2="685"/><line class="cls-1" x1="20" y1="690" x2="40" y2="690"/><line class="cls-1" x1="30" y1="695" x2="40" y2="695"/><line class="cls-1" y1="700" x2="40" y2="700"/><line class="cls-1" x1="30" y1="705" x2="40" y2="705"/><line class="cls-1" x1="20" y1="710" x2="40" y2="710"/><line class="cls-1" x1="30" y1="715" x2="40" y2="715"/><line class="cls-1" x1="20" y1="720" x2="40" y2="720"/><line class="cls-1" x1="30" y1="725" x2="40" y2="725"/><line class="cls-1" x1="20" y1="730" x2="40" y2="730"/><line class="cls-1" x1="30" y1="735" x2="40" y2="735"/><line class="cls-1" x1="20" y1="740" x2="40" y2="740"/><line class="cls-1" x1="30" y1="745" x2="40" y2="745"/><line class="cls-1" x1="10" y1="750" x2="40" y2="750"/><line class="cls-1" x1="30" y1="755" x2="40" y2="755"/><line class="cls-1" x1="20" y1="760" x2="40" y2="760"/><line class="cls-1" x1="30" y1="765" x2="40" y2="765"/><line class="cls-1" x1="20" y1="770" x2="40" y2="770"/><line class="cls-1" x1="30" y1="775" x2="40" y2="775"/><line class="cls-1" x1="20" y1="780" x2="40" y2="780"/><line class="cls-1" x1="30" y1="785" x2="40" y2="785"/><line class="cls-1" x1="20" y1="790" x2="40" y2="790"/><line class="cls-1" x1="30" y1="795" x2="40" y2="795"/><line class="cls-1" y1="800" x2="40" y2="800"/><line class="cls-1" x1="30" y1="805" x2="40" y2="805"/><line class="cls-1" x1="20" y1="810" x2="40" y2="810"/><line class="cls-1" x1="30" y1="815" x2="40" y2="815"/><line class="cls-1" x1="20" y1="820" x2="40" y2="820"/><line class="cls-1" x1="30" y1="825" x2="40" y2="825"/><line class="cls-1" x1="20" y1="830" x2="40" y2="830"/><line class="cls-1" x1="30" y1="835" x2="40" y2="835"/><line class="cls-1" x1="20" y1="840" x2="40" y2="840"/><line class="cls-1" x1="30" y1="845" x2="40" y2="845"/><line class="cls-1" x1="10" y1="850" x2="40" y2="850"/><line class="cls-1" x1="30" y1="855" x2="40" y2="855"/><line class="cls-1" x1="20" y1="860" x2="40" y2="860"/><line class="cls-1" x1="30" y1="865" x2="40" y2="865"/><line class="cls-1" x1="20" y1="870" x2="40" y2="870"/><line class="cls-1" x1="30" y1="875" x2="40" y2="875"/><line class="cls-1" x1="20" y1="880" x2="40" y2="880"/><line class="cls-1" x1="30" y1="885" x2="40" y2="885"/><line class="cls-1" x1="20" y1="890" x2="40" y2="890"/><line class="cls-1" x1="30" y1="895" x2="40" y2="895"/><line class="cls-1" y1="900" x2="40" y2="900"/><line class="cls-1" x1="30" y1="905" x2="40" y2="905"/><line class="cls-1" x1="20" y1="910" x2="40" y2="910"/><line class="cls-1" x1="30" y1="915" x2="40" y2="915"/><line class="cls-1" x1="20" y1="920" x2="40" y2="920"/><line class="cls-1" x1="30" y1="925" x2="40" y2="925"/><line class="cls-1" x1="20" y1="930" x2="40" y2="930"/><line class="cls-1" x1="30" y1="935" x2="40" y2="935"/><line class="cls-1" x1="20" y1="940" x2="40" y2="940"/><line class="cls-1" x1="30" y1="945" x2="40" y2="945"/><line class="cls-1" x1="10" y1="950" x2="40" y2="950"/><line class="cls-1" x1="30" y1="955" x2="40" y2="955"/><line class="cls-1" x1="20" y1="960" x2="40" y2="960"/><line class="cls-1" x1="30" y1="965" x2="40" y2="965"/><line class="cls-1" x1="20" y1="970" x2="40" y2="970"/><line class="cls-1" x1="30" y1="975" x2="40" y2="975"/><line class="cls-1" x1="20" y1="980" x2="40" y2="980"/><line class="cls-1" x1="30" y1="985" x2="40" y2="985"/><line class="cls-1" x1="20" y1="990" x2="40" y2="990"/><line class="cls-1" x1="30" y1="995" x2="40" y2="995"/><line class="cls-1" y1="1000" x2="40" y2="1000"/><line class="cls-1" x1="30" y1="1005" x2="40" y2="1005"/><line class="cls-1" x1="20" y1="1010" x2="40" y2="1010"/><line class="cls-1" x1="30" y1="1015" x2="40" y2="1015"/><line class="cls-1" x1="20" y1="1020" x2="40" y2="1020"/><line class="cls-1" x1="30" y1="1025" x2="40" y2="1025"/><line class="cls-1" x1="20" y1="1030" x2="40" y2="1030"/><line class="cls-1" x1="30" y1="1035" x2="40" y2="1035"/><line class="cls-1" x1="20" y1="1040" x2="40" y2="1040"/><line class="cls-1" x1="30" y1="1045" x2="40" y2="1045"/><line class="cls-1" x1="10" y1="1050" x2="40" y2="1050"/><line class="cls-1" x1="30" y1="1055" x2="40" y2="1055"/><line class="cls-1" x1="20" y1="1060" x2="40" y2="1060"/><line class="cls-1" x1="30" y1="1065" x2="40" y2="1065"/><line class="cls-1" x1="20" y1="1070" x2="40" y2="1070"/><line class="cls-1" x1="30" y1="1075" x2="40" y2="1075"/><line class="cls-1" x1="20" y1="1080" x2="40" y2="1080"/><line class="cls-1" x1="30" y1="1085" x2="40" y2="1085"/><line class="cls-1" x1="20" y1="1090" x2="40" y2="1090"/><line class="cls-1" x1="30" y1="1095" x2="40" y2="1095"/><line class="cls-1" y1="1100" x2="40" y2="1100"/><line class="cls-1" x1="30" y1="1105" x2="40" y2="1105"/><line class="cls-1" x1="20" y1="1110" x2="40" y2="1110"/><line class="cls-1" x1="30" y1="1115" x2="40" y2="1115"/><line class="cls-1" x1="20" y1="1120" x2="40" y2="1120"/><line class="cls-1" x1="30" y1="1125" x2="40" y2="1125"/><line class="cls-1" x1="20" y1="1130" x2="40" y2="1130"/><line class="cls-1" x1="30" y1="1135" x2="40" y2="1135"/><line class="cls-1" x1="20" y1="1140" x2="40" y2="1140"/><line class="cls-1" x1="30" y1="1145" x2="40" y2="1145"/><line class="cls-1" x1="10" y1="1150" x2="40" y2="1150"/><line class="cls-1" x1="30" y1="1155" x2="40" y2="1155"/><line class="cls-1" x1="20" y1="1160" x2="40" y2="1160"/><line class="cls-1" x1="30" y1="1165" x2="40" y2="1165"/><line class="cls-1" x1="20" y1="1170" x2="40" y2="1170"/><line class="cls-1" x1="30" y1="1175" x2="40" y2="1175"/><line class="cls-1" x1="20" y1="1180" x2="40" y2="1180"/><line class="cls-1" x1="30" y1="1185" x2="40" y2="1185"/><line class="cls-1" x1="20" y1="1190" x2="40" y2="1190"/><line class="cls-1" x1="30" y1="1195" x2="40" y2="1195"/><line class="cls-1" y1="1200" x2="40" y2="1200"/><line class="cls-1" x1="30" y1="1205" x2="40" y2="1205"/><line class="cls-1" x1="20" y1="1210" x2="40" y2="1210"/><line class="cls-1" x1="30" y1="1215" x2="40" y2="1215"/><line class="cls-1" x1="20" y1="1220" x2="40" y2="1220"/><line class="cls-1" x1="30" y1="1225" x2="40" y2="1225"/><line class="cls-1" x1="20" y1="1230" x2="40" y2="1230"/><line class="cls-1" x1="30" y1="1235" x2="40" y2="1235"/><line class="cls-1" x1="20" y1="1240" x2="40" y2="1240"/><line class="cls-1" x1="30" y1="1245" x2="40" y2="1245"/><line class="cls-1" x1="10" y1="1250" x2="40" y2="1250"/><line class="cls-1" x1="30" y1="1255" x2="40" y2="1255"/><line class="cls-1" x1="20" y1="1260" x2="40" y2="1260"/><line class="cls-1" x1="30" y1="1265" x2="40" y2="1265"/><line class="cls-1" x1="20" y1="1270" x2="40" y2="1270"/><line class="cls-1" x1="30" y1="1275" x2="40" y2="1275"/><line class="cls-1" x1="20" y1="1280" x2="40" y2="1280"/><line class="cls-1" x1="30" y1="1285" x2="40" y2="1285"/><line class="cls-1" x1="20" y1="1290" x2="40" y2="1290"/><line class="cls-1" x1="30" y1="1295" x2="40" y2="1295"/><line class="cls-1" y1="1300" x2="40" y2="1300"/><line class="cls-1" x1="30" y1="1305" x2="40" y2="1305"/><line class="cls-1" x1="20" y1="1310" x2="40" y2="1310"/><line class="cls-1" x1="30" y1="1315" x2="40" y2="1315"/><line class="cls-1" x1="20" y1="1320" x2="40" y2="1320"/><line class="cls-1" x1="30" y1="1325" x2="40" y2="1325"/><line class="cls-1" x1="20" y1="1330" x2="40" y2="1330"/><line class="cls-1" x1="30" y1="1335" x2="40" y2="1335"/><line class="cls-1" x1="20" y1="1340" x2="40" y2="1340"/><line class="cls-1" x1="30" y1="1345" x2="40" y2="1345"/><line class="cls-1" x1="10" y1="1350" x2="40" y2="1350"/><line class="cls-1" x1="30" y1="1355" x2="40" y2="1355"/><line class="cls-1" x1="20" y1="1360" x2="40" y2="1360"/><line class="cls-1" x1="30" y1="1365" x2="40" y2="1365"/><line class="cls-1" x1="20" y1="1370" x2="40" y2="1370"/><line class="cls-1" x1="30" y1="1375" x2="40" y2="1375"/><line class="cls-1" x1="20" y1="1380" x2="40" y2="1380"/><line class="cls-1" x1="30" y1="1385" x2="40" y2="1385"/><line class="cls-1" x1="20" y1="1390" x2="40" y2="1390"/><line class="cls-1" x1="30" y1="1395" x2="40" y2="1395"/><line class="cls-1" y1="1400" x2="40" y2="1400"/><line class="cls-1" x1="30" y1="1405" x2="40" y2="1405"/><line class="cls-1" x1="20" y1="1410" x2="40" y2="1410"/><line class="cls-1" x1="30" y1="1415" x2="40" y2="1415"/><line class="cls-1" x1="20" y1="1420" x2="40" y2="1420"/><line class="cls-1" x1="30" y1="1425" x2="40" y2="1425"/><line class="cls-1" x1="20" y1="1430" x2="40" y2="1430"/><line class="cls-1" x1="30" y1="1435" x2="40" y2="1435"/><line class="cls-1" x1="20" y1="1440" x2="40" y2="1440"/><line class="cls-1" x1="30" y1="1445" x2="40" y2="1445"/><line class="cls-1" x1="10" y1="1450" x2="40" y2="1450"/><line class="cls-1" x1="30" y1="1455" x2="40" y2="1455"/><line class="cls-1" x1="20" y1="1460" x2="40" y2="1460"/><line class="cls-1" x1="30" y1="1465" x2="40" y2="1465"/><line class="cls-1" x1="20" y1="1470" x2="40" y2="1470"/><line class="cls-1" x1="30" y1="1475" x2="40" y2="1475"/><line class="cls-1" x1="20" y1="1480" x2="40" y2="1480"/><line class="cls-1" x1="30" y1="1485" x2="40" y2="1485"/><line class="cls-1" x1="20" y1="1490" x2="40" y2="1490"/><line class="cls-1" x1="30" y1="1495" x2="40" y2="1495"/><line class="cls-1" y1="1500" x2="40" y2="1500"/><line class="cls-1" x1="30" y1="1505" x2="40" y2="1505"/><line class="cls-1" x1="20" y1="1510" x2="40" y2="1510"/><line class="cls-1" x1="30" y1="1515" x2="40" y2="1515"/><line class="cls-1" x1="20" y1="1520" x2="40" y2="1520"/><line class="cls-1" x1="30" y1="1525" x2="40" y2="1525"/><line class="cls-1" x1="20" y1="1530" x2="40" y2="1530"/><line class="cls-1" x1="30" y1="1535" x2="40" y2="1535"/><line class="cls-1" x1="20" y1="1540" x2="40" y2="1540"/><line class="cls-1" x1="30" y1="1545" x2="40" y2="1545"/><line class="cls-1" x1="10" y1="1550" x2="40" y2="1550"/><line class="cls-1" x1="30" y1="1555" x2="40" y2="1555"/><line class="cls-1" x1="20" y1="1560" x2="40" y2="1560"/><line class="cls-1" x1="30" y1="1565" x2="40" y2="1565"/><line class="cls-1" x1="20" y1="1570" x2="40" y2="1570"/><line class="cls-1" x1="30" y1="1575" x2="40" y2="1575"/><line class="cls-1" x1="20" y1="1580" x2="40" y2="1580"/><line class="cls-1" x1="30" y1="1585" x2="40" y2="1585"/><line class="cls-1" x1="20" y1="1590" x2="40" y2="1590"/><line class="cls-1" x1="30" y1="1595" x2="40" y2="1595"/><line class="cls-1" y1="1600" x2="40" y2="1600"/><line class="cls-1" x1="30" y1="1605" x2="40" y2="1605"/><line class="cls-1" x1="20" y1="1610" x2="40" y2="1610"/><line class="cls-1" x1="30" y1="1615" x2="40" y2="1615"/><line class="cls-1" x1="20" y1="1620" x2="40" y2="1620"/><line class="cls-1" x1="30" y1="1625" x2="40" y2="1625"/><line class="cls-1" x1="20" y1="1630" x2="40" y2="1630"/><line class="cls-1" x1="30" y1="1635" x2="40" y2="1635"/><line class="cls-1" x1="20" y1="1640" x2="40" y2="1640"/><line class="cls-1" x1="30" y1="1645" x2="40" y2="1645"/><line class="cls-1" x1="10" y1="1650" x2="40" y2="1650"/><line class="cls-1" x1="30" y1="1655" x2="40" y2="1655"/><line class="cls-1" x1="20" y1="1660" x2="40" y2="1660"/><line class="cls-1" x1="30" y1="1665" x2="40" y2="1665"/><line class="cls-1" x1="20" y1="1670" x2="40" y2="1670"/><line class="cls-1" x1="30" y1="1675" x2="40" y2="1675"/><line class="cls-1" x1="20" y1="1680" x2="40" y2="1680"/><line class="cls-1" x1="30" y1="1685" x2="40" y2="1685"/><line class="cls-1" x1="20" y1="1690" x2="40" y2="1690"/><line class="cls-1" x1="30" y1="1695" x2="40" y2="1695"/><line class="cls-1" y1="1700" x2="40" y2="1700"/><line class="cls-1" x1="30" y1="1705" x2="40" y2="1705"/><line class="cls-1" x1="20" y1="1710" x2="40" y2="1710"/><line class="cls-1" x1="30" y1="1715" x2="40" y2="1715"/><line class="cls-1" x1="20" y1="1720" x2="40" y2="1720"/><line class="cls-1" x1="30" y1="1725" x2="40" y2="1725"/><line class="cls-1" x1="20" y1="1730" x2="40" y2="1730"/><line class="cls-1" x1="30" y1="1735" x2="40" y2="1735"/><line class="cls-1" x1="20" y1="1740" x2="40" y2="1740"/><line class="cls-1" x1="30" y1="1745" x2="40" y2="1745"/><line class="cls-1" x1="10" y1="1750" x2="40" y2="1750"/><line class="cls-1" x1="30" y1="1755" x2="40" y2="1755"/><line class="cls-1" x1="20" y1="1760" x2="40" y2="1760"/><line class="cls-1" x1="30" y1="1765" x2="40" y2="1765"/><line class="cls-1" x1="20" y1="1770" x2="40" y2="1770"/><line class="cls-1" x1="30" y1="1775" x2="40" y2="1775"/><line class="cls-1" x1="20" y1="1780" x2="40" y2="1780"/><line class="cls-1" x1="30" y1="1785" x2="40" y2="1785"/><line class="cls-1" x1="20" y1="1790" x2="40" y2="1790"/><line class="cls-1" x1="30" y1="1795" x2="40" y2="1795"/><line class="cls-1" y1="1800" x2="40" y2="1800"/><line class="cls-1" x1="30" y1="1805" x2="40" y2="1805"/><line class="cls-1" x1="20" y1="1810" x2="40" y2="1810"/><line class="cls-1" x1="30" y1="1815" x2="40" y2="1815"/><line class="cls-1" x1="20" y1="1820" x2="40" y2="1820"/><line class="cls-1" x1="30" y1="1825" x2="40" y2="1825"/><line class="cls-1" x1="20" y1="1830" x2="40" y2="1830"/><line class="cls-1" x1="30" y1="1835" x2="40" y2="1835"/><line class="cls-1" x1="20" y1="1840" x2="40" y2="1840"/><line class="cls-1" x1="30" y1="1845" x2="40" y2="1845"/><line class="cls-1" x1="10" y1="1850" x2="40" y2="1850"/><line class="cls-1" x1="30" y1="1855" x2="40" y2="1855"/><line class="cls-1" x1="20" y1="1860" x2="40" y2="1860"/><line class="cls-1" x1="30" y1="1865" x2="40" y2="1865"/><line class="cls-1" x1="20" y1="1870" x2="40" y2="1870"/><line class="cls-1" x1="30" y1="1875" x2="40" y2="1875"/><line class="cls-1" x1="20" y1="1880" x2="40" y2="1880"/><line class="cls-1" x1="30" y1="1885" x2="40" y2="1885"/><line class="cls-1" x1="20" y1="1890" x2="40" y2="1890"/><line class="cls-1" x1="30" y1="1895" x2="40" y2="1895"/><line class="cls-1" y1="1900" x2="40" y2="1900"/><line class="cls-1" x1="30" y1="1905" x2="40" y2="1905"/><line class="cls-1" x1="20" y1="1910" x2="40" y2="1910"/><line class="cls-1" x1="30" y1="1915" x2="40" y2="1915"/><line class="cls-1" x1="20" y1="1920" x2="40" y2="1920"/><line class="cls-1" x1="30" y1="1925" x2="40" y2="1925"/><line class="cls-1" x1="20" y1="1930" x2="40" y2="1930"/><line class="cls-1" x1="30" y1="1935" x2="40" y2="1935"/><line class="cls-1" x1="20" y1="1940" x2="40" y2="1940"/><line class="cls-1" x1="30" y1="1945" x2="40" y2="1945"/><line class="cls-1" x1="10" y1="1950" x2="40" y2="1950"/><line class="cls-1" x1="30" y1="1955" x2="40" y2="1955"/><line class="cls-1" x1="20" y1="1960" x2="40" y2="1960"/><line class="cls-1" x1="30" y1="1965" x2="40" y2="1965"/><line class="cls-1" x1="20" y1="1970" x2="40" y2="1970"/><line class="cls-1" x1="30" y1="1975" x2="40" y2="1975"/><line class="cls-1" x1="20" y1="1980" x2="40" y2="1980"/><line class="cls-1" x1="30" y1="1985" x2="40" y2="1985"/><line class="cls-1" x1="20" y1="1990" x2="40" y2="1990"/><line class="cls-1" x1="30" y1="1995" x2="40" y2="1995"/><line class="cls-1" y1="2000" x2="40" y2="2000"/><line class="cls-1" x1="30" y1="2005" x2="40" y2="2005"/><line class="cls-1" x1="20" y1="2010" x2="40" y2="2010"/><line class="cls-1" x1="30" y1="2015" x2="40" y2="2015"/><line class="cls-1" x1="20" y1="2020" x2="40" y2="2020"/><line class="cls-1" x1="30" y1="2025" x2="40" y2="2025"/><line class="cls-1" x1="20" y1="2030" x2="40" y2="2030"/><line class="cls-1" x1="30" y1="2035" x2="40" y2="2035"/><line class="cls-1" x1="20" y1="2040" x2="40" y2="2040"/><line class="cls-1" x1="30" y1="2045" x2="40" y2="2045"/><line class="cls-1" x1="10" y1="2050" x2="40" y2="2050"/><line class="cls-1" x1="30" y1="2055" x2="40" y2="2055"/><line class="cls-1" x1="20" y1="2060" x2="40" y2="2060"/><line class="cls-1" x1="30" y1="2065" x2="40" y2="2065"/><line class="cls-1" x1="20" y1="2070" x2="40" y2="2070"/><line class="cls-1" x1="30" y1="2075" x2="40" y2="2075"/><line class="cls-1" x1="20" y1="2080" x2="40" y2="2080"/><line class="cls-1" x1="30" y1="2085" x2="40" y2="2085"/><line class="cls-1" x1="20" y1="2090" x2="40" y2="2090"/><line class="cls-1" x1="30" y1="2095" x2="40" y2="2095"/><line class="cls-1" y1="2100" x2="40" y2="2100"/><line class="cls-1" x1="30" y1="2105" x2="40" y2="2105"/><line class="cls-1" x1="20" y1="2110" x2="40" y2="2110"/><line class="cls-1" x1="30" y1="2115" x2="40" y2="2115"/><line class="cls-1" x1="20" y1="2120" x2="40" y2="2120"/><line class="cls-1" x1="30" y1="2125" x2="40" y2="2125"/><line class="cls-1" x1="20" y1="2130" x2="40" y2="2130"/><line class="cls-1" x1="30" y1="2135" x2="40" y2="2135"/><line class="cls-1" x1="20" y1="2140" x2="40" y2="2140"/><line class="cls-1" x1="30" y1="2145" x2="40" y2="2145"/><line class="cls-1" x1="10" y1="2150" x2="40" y2="2150"/><line class="cls-1" x1="30" y1="2155" x2="40" y2="2155"/><line class="cls-1" x1="20" y1="2160" x2="40" y2="2160"/><line class="cls-1" x1="30" y1="2165" x2="40" y2="2165"/><line class="cls-1" x1="20" y1="2170" x2="40" y2="2170"/><line class="cls-1" x1="30" y1="2175" x2="40" y2="2175"/><line class="cls-1" x1="20" y1="2180" x2="40" y2="2180"/><line class="cls-1" x1="30" y1="2185" x2="40" y2="2185"/><line class="cls-1" x1="20" y1="2190" x2="40" y2="2190"/><line class="cls-1" x1="30" y1="2195" x2="40" y2="2195"/><line class="cls-1" y1="2200" x2="40" y2="2200"/><line class="cls-1" x1="30" y1="2205" x2="40" y2="2205"/><line class="cls-1" x1="20" y1="2210" x2="40" y2="2210"/><line class="cls-1" x1="30" y1="2215" x2="40" y2="2215"/><line class="cls-1" x1="20" y1="2220" x2="40" y2="2220"/><line class="cls-1" x1="30" y1="2225" x2="40" y2="2225"/><line class="cls-1" x1="20" y1="2230" x2="40" y2="2230"/><line class="cls-1" x1="30" y1="2235" x2="40" y2="2235"/><line class="cls-1" x1="20" y1="2240" x2="40" y2="2240"/><line class="cls-1" x1="30" y1="2245" x2="40" y2="2245"/><line class="cls-1" x1="10" y1="2250" x2="40" y2="2250"/><line class="cls-1" x1="30" y1="2255" x2="40" y2="2255"/><line class="cls-1" x1="20" y1="2260" x2="40" y2="2260"/><line class="cls-1" x1="30" y1="2265" x2="40" y2="2265"/><line class="cls-1" x1="20" y1="2270" x2="40" y2="2270"/><line class="cls-1" x1="30" y1="2275" x2="40" y2="2275"/><line class="cls-1" x1="20" y1="2280" x2="40" y2="2280"/><line class="cls-1" x1="30" y1="2285" x2="40" y2="2285"/><line class="cls-1" x1="20" y1="2290" x2="40" y2="2290"/><line class="cls-1" x1="30" y1="2295" x2="40" y2="2295"/><line class="cls-1" y1="2300" x2="40" y2="2300"/><line class="cls-1" x1="30" y1="2305" x2="40" y2="2305"/><line class="cls-1" x1="20" y1="2310" x2="40" y2="2310"/><line class="cls-1" x1="30" y1="2315" x2="40" y2="2315"/><line class="cls-1" x1="20" y1="2320" x2="40" y2="2320"/><line class="cls-1" x1="30" y1="2325" x2="40" y2="2325"/><line class="cls-1" x1="20" y1="2330" x2="40" y2="2330"/><line class="cls-1" x1="30" y1="2335" x2="40" y2="2335"/><line class="cls-1" x1="20" y1="2340" x2="40" y2="2340"/><line class="cls-1" x1="30" y1="2345" x2="40" y2="2345"/><line class="cls-1" x1="10" y1="2350" x2="40" y2="2350"/><line class="cls-1" x1="30" y1="2355" x2="40" y2="2355"/><line class="cls-1" x1="20" y1="2360" x2="40" y2="2360"/><line class="cls-1" x1="30" y1="2365" x2="40" y2="2365"/><line class="cls-1" x1="20" y1="2370" x2="40" y2="2370"/><line class="cls-1" x1="30" y1="2375" x2="40" y2="2375"/><line class="cls-1" x1="20" y1="2380" x2="40" y2="2380"/><line class="cls-1" x1="30" y1="2385" x2="40" y2="2385"/><line class="cls-1" x1="20" y1="2390" x2="40" y2="2390"/><line class="cls-1" x1="30" y1="2395" x2="40" y2="2395"/></g><g id="text"><g id="tate"><path class="cls-2" d="M10.16,80.19V78.85l.84.47v1.76H3v-.89Z"/><path class="cls-2" d="M4.05,85.17A5.19,5.19,0,0,1,7,84.37a5.19,5.19,0,0,1,2.94.8,2.35,2.35,0,0,1,0,4.1,5.19,5.19,0,0,1-2.94.8,5.19,5.19,0,0,1-2.94-.8,2.35,2.35,0,0,1,0-4.1Zm5.37.67A4.67,4.67,0,0,0,7,85.26a4.67,4.67,0,0,0-2.43.59,1.52,1.52,0,0,0,0,2.76A4.66,4.66,0,0,0,7,89.19a4.67,4.67,0,0,0,2.44-.59,1.52,1.52,0,0,0,0-2.76Z"/><path class="cls-2" d="M4.05,92A5.19,5.19,0,0,1,7,91.18a5.19,5.19,0,0,1,2.94.8,2.35,2.35,0,0,1,0,4.1,5.19,5.19,0,0,1-2.94.8,5.19,5.19,0,0,1-2.94-.8,2.35,2.35,0,0,1,0-4.1Zm5.37.67A4.67,4.67,0,0,0,7,92.07a4.67,4.67,0,0,0-2.43.59,1.52,1.52,0,0,0,0,2.76A4.66,4.66,0,0,0,7,96a4.67,4.67,0,0,0,2.44-.59,1.52,1.52,0,0,0,0-2.76Z"/><path class="cls-2" d="M3,177.6l3.37,2.91c.24.2.88.74,1.16.94a2.06,2.06,0,0,0,1.22.44,1.51,1.51,0,0,0,1.56-1.59A1.54,1.54,0,0,0,9.61,179a1.77,1.77,0,0,0-.95-.26v-.89a2.55,2.55,0,0,1,1.65.6,2.51,2.51,0,0,1-1.57,4.37A2.82,2.82,0,0,1,7,182.15c-.47-.34-1-.77-1.33-1.09l-1.88-1.67v3.38H3Z"/><path class="cls-2" d="M4.05,185.17a5.19,5.19,0,0,1,2.94-.8,5.19,5.19,0,0,1,2.94.8,2.35,2.35,0,0,1,0,4.1,5.19,5.19,0,0,1-2.94.8,5.19,5.19,0,0,1-2.94-.8,2.35,2.35,0,0,1,0-4.1Zm5.37.67A4.67,4.67,0,0,0,7,185.26a4.67,4.67,0,0,0-2.43.59,1.52,1.52,0,0,0,0,2.76,4.66,4.66,0,0,0,2.43.59,4.67,4.67,0,0,0,2.44-.59,1.52,1.52,0,0,0,0-2.76Z"/><path class="cls-2" d="M4.05,192a5.19,5.19,0,0,1,2.94-.8,5.19,5.19,0,0,1,2.94.8,2.35,2.35,0,0,1,0,4.1,5.19,5.19,0,0,1-2.94.8,5.19,5.19,0,0,1-2.94-.8,2.35,2.35,0,0,1,0-4.1Zm5.37.67A4.67,4.67,0,0,0,7,192.07a4.67,4.67,0,0,0-2.43.59,1.52,1.52,0,0,0,0,2.76A4.66,4.66,0,0,0,7,196a4.67,4.67,0,0,0,2.44-.59,1.52,1.52,0,0,0,0-2.76Z"/><path class="cls-2" d="M9,278a2.47,2.47,0,0,1,1.18.37A2.28,2.28,0,0,1,9,282.52a1.91,1.91,0,0,1-1.77-1,1.91,1.91,0,0,1-1.93,1.15,2.47,2.47,0,0,1-1-4.69,2.36,2.36,0,0,1,.84-.18v.89a1.79,1.79,0,0,0-.8.29,1.48,1.48,0,0,0-.6,1.24,1.59,1.59,0,0,0,1.62,1.57A1.42,1.42,0,0,0,6.63,281,2.06,2.06,0,0,0,6.8,280h.79a1.78,1.78,0,0,0,.17.91,1.27,1.27,0,0,0,1.19.67,1.26,1.26,0,0,0,1.37-1.37,1.21,1.21,0,0,0-.46-1,1.6,1.6,0,0,0-.84-.31Z"/><path class="cls-2" d="M4.05,285.17a5.19,5.19,0,0,1,2.94-.8,5.19,5.19,0,0,1,2.94.8,2.35,2.35,0,0,1,0,4.1,5.19,5.19,0,0,1-2.94.8,5.19,5.19,0,0,1-2.94-.8,2.35,2.35,0,0,1,0-4.1Zm5.37.67A4.67,4.67,0,0,0,7,285.26a4.67,4.67,0,0,0-2.43.59,1.52,1.52,0,0,0,0,2.76,4.66,4.66,0,0,0,2.43.59,4.67,4.67,0,0,0,2.44-.59,1.52,1.52,0,0,0,0-2.76Z"/><path class="cls-2" d="M4.05,292a5.19,5.19,0,0,1,2.94-.8,5.19,5.19,0,0,1,2.94.8,2.35,2.35,0,0,1,0,4.1,5.19,5.19,0,0,1-2.94.8,5.19,5.19,0,0,1-2.94-.8,2.35,2.35,0,0,1,0-4.1Zm5.37.67A4.67,4.67,0,0,0,7,292.07a4.67,4.67,0,0,0-2.43.59,1.52,1.52,0,0,0,0,2.76A4.66,4.66,0,0,0,7,296a4.67,4.67,0,0,0,2.44-.59,1.52,1.52,0,0,0,0-2.76Z"/><path class="cls-2" d="M5.32,382.23v1H4.51v-1H3v-.89H4.51v-4.1l6.93,5Zm0-.89H8.86l-3.54-2.53Z"/><path class="cls-2" d="M4.05,385.17a5.19,5.19,0,0,1,2.94-.8,5.19,5.19,0,0,1,2.94.8,2.35,2.35,0,0,1,0,4.1,5.19,5.19,0,0,1-2.94.8,5.19,5.19,0,0,1-2.94-.8,2.35,2.35,0,0,1,0-4.1Zm5.37.67A4.67,4.67,0,0,0,7,385.26a4.67,4.67,0,0,0-2.43.59,1.52,1.52,0,0,0,0,2.76,4.66,4.66,0,0,0,2.43.59,4.67,4.67,0,0,0,2.44-.59,1.52,1.52,0,0,0,0-2.76Z"/><path class="cls-2" d="M4.05,392a5.19,5.19,0,0,1,2.94-.8,5.19,5.19,0,0,1,2.94.8,2.35,2.35,0,0,1,0,4.1,5.19,5.19,0,0,1-2.94.8,5.19,5.19,0,0,1-2.94-.8,2.35,2.35,0,0,1,0-4.1Zm5.37.67A4.67,4.67,0,0,0,7,392.07a4.67,4.67,0,0,0-2.43.59,1.52,1.52,0,0,0,0,2.76A4.66,4.66,0,0,0,7,396a4.67,4.67,0,0,0,2.44-.59,1.52,1.52,0,0,0,0-2.76Z"/><path class="cls-2" d="M10.18,482.74v-2.57l-1.73-.52a2.17,2.17,0,0,1,0,.5,2.6,2.6,0,0,1-2.77,2.64,2.8,2.8,0,0,1-2.88-2.91,2.71,2.71,0,0,1,.62-1.79,3.34,3.34,0,0,1,.82-.7l.5.71a1.86,1.86,0,0,0-.65.54A2,2,0,0,0,3.67,480a2,2,0,0,0,2.05,2,1.9,1.9,0,0,0,2-2,2.61,2.61,0,0,0-.55-1.55L11,479.57v3.18Z"/><path class="cls-2" d="M4.05,485.17a5.19,5.19,0,0,1,2.94-.8,5.19,5.19,0,0,1,2.94.8,2.35,2.35,0,0,1,0,4.1,5.19,5.19,0,0,1-2.94.8,5.19,5.19,0,0,1-2.94-.8,2.35,2.35,0,0,1,0-4.1Zm5.37.67A4.67,4.67,0,0,0,7,485.26a4.67,4.67,0,0,0-2.43.59,1.52,1.52,0,0,0,0,2.76,4.66,4.66,0,0,0,2.43.59,4.67,4.67,0,0,0,2.44-.59,1.52,1.52,0,0,0,0-2.76Z"/><path class="cls-2" d="M4.05,492a5.19,5.19,0,0,1,2.94-.8,5.19,5.19,0,0,1,2.94.8,2.35,2.35,0,0,1,0,4.1,5.19,5.19,0,0,1-2.94.8,5.19,5.19,0,0,1-2.94-.8,2.35,2.35,0,0,1,0-4.1Zm5.37.67A4.67,4.67,0,0,0,7,492.07a4.67,4.67,0,0,0-2.43.59,1.52,1.52,0,0,0,0,2.76A4.66,4.66,0,0,0,7,496a4.67,4.67,0,0,0,2.44-.59,1.52,1.52,0,0,0,0-2.76Z"/><path class="cls-2" d="M10.69,581.7l-2.55-1.84a2.31,2.31,0,0,1,.11.71,2.53,2.53,0,0,1-2.64,2.59,2.76,2.76,0,0,1,0-5.52,3.16,3.16,0,0,1,1.83.66L11.19,581Zm-5.11.58a1.87,1.87,0,0,0,0-3.74,1.87,1.87,0,1,0,0,3.74Z"/><path class="cls-2" d="M4.05,585.17a5.19,5.19,0,0,1,2.94-.8,5.19,5.19,0,0,1,2.94.8,2.35,2.35,0,0,1,0,4.1,5.19,5.19,0,0,1-2.94.8,5.19,5.19,0,0,1-2.94-.8,2.35,2.35,0,0,1,0-4.1Zm5.37.67A4.67,4.67,0,0,0,7,585.26a4.67,4.67,0,0,0-2.43.59,1.52,1.52,0,0,0,0,2.76,4.66,4.66,0,0,0,2.43.59,4.67,4.67,0,0,0,2.44-.59,1.52,1.52,0,0,0,0-2.76Z"/><path class="cls-2" d="M4.05,592a5.19,5.19,0,0,1,2.94-.8,5.19,5.19,0,0,1,2.94.8,2.35,2.35,0,0,1,0,4.1,5.19,5.19,0,0,1-2.94.8,5.19,5.19,0,0,1-2.94-.8,2.35,2.35,0,0,1,0-4.1Zm5.37.67A4.67,4.67,0,0,0,7,592.07a4.67,4.67,0,0,0-2.43.59,1.52,1.52,0,0,0,0,2.76A4.66,4.66,0,0,0,7,596a4.67,4.67,0,0,0,2.44-.59,1.52,1.52,0,0,0,0-2.76Z"/><path class="cls-2" d="M5.21,782.85a2.45,2.45,0,0,1,0-4.89,2,2,0,0,1,2,1.21,2,2,0,0,1,1.75-1,2.21,2.21,0,1,1,0,4.41,2,2,0,0,1-1.75-1A2,2,0,0,1,5.21,782.85Zm0-.89a1.56,1.56,0,0,0,0-3.12,1.56,1.56,0,1,0,0,3.12Zm3.67-.19a1.37,1.37,0,1,0,0-2.73,1.37,1.37,0,1,0,0,2.73Z"/><path class="cls-2" d="M4.05,785.17a5.19,5.19,0,0,1,2.94-.8,5.19,5.19,0,0,1,2.94.8,2.35,2.35,0,0,1,0,4.1,5.19,5.19,0,0,1-2.94.8,5.19,5.19,0,0,1-2.94-.8,2.35,2.35,0,0,1,0-4.1Zm5.37.67A4.67,4.67,0,0,0,7,785.26a4.67,4.67,0,0,0-2.43.59,1.52,1.52,0,0,0,0,2.76,4.66,4.66,0,0,0,2.43.59,4.67,4.67,0,0,0,2.44-.59,1.52,1.52,0,0,0,0-2.76Z"/><path class="cls-2" d="M4.05,792a5.19,5.19,0,0,1,2.94-.8,5.19,5.19,0,0,1,2.94.8,2.35,2.35,0,0,1,0,4.1,5.19,5.19,0,0,1-2.94.8,5.19,5.19,0,0,1-2.94-.8,2.35,2.35,0,0,1,0-4.1Zm5.37.67A4.67,4.67,0,0,0,7,792.07a4.67,4.67,0,0,0-2.43.59,1.52,1.52,0,0,0,0,2.76A4.66,4.66,0,0,0,7,796a4.67,4.67,0,0,0,2.44-.59,1.52,1.52,0,0,0,0-2.76Z"/><path class="cls-2" d="M10.16,973.38V972l.84.47v1.76H3v-.89Z"/><path class="cls-2" d="M4.05,978.36a5.2,5.2,0,0,1,2.94-.8,5.2,5.2,0,0,1,2.94.8,2.35,2.35,0,0,1,0,4.1,5.2,5.2,0,0,1-2.94.8,5.2,5.2,0,0,1-2.94-.8,2.35,2.35,0,0,1,0-4.1Zm5.37.67A4.67,4.67,0,0,0,7,978.44a4.67,4.67,0,0,0-2.43.59,1.52,1.52,0,0,0,0,2.76,4.67,4.67,0,0,0,2.43.59,4.67,4.67,0,0,0,2.44-.59,1.52,1.52,0,0,0,0-2.76Z"/><path class="cls-2" d="M4.05,985.17a5.19,5.19,0,0,1,2.94-.8,5.19,5.19,0,0,1,2.94.8,2.35,2.35,0,0,1,0,4.1,5.2,5.2,0,0,1-2.94.8,5.2,5.2,0,0,1-2.94-.8,2.35,2.35,0,0,1,0-4.1Zm5.37.67A4.67,4.67,0,0,0,7,985.26a4.67,4.67,0,0,0-2.43.59,1.52,1.52,0,0,0,0,2.76,4.67,4.67,0,0,0,2.43.59,4.67,4.67,0,0,0,2.44-.59,1.52,1.52,0,0,0,0-2.76Z"/><path class="cls-2" d="M4.05,992a5.19,5.19,0,0,1,2.94-.8,5.19,5.19,0,0,1,2.94.8,2.35,2.35,0,0,1,0,4.1,5.19,5.19,0,0,1-2.94.8,5.19,5.19,0,0,1-2.94-.8,2.35,2.35,0,0,1,0-4.1Zm5.37.67A4.67,4.67,0,0,0,7,992.07a4.67,4.67,0,0,0-2.43.59,1.52,1.52,0,0,0,0,2.76A4.66,4.66,0,0,0,7,996a4.66,4.66,0,0,0,2.44-.59,1.52,1.52,0,0,0,0-2.76Z"/><path class="cls-2" d="M10.16,1173.38V1172l.84.47v1.76H3v-.89Z"/><path class="cls-2" d="M3,1177.6l3.37,2.91c.24.2.88.74,1.16.94a2.06,2.06,0,0,0,1.22.44,1.51,1.51,0,0,0,1.56-1.59,1.54,1.54,0,0,0-.71-1.33,1.77,1.77,0,0,0-.95-.26v-.89a2.55,2.55,0,0,1,1.65.6,2.52,2.52,0,0,1-1.57,4.37,2.82,2.82,0,0,1-1.71-.64c-.47-.33-1-.77-1.33-1.09l-1.88-1.67v3.38H3Z"/><path class="cls-2" d="M4.05,1185.17a5.19,5.19,0,0,1,2.94-.8,5.19,5.19,0,0,1,2.94.8,2.35,2.35,0,0,1,0,4.1,5.2,5.2,0,0,1-2.94.8,5.2,5.2,0,0,1-2.94-.8,2.35,2.35,0,0,1,0-4.1Zm5.37.67a4.67,4.67,0,0,0-2.44-.59,4.67,4.67,0,0,0-2.43.59,1.52,1.52,0,0,0,0,2.76,4.67,4.67,0,0,0,2.43.59,4.67,4.67,0,0,0,2.44-.59,1.52,1.52,0,0,0,0-2.76Z"/><path class="cls-2" d="M4.05,1192a5.19,5.19,0,0,1,2.94-.8,5.19,5.19,0,0,1,2.94.8,2.35,2.35,0,0,1,0,4.1,5.19,5.19,0,0,1-2.94.8,5.19,5.19,0,0,1-2.94-.8,2.35,2.35,0,0,1,0-4.1Zm5.37.67a4.67,4.67,0,0,0-2.44-.59,4.67,4.67,0,0,0-2.43.59,1.52,1.52,0,0,0,0,2.76A4.66,4.66,0,0,0,7,1196a4.66,4.66,0,0,0,2.44-.59,1.52,1.52,0,0,0,0-2.76Z"/><path class="cls-2" d="M10.16,1473.38V1472l.84.47v1.76H3v-.89Z"/><path class="cls-2" d="M10.18,1482.74v-2.57l-1.73-.52a2.18,2.18,0,0,1,0,.5,2.6,2.6,0,0,1-2.77,2.64,2.8,2.8,0,0,1-2.88-2.91,2.71,2.71,0,0,1,.62-1.79,3.33,3.33,0,0,1,.82-.7l.5.71a1.87,1.87,0,0,0-.65.54,2,2,0,0,0-.48,1.29,2,2,0,0,0,2.05,2,1.9,1.9,0,0,0,2-2,2.61,2.61,0,0,0-.55-1.55l3.86,1.16v3.18Z"/><path class="cls-2" d="M4.05,1485.17a5.19,5.19,0,0,1,2.94-.8,5.19,5.19,0,0,1,2.94.8,2.35,2.35,0,0,1,0,4.1,5.2,5.2,0,0,1-2.94.8,5.2,5.2,0,0,1-2.94-.8,2.35,2.35,0,0,1,0-4.1Zm5.37.67a4.67,4.67,0,0,0-2.44-.59,4.67,4.67,0,0,0-2.43.59,1.52,1.52,0,0,0,0,2.76,4.67,4.67,0,0,0,2.43.59,4.67,4.67,0,0,0,2.44-.59,1.52,1.52,0,0,0,0-2.76Z"/><path class="cls-2" d="M4.05,1492a5.19,5.19,0,0,1,2.94-.8,5.19,5.19,0,0,1,2.94.8,2.35,2.35,0,0,1,0,4.1,5.19,5.19,0,0,1-2.94.8,5.19,5.19,0,0,1-2.94-.8,2.35,2.35,0,0,1,0-4.1Zm5.37.67a4.67,4.67,0,0,0-2.44-.59,4.67,4.67,0,0,0-2.43.59,1.52,1.52,0,0,0,0,2.76A4.66,4.66,0,0,0,7,1496a4.66,4.66,0,0,0,2.44-.59,1.52,1.52,0,0,0,0-2.76Z"/><path class="cls-2" d="M10.16,1573.38V1572l.84.47v1.76H3v-.89Z"/><path class="cls-2" d="M10.69,1581.7l-2.55-1.83a2.3,2.3,0,0,1,.11.71,2.53,2.53,0,0,1-2.64,2.59,2.76,2.76,0,0,1,0-5.52,3.15,3.15,0,0,1,1.83.66l3.78,2.72Zm-5.11.58a1.87,1.87,0,0,0,0-3.74,1.87,1.87,0,1,0,0,3.74Z"/><path class="cls-2" d="M4.05,1585.17a5.19,5.19,0,0,1,2.94-.8,5.19,5.19,0,0,1,2.94.8,2.35,2.35,0,0,1,0,4.1,5.2,5.2,0,0,1-2.94.8,5.2,5.2,0,0,1-2.94-.8,2.35,2.35,0,0,1,0-4.1Zm5.37.67a4.67,4.67,0,0,0-2.44-.59,4.67,4.67,0,0,0-2.43.59,1.52,1.52,0,0,0,0,2.76,4.67,4.67,0,0,0,2.43.59,4.67,4.67,0,0,0,2.44-.59,1.52,1.52,0,0,0,0-2.76Z"/><path class="cls-2" d="M4.05,1592a5.19,5.19,0,0,1,2.94-.8,5.19,5.19,0,0,1,2.94.8,2.35,2.35,0,0,1,0,4.1,5.19,5.19,0,0,1-2.94.8,5.19,5.19,0,0,1-2.94-.8,2.35,2.35,0,0,1,0-4.1Zm5.37.67a4.67,4.67,0,0,0-2.44-.59,4.67,4.67,0,0,0-2.43.59,1.52,1.52,0,0,0,0,2.76A4.66,4.66,0,0,0,7,1596a4.66,4.66,0,0,0,2.44-.59,1.52,1.52,0,0,0,0-2.76Z"/><path class="cls-2" d="M10.16,1773.38V1772l.84.47v1.76H3v-.89Z"/><path class="cls-2" d="M5.21,1782.85a2.45,2.45,0,0,1,0-4.89,2,2,0,0,1,2,1.21,2,2,0,0,1,1.75-1,2.21,2.21,0,1,1,0,4.41,2,2,0,0,1-1.75-1A2,2,0,0,1,5.21,1782.85Zm0-.89a1.56,1.56,0,0,0,0-3.12,1.56,1.56,0,1,0,0,3.12Zm3.67-.19a1.37,1.37,0,1,0,0-2.73,1.37,1.37,0,1,0,0,2.73Z"/><path class="cls-2" d="M4.05,1785.17a5.19,5.19,0,0,1,2.94-.8,5.19,5.19,0,0,1,2.94.8,2.35,2.35,0,0,1,0,4.1,5.2,5.2,0,0,1-2.94.8,5.2,5.2,0,0,1-2.94-.8,2.35,2.35,0,0,1,0-4.1Zm5.37.67a4.67,4.67,0,0,0-2.44-.59,4.67,4.67,0,0,0-2.43.59,1.52,1.52,0,0,0,0,2.76,4.67,4.67,0,0,0,2.43.59,4.67,4.67,0,0,0,2.44-.59,1.52,1.52,0,0,0,0-2.76Z"/><path class="cls-2" d="M4.05,1792a5.19,5.19,0,0,1,2.94-.8,5.19,5.19,0,0,1,2.94.8,2.35,2.35,0,0,1,0,4.1,5.19,5.19,0,0,1-2.94.8,5.19,5.19,0,0,1-2.94-.8,2.35,2.35,0,0,1,0-4.1Zm5.37.67a4.67,4.67,0,0,0-2.44-.59,4.67,4.67,0,0,0-2.43.59,1.52,1.52,0,0,0,0,2.76A4.66,4.66,0,0,0,7,1796a4.66,4.66,0,0,0,2.44-.59,1.52,1.52,0,0,0,0-2.76Z"/><path class="cls-2" d="M10.16,1873.38V1872l.84.47v1.76H3v-.89Z"/><path class="cls-2" d="M3.3,1879.11l2.55,1.83a2.28,2.28,0,0,1-.11-.71,2.53,2.53,0,0,1,2.64-2.59,2.76,2.76,0,0,1,0,5.52,3.13,3.13,0,0,1-1.83-.66l-3.77-2.72Zm5.11-.58a1.87,1.87,0,0,0,0,3.74,1.87,1.87,0,1,0,0-3.74Z"/><path class="cls-2" d="M4.05,1885.17a5.19,5.19,0,0,1,2.94-.8,5.19,5.19,0,0,1,2.94.8,2.35,2.35,0,0,1,0,4.1,5.2,5.2,0,0,1-2.94.8,5.2,5.2,0,0,1-2.94-.8,2.35,2.35,0,0,1,0-4.1Zm5.37.67a4.67,4.67,0,0,0-2.44-.59,4.67,4.67,0,0,0-2.43.59,1.52,1.52,0,0,0,0,2.76,4.67,4.67,0,0,0,2.43.59,4.67,4.67,0,0,0,2.44-.59,1.52,1.52,0,0,0,0-2.76Z"/><path class="cls-2" d="M4.05,1892a5.19,5.19,0,0,1,2.94-.8,5.19,5.19,0,0,1,2.94.8,2.35,2.35,0,0,1,0,4.1,5.19,5.19,0,0,1-2.94.8,5.19,5.19,0,0,1-2.94-.8,2.35,2.35,0,0,1,0-4.1Zm5.37.67a4.67,4.67,0,0,0-2.44-.59,4.67,4.67,0,0,0-2.43.59,1.52,1.52,0,0,0,0,2.76A4.66,4.66,0,0,0,7,1896a4.66,4.66,0,0,0,2.44-.59,1.52,1.52,0,0,0,0-2.76Z"/><path class="cls-2" d="M3,1970.78l3.37,2.92c.24.2.88.74,1.16.94a2.06,2.06,0,0,0,1.22.44,1.52,1.52,0,0,0,1.56-1.6,1.54,1.54,0,0,0-.71-1.33,1.78,1.78,0,0,0-.95-.26V1971a2.54,2.54,0,0,1,1.65.6A2.51,2.51,0,0,1,8.74,1976a2.83,2.83,0,0,1-1.71-.64c-.47-.33-1-.77-1.33-1.09l-1.88-1.67V1976H3Z"/><path class="cls-2" d="M4.05,1978.36a5.2,5.2,0,0,1,2.94-.8,5.2,5.2,0,0,1,2.94.8,2.35,2.35,0,0,1,0,4.1,5.2,5.2,0,0,1-2.94.8,5.2,5.2,0,0,1-2.94-.8,2.35,2.35,0,0,1,0-4.1Zm5.37.67a4.67,4.67,0,0,0-2.44-.59,4.67,4.67,0,0,0-2.43.59,1.52,1.52,0,0,0,0,2.76,4.67,4.67,0,0,0,2.43.59,4.67,4.67,0,0,0,2.44-.59,1.52,1.52,0,0,0,0-2.76Z"/><path class="cls-2" d="M4.05,1985.17a5.19,5.19,0,0,1,2.94-.8,5.19,5.19,0,0,1,2.94.8,2.35,2.35,0,0,1,0,4.1,5.2,5.2,0,0,1-2.94.8,5.2,5.2,0,0,1-2.94-.8,2.35,2.35,0,0,1,0-4.1Zm5.37.67a4.67,4.67,0,0,0-2.44-.59,4.67,4.67,0,0,0-2.43.59,1.52,1.52,0,0,0,0,2.76,4.67,4.67,0,0,0,2.43.59,4.67,4.67,0,0,0,2.44-.59,1.52,1.52,0,0,0,0-2.76Z"/><path class="cls-2" d="M4.05,1992a5.19,5.19,0,0,1,2.94-.8,5.19,5.19,0,0,1,2.94.8,2.35,2.35,0,0,1,0,4.1,5.19,5.19,0,0,1-2.94.8,5.19,5.19,0,0,1-2.94-.8,2.35,2.35,0,0,1,0-4.1Zm5.37.67a4.67,4.67,0,0,0-2.44-.59,4.67,4.67,0,0,0-2.43.59,1.52,1.52,0,0,0,0,2.76A4.66,4.66,0,0,0,7,1996a4.66,4.66,0,0,0,2.44-.59,1.52,1.52,0,0,0,0-2.76Z"/><path class="cls-2" d="M3,2370.78l3.37,2.92c.24.2.88.74,1.16.94a2.06,2.06,0,0,0,1.22.44,1.52,1.52,0,0,0,1.56-1.6,1.54,1.54,0,0,0-.71-1.33,1.78,1.78,0,0,0-.95-.26V2371a2.54,2.54,0,0,1,1.65.6A2.51,2.51,0,0,1,8.74,2376a2.83,2.83,0,0,1-1.71-.64c-.47-.33-1-.77-1.33-1.09l-1.88-1.67V2376H3Z"/><path class="cls-2" d="M5.32,2382.23v1H4.51v-1H3v-.89H4.51v-4.1l6.93,5Zm0-.89H8.86l-3.54-2.53Z"/><path class="cls-2" d="M4.05,2385.17a5.19,5.19,0,0,1,2.94-.8,5.19,5.19,0,0,1,2.94.8,2.35,2.35,0,0,1,0,4.1,5.2,5.2,0,0,1-2.94.8,5.2,5.2,0,0,1-2.94-.8,2.35,2.35,0,0,1,0-4.1Zm5.37.67a4.67,4.67,0,0,0-2.44-.59,4.67,4.67,0,0,0-2.43.59,1.52,1.52,0,0,0,0,2.76,4.67,4.67,0,0,0,2.43.59,4.67,4.67,0,0,0,2.44-.59,1.52,1.52,0,0,0,0-2.76Z"/><path class="cls-2" d="M4.05,2392a5.19,5.19,0,0,1,2.94-.8,5.19,5.19,0,0,1,2.94.8,2.35,2.35,0,0,1,0,4.1,5.19,5.19,0,0,1-2.94.8,5.19,5.19,0,0,1-2.94-.8,2.35,2.35,0,0,1,0-4.1Zm5.37.67a4.67,4.67,0,0,0-2.44-.59,4.67,4.67,0,0,0-2.43.59,1.52,1.52,0,0,0,0,2.76A4.66,4.66,0,0,0,7,2396a4.66,4.66,0,0,0,2.44-.59,1.52,1.52,0,0,0,0-2.76Z"/></g><g id="yoko"><path class="cls-2" d="M79.74,3.84H78.4L78.87,3h1.76v8h-.89Z"/><path class="cls-2" d="M84.72,9.94A5.19,5.19,0,0,1,83.92,7a5.19,5.19,0,0,1,.8-2.94,2.35,2.35,0,0,1,4.1,0A5.19,5.19,0,0,1,89.63,7a5.19,5.19,0,0,1-.8,2.94,2.35,2.35,0,0,1-4.1,0Zm.67-5.37A4.67,4.67,0,0,0,84.81,7a4.67,4.67,0,0,0,.59,2.43,1.52,1.52,0,0,0,2.76,0A4.66,4.66,0,0,0,88.74,7a4.67,4.67,0,0,0-.59-2.44,1.52,1.52,0,0,0-2.76,0Z"/><path class="cls-2" d="M91.54,9.94A5.19,5.19,0,0,1,90.74,7a5.19,5.19,0,0,1,.8-2.94,2.35,2.35,0,0,1,4.1,0A5.19,5.19,0,0,1,96.44,7a5.19,5.19,0,0,1-.8,2.94,2.35,2.35,0,0,1-4.1,0Zm.67-5.37A4.67,4.67,0,0,0,91.62,7a4.67,4.67,0,0,0,.59,2.43,1.52,1.52,0,0,0,2.76,0A4.66,4.66,0,0,0,95.56,7,4.67,4.67,0,0,0,95,4.57a1.52,1.52,0,0,0-2.76,0Z"/><path class="cls-2" d="M177.15,11l2.91-3.37c.2-.24.74-.88.94-1.16a2.06,2.06,0,0,0,.44-1.22,1.51,1.51,0,0,0-1.59-1.56,1.54,1.54,0,0,0-1.33.71,1.77,1.77,0,0,0-.26.95h-.89a2.55,2.55,0,0,1,.6-1.65,2.51,2.51,0,0,1,4.37,1.57A2.82,2.82,0,0,1,181.7,7c-.34.47-.77,1-1.09,1.33l-1.67,1.88h3.38V11Z"/><path class="cls-2" d="M184.72,9.94a5.19,5.19,0,0,1-.8-2.94,5.19,5.19,0,0,1,.8-2.94,2.35,2.35,0,0,1,4.1,0,5.19,5.19,0,0,1,.8,2.94,5.19,5.19,0,0,1-.8,2.94,2.35,2.35,0,0,1-4.1,0Zm.67-5.37A4.67,4.67,0,0,0,184.81,7a4.67,4.67,0,0,0,.59,2.43,1.52,1.52,0,0,0,2.76,0A4.66,4.66,0,0,0,188.74,7a4.67,4.67,0,0,0-.59-2.44,1.52,1.52,0,0,0-2.76,0Z"/><path class="cls-2" d="M191.54,9.94a5.19,5.19,0,0,1-.8-2.94,5.19,5.19,0,0,1,.8-2.94,2.35,2.35,0,0,1,4.1,0,5.19,5.19,0,0,1,.8,2.94,5.19,5.19,0,0,1-.8,2.94,2.35,2.35,0,0,1-4.1,0Zm.67-5.37A4.67,4.67,0,0,0,191.62,7a4.67,4.67,0,0,0,.59,2.43,1.52,1.52,0,0,0,2.76,0A4.66,4.66,0,0,0,195.56,7,4.67,4.67,0,0,0,195,4.57a1.52,1.52,0,0,0-2.76,0Z"/><path class="cls-2" d="M277.58,5A2.47,2.47,0,0,1,278,3.8,2.28,2.28,0,0,1,282.07,5a1.91,1.91,0,0,1-1,1.77,1.91,1.91,0,0,1,1.15,1.93,2.47,2.47,0,0,1-4.69,1,2.36,2.36,0,0,1-.18-.84h.89a1.79,1.79,0,0,0,.29.8,1.48,1.48,0,0,0,1.24.6,1.59,1.59,0,0,0,1.57-1.62,1.42,1.42,0,0,0-.79-1.34,2.06,2.06,0,0,0-.91-.17V6.41a1.78,1.78,0,0,0,.91-.17,1.27,1.27,0,0,0,.67-1.19,1.26,1.26,0,0,0-1.37-1.37,1.21,1.21,0,0,0-1,.46,1.6,1.6,0,0,0-.31.84Z"/><path class="cls-2" d="M284.72,9.94a5.19,5.19,0,0,1-.8-2.94,5.19,5.19,0,0,1,.8-2.94,2.35,2.35,0,0,1,4.1,0,5.19,5.19,0,0,1,.8,2.94,5.19,5.19,0,0,1-.8,2.94,2.35,2.35,0,0,1-4.1,0Zm.67-5.37A4.67,4.67,0,0,0,284.81,7a4.67,4.67,0,0,0,.59,2.43,1.52,1.52,0,0,0,2.76,0A4.66,4.66,0,0,0,288.74,7a4.67,4.67,0,0,0-.59-2.44,1.52,1.52,0,0,0-2.76,0Z"/><path class="cls-2" d="M291.54,9.94a5.19,5.19,0,0,1-.8-2.94,5.19,5.19,0,0,1,.8-2.94,2.35,2.35,0,0,1,4.1,0,5.19,5.19,0,0,1,.8,2.94,5.19,5.19,0,0,1-.8,2.94,2.35,2.35,0,0,1-4.1,0Zm.67-5.37A4.67,4.67,0,0,0,291.62,7a4.67,4.67,0,0,0,.59,2.43,1.52,1.52,0,0,0,2.76,0A4.66,4.66,0,0,0,295.56,7,4.67,4.67,0,0,0,295,4.57a1.52,1.52,0,0,0-2.76,0Z"/><path class="cls-2" d="M381.78,8.67h1v.82h-1V11h-.89V9.49h-4.1l5-6.93Zm-.89,0V5.14l-2.53,3.54Z"/><path class="cls-2" d="M384.72,9.94a5.19,5.19,0,0,1-.8-2.94,5.19,5.19,0,0,1,.8-2.94,2.35,2.35,0,0,1,4.1,0,5.19,5.19,0,0,1,.8,2.94,5.19,5.19,0,0,1-.8,2.94,2.35,2.35,0,0,1-4.1,0Zm.67-5.37A4.67,4.67,0,0,0,384.81,7a4.67,4.67,0,0,0,.59,2.43,1.52,1.52,0,0,0,2.76,0A4.66,4.66,0,0,0,388.74,7a4.67,4.67,0,0,0-.59-2.44,1.52,1.52,0,0,0-2.76,0Z"/><path class="cls-2" d="M391.54,9.94a5.19,5.19,0,0,1-.8-2.94,5.19,5.19,0,0,1,.8-2.94,2.35,2.35,0,0,1,4.1,0,5.19,5.19,0,0,1,.8,2.94,5.19,5.19,0,0,1-.8,2.94,2.35,2.35,0,0,1-4.1,0Zm.67-5.37A4.67,4.67,0,0,0,391.62,7a4.67,4.67,0,0,0,.59,2.43,1.52,1.52,0,0,0,2.76,0A4.66,4.66,0,0,0,395.56,7,4.67,4.67,0,0,0,395,4.57a1.52,1.52,0,0,0-2.76,0Z"/><path class="cls-2" d="M482.3,3.82h-2.57l-.52,1.73a2.17,2.17,0,0,1,.5,0,2.6,2.6,0,0,1,2.64,2.77,2.8,2.8,0,0,1-2.91,2.88,2.71,2.71,0,0,1-1.79-.62,3.34,3.34,0,0,1-.7-.82l.71-.5a1.86,1.86,0,0,0,.54.65,2,2,0,0,0,1.29.48,2,2,0,0,0,2-2.05,1.9,1.9,0,0,0-2-2,2.61,2.61,0,0,0-1.55.55L479.12,3h3.18Z"/><path class="cls-2" d="M484.72,9.94a5.19,5.19,0,0,1-.8-2.94,5.19,5.19,0,0,1,.8-2.94,2.35,2.35,0,0,1,4.1,0,5.19,5.19,0,0,1,.8,2.94,5.19,5.19,0,0,1-.8,2.94,2.35,2.35,0,0,1-4.1,0Zm.67-5.37A4.67,4.67,0,0,0,484.81,7a4.67,4.67,0,0,0,.59,2.43,1.52,1.52,0,0,0,2.76,0A4.66,4.66,0,0,0,488.74,7a4.67,4.67,0,0,0-.59-2.44,1.52,1.52,0,0,0-2.76,0Z"/><path class="cls-2" d="M491.54,9.94a5.19,5.19,0,0,1-.8-2.94,5.19,5.19,0,0,1,.8-2.94,2.35,2.35,0,0,1,4.1,0,5.19,5.19,0,0,1,.8,2.94,5.19,5.19,0,0,1-.8,2.94,2.35,2.35,0,0,1-4.1,0Zm.67-5.37A4.67,4.67,0,0,0,491.62,7a4.67,4.67,0,0,0,.59,2.43,1.52,1.52,0,0,0,2.76,0A4.66,4.66,0,0,0,495.56,7,4.67,4.67,0,0,0,495,4.57a1.52,1.52,0,0,0-2.76,0Z"/><path class="cls-2" d="M581.25,3.31l-1.84,2.55a2.31,2.31,0,0,1,.71-.11,2.53,2.53,0,0,1,2.59,2.64,2.76,2.76,0,0,1-5.52,0,3.16,3.16,0,0,1,.66-1.83l2.72-3.78Zm.58,5.11a1.87,1.87,0,0,0-3.74,0,1.87,1.87,0,1,0,3.74,0Z"/><path class="cls-2" d="M584.72,9.94a5.19,5.19,0,0,1-.8-2.94,5.19,5.19,0,0,1,.8-2.94,2.35,2.35,0,0,1,4.1,0,5.19,5.19,0,0,1,.8,2.94,5.19,5.19,0,0,1-.8,2.94,2.35,2.35,0,0,1-4.1,0Zm.67-5.37A4.67,4.67,0,0,0,584.81,7a4.67,4.67,0,0,0,.59,2.43,1.52,1.52,0,0,0,2.76,0A4.66,4.66,0,0,0,588.74,7a4.67,4.67,0,0,0-.59-2.44,1.52,1.52,0,0,0-2.76,0Z"/><path class="cls-2" d="M591.54,9.94a5.19,5.19,0,0,1-.8-2.94,5.19,5.19,0,0,1,.8-2.94,2.35,2.35,0,0,1,4.1,0,5.19,5.19,0,0,1,.8,2.94,5.19,5.19,0,0,1-.8,2.94,2.35,2.35,0,0,1-4.1,0Zm.67-5.37A4.67,4.67,0,0,0,591.62,7a4.67,4.67,0,0,0,.59,2.43,1.52,1.52,0,0,0,2.76,0A4.66,4.66,0,0,0,595.56,7,4.67,4.67,0,0,0,595,4.57a1.52,1.52,0,0,0-2.76,0Z"/><path class="cls-2" d="M782.41,8.79a2.45,2.45,0,0,1-4.89,0,2,2,0,0,1,1.21-2,2,2,0,0,1-1-1.75,2.21,2.21,0,1,1,4.41,0,2,2,0,0,1-1,1.75A2,2,0,0,1,782.41,8.79Zm-.89,0a1.56,1.56,0,0,0-3.12,0,1.56,1.56,0,1,0,3.12,0Zm-.19-3.67a1.37,1.37,0,1,0-2.73,0,1.37,1.37,0,1,0,2.73,0Z"/><path class="cls-2" d="M784.72,9.94a5.19,5.19,0,0,1-.8-2.94,5.19,5.19,0,0,1,.8-2.94,2.35,2.35,0,0,1,4.1,0,5.19,5.19,0,0,1,.8,2.94,5.19,5.19,0,0,1-.8,2.94,2.35,2.35,0,0,1-4.1,0Zm.67-5.37A4.67,4.67,0,0,0,784.81,7a4.67,4.67,0,0,0,.59,2.43,1.52,1.52,0,0,0,2.76,0A4.66,4.66,0,0,0,788.74,7a4.67,4.67,0,0,0-.59-2.44,1.52,1.52,0,0,0-2.76,0Z"/><path class="cls-2" d="M791.54,9.94a5.19,5.19,0,0,1-.8-2.94,5.19,5.19,0,0,1,.8-2.94,2.35,2.35,0,0,1,4.1,0,5.19,5.19,0,0,1,.8,2.94,5.19,5.19,0,0,1-.8,2.94,2.35,2.35,0,0,1-4.1,0Zm.67-5.37A4.67,4.67,0,0,0,791.62,7a4.67,4.67,0,0,0,.59,2.43,1.52,1.52,0,0,0,2.76,0A4.66,4.66,0,0,0,795.56,7,4.67,4.67,0,0,0,795,4.57a1.52,1.52,0,0,0-2.76,0Z"/><path class="cls-2" d="M972.93,3.84h-1.34l.47-.84h1.76v8h-.89Z"/><path class="cls-2" d="M977.91,9.94A5.19,5.19,0,0,1,977.1,7a5.19,5.19,0,0,1,.8-2.94,2.35,2.35,0,0,1,4.1,0,5.19,5.19,0,0,1,.8,2.94,5.19,5.19,0,0,1-.8,2.94,2.35,2.35,0,0,1-4.1,0Zm.67-5.37A4.67,4.67,0,0,0,978,7a4.67,4.67,0,0,0,.59,2.43,1.52,1.52,0,0,0,2.76,0A4.66,4.66,0,0,0,981.93,7a4.67,4.67,0,0,0-.59-2.44,1.52,1.52,0,0,0-2.76,0Z"/><path class="cls-2" d="M984.72,9.94a5.19,5.19,0,0,1-.8-2.94,5.19,5.19,0,0,1,.8-2.94,2.35,2.35,0,0,1,4.1,0,5.19,5.19,0,0,1,.8,2.94,5.19,5.19,0,0,1-.8,2.94,2.35,2.35,0,0,1-4.1,0Zm.67-5.37A4.67,4.67,0,0,0,984.81,7a4.67,4.67,0,0,0,.59,2.43,1.52,1.52,0,0,0,2.76,0A4.66,4.66,0,0,0,988.74,7a4.67,4.67,0,0,0-.59-2.44,1.52,1.52,0,0,0-2.76,0Z"/><path class="cls-2" d="M991.54,9.94a5.19,5.19,0,0,1-.8-2.94,5.19,5.19,0,0,1,.8-2.94,2.35,2.35,0,0,1,4.1,0,5.19,5.19,0,0,1,.8,2.94,5.19,5.19,0,0,1-.8,2.94,2.35,2.35,0,0,1-4.1,0Zm.67-5.37A4.67,4.67,0,0,0,991.62,7a4.67,4.67,0,0,0,.59,2.43,1.52,1.52,0,0,0,2.76,0A4.66,4.66,0,0,0,995.56,7,4.67,4.67,0,0,0,995,4.57a1.52,1.52,0,0,0-2.76,0Z"/><path class="cls-2" d="M1172.93,3.84h-1.34l.47-.84h1.76v8h-.89Z"/><path class="cls-2" d="M1177.15,11l2.91-3.37c.2-.24.74-.88.94-1.16a2.06,2.06,0,0,0,.44-1.22,1.51,1.51,0,0,0-1.59-1.56,1.54,1.54,0,0,0-1.33.71,1.77,1.77,0,0,0-.26.95h-.89a2.55,2.55,0,0,1,.6-1.65,2.51,2.51,0,0,1,4.37,1.57A2.82,2.82,0,0,1,1181.7,7c-.34.47-.77,1-1.09,1.33l-1.67,1.88h3.38V11Z"/><path class="cls-2" d="M1184.72,9.94a5.19,5.19,0,0,1-.8-2.94,5.19,5.19,0,0,1,.8-2.94,2.35,2.35,0,0,1,4.1,0,5.19,5.19,0,0,1,.8,2.94,5.19,5.19,0,0,1-.8,2.94,2.35,2.35,0,0,1-4.1,0Zm.67-5.37a4.67,4.67,0,0,0-.59,2.44,4.67,4.67,0,0,0,.59,2.43,1.52,1.52,0,0,0,2.76,0,4.66,4.66,0,0,0,.59-2.43,4.67,4.67,0,0,0-.59-2.44,1.52,1.52,0,0,0-2.76,0Z"/><path class="cls-2" d="M1191.54,9.94a5.19,5.19,0,0,1-.8-2.94,5.19,5.19,0,0,1,.8-2.94,2.35,2.35,0,0,1,4.1,0,5.19,5.19,0,0,1,.8,2.94,5.19,5.19,0,0,1-.8,2.94,2.35,2.35,0,0,1-4.1,0Zm.67-5.37a4.67,4.67,0,0,0-.59,2.44,4.67,4.67,0,0,0,.59,2.43,1.52,1.52,0,0,0,2.76,0,4.66,4.66,0,0,0,.59-2.43,4.67,4.67,0,0,0-.59-2.44,1.52,1.52,0,0,0-2.76,0Z"/><path class="cls-2" d="M1472.93,3.84h-1.34l.47-.84h1.76v8h-.89Z"/><path class="cls-2" d="M1482.3,3.82h-2.57l-.52,1.73a2.17,2.17,0,0,1,.5,0,2.6,2.6,0,0,1,2.64,2.77,2.8,2.8,0,0,1-2.91,2.88,2.71,2.71,0,0,1-1.79-.62,3.35,3.35,0,0,1-.7-.82l.71-.5a1.85,1.85,0,0,0,.54.65,2,2,0,0,0,1.29.48,2,2,0,0,0,2-2.05,1.9,1.9,0,0,0-2-2,2.61,2.61,0,0,0-1.55.55L1479.12,3h3.18Z"/><path class="cls-2" d="M1484.72,9.94a5.19,5.19,0,0,1-.8-2.94,5.19,5.19,0,0,1,.8-2.94,2.35,2.35,0,0,1,4.1,0,5.19,5.19,0,0,1,.8,2.94,5.19,5.19,0,0,1-.8,2.94,2.35,2.35,0,0,1-4.1,0Zm.67-5.37a4.67,4.67,0,0,0-.59,2.44,4.67,4.67,0,0,0,.59,2.43,1.52,1.52,0,0,0,2.76,0,4.66,4.66,0,0,0,.59-2.43,4.66,4.66,0,0,0-.59-2.44,1.52,1.52,0,0,0-2.76,0Z"/><path class="cls-2" d="M1491.54,9.94a5.2,5.2,0,0,1-.8-2.94,5.2,5.2,0,0,1,.8-2.94,2.35,2.35,0,0,1,4.1,0,5.19,5.19,0,0,1,.8,2.94,5.19,5.19,0,0,1-.8,2.94,2.35,2.35,0,0,1-4.1,0Zm.67-5.37a4.67,4.67,0,0,0-.59,2.44,4.67,4.67,0,0,0,.59,2.43,1.52,1.52,0,0,0,2.76,0,4.66,4.66,0,0,0,.59-2.43,4.66,4.66,0,0,0-.59-2.44,1.52,1.52,0,0,0-2.76,0Z"/><path class="cls-2" d="M1572.93,3.84h-1.34l.47-.84h1.76v8h-.89Z"/><path class="cls-2" d="M1581.25,3.31l-1.84,2.55a2.32,2.32,0,0,1,.71-.11,2.53,2.53,0,0,1,2.59,2.64,2.76,2.76,0,0,1-5.52,0,3.16,3.16,0,0,1,.66-1.83l2.72-3.78Zm.58,5.11a1.87,1.87,0,0,0-3.74,0,1.87,1.87,0,1,0,3.74,0Z"/><path class="cls-2" d="M1584.72,9.94a5.19,5.19,0,0,1-.8-2.94,5.19,5.19,0,0,1,.8-2.94,2.35,2.35,0,0,1,4.1,0,5.19,5.19,0,0,1,.8,2.94,5.19,5.19,0,0,1-.8,2.94,2.35,2.35,0,0,1-4.1,0Zm.67-5.37a4.67,4.67,0,0,0-.59,2.44,4.67,4.67,0,0,0,.59,2.43,1.52,1.52,0,0,0,2.76,0,4.66,4.66,0,0,0,.59-2.43,4.66,4.66,0,0,0-.59-2.44,1.52,1.52,0,0,0-2.76,0Z"/><path class="cls-2" d="M1591.54,9.94a5.2,5.2,0,0,1-.8-2.94,5.2,5.2,0,0,1,.8-2.94,2.35,2.35,0,0,1,4.1,0,5.19,5.19,0,0,1,.8,2.94,5.19,5.19,0,0,1-.8,2.94,2.35,2.35,0,0,1-4.1,0Zm.67-5.37a4.67,4.67,0,0,0-.59,2.44,4.67,4.67,0,0,0,.59,2.43,1.52,1.52,0,0,0,2.76,0,4.66,4.66,0,0,0,.59-2.43,4.66,4.66,0,0,0-.59-2.44,1.52,1.52,0,0,0-2.76,0Z"/><path class="cls-2" d="M1772.93,3.84h-1.34l.47-.84h1.76v8h-.89Z"/><path class="cls-2" d="M1782.41,8.79a2.45,2.45,0,0,1-4.89,0,2,2,0,0,1,1.21-2,2,2,0,0,1-1-1.75,2.21,2.21,0,1,1,4.41,0,2,2,0,0,1-1,1.75A2,2,0,0,1,1782.41,8.79Zm-.89,0a1.56,1.56,0,0,0-3.12,0,1.56,1.56,0,1,0,3.12,0Zm-.19-3.67a1.37,1.37,0,1,0-2.73,0,1.37,1.37,0,1,0,2.73,0Z"/><path class="cls-2" d="M1784.72,9.94a5.19,5.19,0,0,1-.8-2.94,5.19,5.19,0,0,1,.8-2.94,2.35,2.35,0,0,1,4.1,0,5.19,5.19,0,0,1,.8,2.94,5.19,5.19,0,0,1-.8,2.94,2.35,2.35,0,0,1-4.1,0Zm.67-5.37a4.67,4.67,0,0,0-.59,2.44,4.67,4.67,0,0,0,.59,2.43,1.52,1.52,0,0,0,2.76,0,4.66,4.66,0,0,0,.59-2.43,4.66,4.66,0,0,0-.59-2.44,1.52,1.52,0,0,0-2.76,0Z"/><path class="cls-2" d="M1791.54,9.94a5.2,5.2,0,0,1-.8-2.94,5.2,5.2,0,0,1,.8-2.94,2.35,2.35,0,0,1,4.1,0,5.19,5.19,0,0,1,.8,2.94,5.19,5.19,0,0,1-.8,2.94,2.35,2.35,0,0,1-4.1,0Zm.67-5.37a4.67,4.67,0,0,0-.59,2.44,4.67,4.67,0,0,0,.59,2.43,1.52,1.52,0,0,0,2.76,0,4.66,4.66,0,0,0,.59-2.43,4.66,4.66,0,0,0-.59-2.44,1.52,1.52,0,0,0-2.76,0Z"/><path class="cls-2" d="M1872.93,3.84h-1.34l.47-.84h1.76v8h-.89Z"/><path class="cls-2" d="M1878.66,10.7l1.83-2.55a2.29,2.29,0,0,1-.71.11,2.53,2.53,0,0,1-2.59-2.64,2.76,2.76,0,0,1,5.52,0,3.13,3.13,0,0,1-.66,1.83l-2.72,3.77Zm-.58-5.11a1.87,1.87,0,0,0,3.74,0,1.87,1.87,0,1,0-3.74,0Z"/><path class="cls-2" d="M1884.72,9.94a5.19,5.19,0,0,1-.8-2.94,5.19,5.19,0,0,1,.8-2.94,2.35,2.35,0,0,1,4.1,0,5.19,5.19,0,0,1,.8,2.94,5.19,5.19,0,0,1-.8,2.94,2.35,2.35,0,0,1-4.1,0Zm.67-5.37a4.67,4.67,0,0,0-.59,2.44,4.67,4.67,0,0,0,.59,2.43,1.52,1.52,0,0,0,2.76,0,4.66,4.66,0,0,0,.59-2.43,4.66,4.66,0,0,0-.59-2.44,1.52,1.52,0,0,0-2.76,0Z"/><path class="cls-2" d="M1891.54,9.94a5.2,5.2,0,0,1-.8-2.94,5.2,5.2,0,0,1,.8-2.94,2.35,2.35,0,0,1,4.1,0,5.19,5.19,0,0,1,.8,2.94,5.19,5.19,0,0,1-.8,2.94,2.35,2.35,0,0,1-4.1,0Zm.67-5.37a4.67,4.67,0,0,0-.59,2.44,4.67,4.67,0,0,0,.59,2.43,1.52,1.52,0,0,0,2.76,0,4.66,4.66,0,0,0,.59-2.43,4.66,4.66,0,0,0-.59-2.44,1.52,1.52,0,0,0-2.76,0Z"/><path class="cls-2" d="M1970.34,11l2.91-3.37c.2-.24.74-.88.94-1.16a2.06,2.06,0,0,0,.44-1.22A1.51,1.51,0,0,0,1973,3.68a1.54,1.54,0,0,0-1.33.71,1.77,1.77,0,0,0-.26.95h-.89a2.55,2.55,0,0,1,.6-1.65,2.52,2.52,0,0,1,4.37,1.57,2.82,2.82,0,0,1-.64,1.71c-.33.47-.77,1-1.09,1.33l-1.67,1.88h3.38V11Z"/><path class="cls-2" d="M1977.91,9.94a5.19,5.19,0,0,1-.8-2.94,5.19,5.19,0,0,1,.8-2.94,2.35,2.35,0,0,1,4.1,0,5.2,5.2,0,0,1,.8,2.94,5.2,5.2,0,0,1-.8,2.94,2.35,2.35,0,0,1-4.1,0Zm.67-5.37A4.67,4.67,0,0,0,1978,7a4.67,4.67,0,0,0,.59,2.43,1.52,1.52,0,0,0,2.76,0,4.67,4.67,0,0,0,.59-2.43,4.67,4.67,0,0,0-.59-2.44,1.52,1.52,0,0,0-2.76,0Z"/><path class="cls-2" d="M1984.72,9.94a5.19,5.19,0,0,1-.8-2.94,5.19,5.19,0,0,1,.8-2.94,2.35,2.35,0,0,1,4.1,0,5.19,5.19,0,0,1,.8,2.94,5.19,5.19,0,0,1-.8,2.94,2.35,2.35,0,0,1-4.1,0Zm.67-5.37a4.67,4.67,0,0,0-.59,2.44,4.67,4.67,0,0,0,.59,2.43,1.52,1.52,0,0,0,2.76,0,4.66,4.66,0,0,0,.59-2.43,4.66,4.66,0,0,0-.59-2.44,1.52,1.52,0,0,0-2.76,0Z"/><path class="cls-2" d="M1991.54,9.94a5.2,5.2,0,0,1-.8-2.94,5.2,5.2,0,0,1,.8-2.94,2.35,2.35,0,0,1,4.1,0,5.19,5.19,0,0,1,.8,2.94,5.19,5.19,0,0,1-.8,2.94,2.35,2.35,0,0,1-4.1,0Zm.67-5.37a4.67,4.67,0,0,0-.59,2.44,4.67,4.67,0,0,0,.59,2.43,1.52,1.52,0,0,0,2.76,0,4.66,4.66,0,0,0,.59-2.43,4.66,4.66,0,0,0-.59-2.44,1.52,1.52,0,0,0-2.76,0Z"/><path class="cls-2" d="M2370.34,11l2.91-3.37c.2-.24.74-.88.94-1.16a2.06,2.06,0,0,0,.44-1.22A1.51,1.51,0,0,0,2373,3.68a1.54,1.54,0,0,0-1.33.71,1.77,1.77,0,0,0-.26.95h-.89a2.55,2.55,0,0,1,.6-1.65,2.52,2.52,0,0,1,4.37,1.57,2.82,2.82,0,0,1-.64,1.71c-.33.47-.77,1-1.09,1.33l-1.67,1.88h3.38V11Z"/><path class="cls-2" d="M2381.78,8.67h1v.82h-1V11h-.89V9.49h-4.1l5-6.93Zm-.89,0V5.14l-2.53,3.54Z"/><path class="cls-2" d="M2384.72,9.94a5.19,5.19,0,0,1-.8-2.94,5.19,5.19,0,0,1,.8-2.94,2.35,2.35,0,0,1,4.1,0,5.19,5.19,0,0,1,.8,2.94,5.19,5.19,0,0,1-.8,2.94,2.35,2.35,0,0,1-4.1,0Zm.67-5.37a4.67,4.67,0,0,0-.59,2.44,4.67,4.67,0,0,0,.59,2.43,1.52,1.52,0,0,0,2.76,0,4.66,4.66,0,0,0,.59-2.43,4.66,4.66,0,0,0-.59-2.44,1.52,1.52,0,0,0-2.76,0Z"/><path class="cls-2" d="M2391.54,9.94a5.2,5.2,0,0,1-.8-2.94,5.2,5.2,0,0,1,.8-2.94,2.35,2.35,0,0,1,4.1,0,5.19,5.19,0,0,1,.8,2.94,5.19,5.19,0,0,1-.8,2.94,2.35,2.35,0,0,1-4.1,0Zm.67-5.37a4.67,4.67,0,0,0-.59,2.44,4.67,4.67,0,0,0,.59,2.43,1.52,1.52,0,0,0,2.76,0,4.66,4.66,0,0,0,.59-2.43,4.66,4.66,0,0,0-.59-2.44,1.52,1.52,0,0,0-2.76,0Z"/><path class="cls-2" d="M2470.34,11l2.91-3.37c.2-.24.74-.88.94-1.16a2.06,2.06,0,0,0,.44-1.22A1.51,1.51,0,0,0,2473,3.68a1.54,1.54,0,0,0-1.33.71,1.77,1.77,0,0,0-.26.95h-.89a2.55,2.55,0,0,1,.6-1.65,2.52,2.52,0,0,1,4.37,1.57,2.82,2.82,0,0,1-.64,1.71c-.33.47-.77,1-1.09,1.33l-1.67,1.88h3.38V11Z"/><path class="cls-2" d="M2482.3,3.82h-2.57l-.52,1.73a2.17,2.17,0,0,1,.5,0,2.6,2.6,0,0,1,2.64,2.77,2.8,2.8,0,0,1-2.91,2.88,2.71,2.71,0,0,1-1.79-.62,3.35,3.35,0,0,1-.7-.82l.71-.5a1.85,1.85,0,0,0,.54.65,2,2,0,0,0,1.29.48,2,2,0,0,0,2-2.05,1.9,1.9,0,0,0-2-2,2.61,2.61,0,0,0-1.55.55L2479.12,3h3.18Z"/><path class="cls-2" d="M2484.72,9.94a5.19,5.19,0,0,1-.8-2.94,5.19,5.19,0,0,1,.8-2.94,2.35,2.35,0,0,1,4.1,0,5.19,5.19,0,0,1,.8,2.94,5.19,5.19,0,0,1-.8,2.94,2.35,2.35,0,0,1-4.1,0Zm.67-5.37a4.67,4.67,0,0,0-.59,2.44,4.67,4.67,0,0,0,.59,2.43,1.52,1.52,0,0,0,2.76,0,4.66,4.66,0,0,0,.59-2.43,4.66,4.66,0,0,0-.59-2.44,1.52,1.52,0,0,0-2.76,0Z"/><path class="cls-2" d="M2491.54,9.94a5.2,5.2,0,0,1-.8-2.94,5.2,5.2,0,0,1,.8-2.94,2.35,2.35,0,0,1,4.1,0,5.19,5.19,0,0,1,.8,2.94,5.19,5.19,0,0,1-.8,2.94,2.35,2.35,0,0,1-4.1,0Zm.67-5.37a4.67,4.67,0,0,0-.59,2.44,4.67,4.67,0,0,0,.59,2.43,1.52,1.52,0,0,0,2.76,0,4.66,4.66,0,0,0,.59-2.43,4.66,4.66,0,0,0-.59-2.44,1.52,1.52,0,0,0-2.76,0Z"/><path class="cls-2" d="M2770.34,11l2.91-3.37c.2-.24.74-.88.94-1.16a2.06,2.06,0,0,0,.44-1.22A1.51,1.51,0,0,0,2773,3.68a1.54,1.54,0,0,0-1.33.71,1.77,1.77,0,0,0-.26.95h-.89a2.55,2.55,0,0,1,.6-1.65,2.52,2.52,0,0,1,4.37,1.57,2.82,2.82,0,0,1-.64,1.71c-.33.47-.77,1-1.09,1.33l-1.67,1.88h3.38V11Z"/><path class="cls-2" d="M2782.41,8.79a2.45,2.45,0,0,1-4.89,0,2,2,0,0,1,1.21-2,2,2,0,0,1-1-1.75,2.21,2.21,0,1,1,4.41,0,2,2,0,0,1-1,1.75A2,2,0,0,1,2782.41,8.79Zm-.89,0a1.56,1.56,0,0,0-3.12,0,1.56,1.56,0,1,0,3.12,0Zm-.19-3.67a1.37,1.37,0,1,0-2.73,0,1.37,1.37,0,1,0,2.73,0Z"/><path class="cls-2" d="M2784.72,9.94a5.19,5.19,0,0,1-.8-2.94,5.19,5.19,0,0,1,.8-2.94,2.35,2.35,0,0,1,4.1,0,5.19,5.19,0,0,1,.8,2.94,5.19,5.19,0,0,1-.8,2.94,2.35,2.35,0,0,1-4.1,0Zm.67-5.37a4.67,4.67,0,0,0-.59,2.44,4.67,4.67,0,0,0,.59,2.43,1.52,1.52,0,0,0,2.76,0,4.66,4.66,0,0,0,.59-2.43,4.66,4.66,0,0,0-.59-2.44,1.52,1.52,0,0,0-2.76,0Z"/><path class="cls-2" d="M2791.54,9.94a5.2,5.2,0,0,1-.8-2.94,5.2,5.2,0,0,1,.8-2.94,2.35,2.35,0,0,1,4.1,0,5.19,5.19,0,0,1,.8,2.94,5.19,5.19,0,0,1-.8,2.94,2.35,2.35,0,0,1-4.1,0Zm.67-5.37a4.67,4.67,0,0,0-.59,2.44,4.67,4.67,0,0,0,.59,2.43,1.52,1.52,0,0,0,2.76,0,4.66,4.66,0,0,0,.59-2.43,4.66,4.66,0,0,0-.59-2.44,1.52,1.52,0,0,0-2.76,0Z"/><path class="cls-2" d="M2970.77,5a2.48,2.48,0,0,1,.37-1.18A2.28,2.28,0,0,1,2975.25,5a1.91,1.91,0,0,1-1,1.77,1.91,1.91,0,0,1,1.15,1.93,2.47,2.47,0,0,1-4.69,1,2.36,2.36,0,0,1-.18-.84h.89a1.79,1.79,0,0,0,.29.8,1.48,1.48,0,0,0,1.23.6,1.59,1.59,0,0,0,1.57-1.62,1.42,1.42,0,0,0-.79-1.34,2.06,2.06,0,0,0-.91-.17V6.41a1.77,1.77,0,0,0,.91-.17,1.27,1.27,0,0,0,.67-1.19A1.26,1.26,0,0,0,2973,3.68a1.22,1.22,0,0,0-1,.46,1.6,1.6,0,0,0-.31.84Z"/><path class="cls-2" d="M2977.91,9.94a5.19,5.19,0,0,1-.8-2.94,5.19,5.19,0,0,1,.8-2.94,2.35,2.35,0,0,1,4.1,0,5.2,5.2,0,0,1,.8,2.94,5.2,5.2,0,0,1-.8,2.94,2.35,2.35,0,0,1-4.1,0Zm.67-5.37A4.67,4.67,0,0,0,2978,7a4.67,4.67,0,0,0,.59,2.43,1.52,1.52,0,0,0,2.76,0,4.67,4.67,0,0,0,.59-2.43,4.67,4.67,0,0,0-.59-2.44,1.52,1.52,0,0,0-2.76,0Z"/><path class="cls-2" d="M2984.72,9.94a5.19,5.19,0,0,1-.8-2.94,5.19,5.19,0,0,1,.8-2.94,2.35,2.35,0,0,1,4.1,0,5.19,5.19,0,0,1,.8,2.94,5.19,5.19,0,0,1-.8,2.94,2.35,2.35,0,0,1-4.1,0Zm.67-5.37a4.67,4.67,0,0,0-.59,2.44,4.67,4.67,0,0,0,.59,2.43,1.52,1.52,0,0,0,2.76,0,4.66,4.66,0,0,0,.59-2.43,4.66,4.66,0,0,0-.59-2.44,1.52,1.52,0,0,0-2.76,0Z"/><path class="cls-2" d="M2991.54,9.94a5.2,5.2,0,0,1-.8-2.94,5.2,5.2,0,0,1,.8-2.94,2.35,2.35,0,0,1,4.1,0,5.19,5.19,0,0,1,.8,2.94,5.19,5.19,0,0,1-.8,2.94,2.35,2.35,0,0,1-4.1,0Zm.67-5.37a4.67,4.67,0,0,0-.59,2.44,4.67,4.67,0,0,0,.59,2.43,1.52,1.52,0,0,0,2.76,0,4.66,4.66,0,0,0,.59-2.43,4.66,4.66,0,0,0-.59-2.44,1.52,1.52,0,0,0-2.76,0Z"/><path class="cls-2" d="M3170.77,5a2.48,2.48,0,0,1,.37-1.18A2.28,2.28,0,0,1,3175.25,5a1.91,1.91,0,0,1-1,1.77,1.91,1.91,0,0,1,1.15,1.93,2.47,2.47,0,0,1-4.69,1,2.36,2.36,0,0,1-.18-.84h.89a1.79,1.79,0,0,0,.29.8,1.48,1.48,0,0,0,1.23.6,1.59,1.59,0,0,0,1.57-1.62,1.42,1.42,0,0,0-.79-1.34,2.06,2.06,0,0,0-.91-.17V6.41a1.77,1.77,0,0,0,.91-.17,1.27,1.27,0,0,0,.67-1.19A1.26,1.26,0,0,0,3173,3.68a1.22,1.22,0,0,0-1,.46,1.6,1.6,0,0,0-.31.84Z"/><path class="cls-2" d="M3177.15,11l2.91-3.37c.2-.24.74-.88.94-1.16a2.06,2.06,0,0,0,.44-1.22,1.51,1.51,0,0,0-1.59-1.56,1.54,1.54,0,0,0-1.33.71,1.77,1.77,0,0,0-.26.95h-.89a2.56,2.56,0,0,1,.6-1.65,2.52,2.52,0,0,1,4.37,1.57A2.82,2.82,0,0,1,3181.7,7c-.34.47-.77,1-1.09,1.33l-1.67,1.88h3.38V11Z"/><path class="cls-2" d="M3184.72,9.94a5.19,5.19,0,0,1-.8-2.94,5.19,5.19,0,0,1,.8-2.94,2.35,2.35,0,0,1,4.1,0,5.19,5.19,0,0,1,.8,2.94,5.19,5.19,0,0,1-.8,2.94,2.35,2.35,0,0,1-4.1,0Zm.67-5.37a4.67,4.67,0,0,0-.59,2.44,4.67,4.67,0,0,0,.59,2.43,1.52,1.52,0,0,0,2.76,0,4.66,4.66,0,0,0,.59-2.43,4.66,4.66,0,0,0-.59-2.44,1.52,1.52,0,0,0-2.76,0Z"/><path class="cls-2" d="M3191.54,9.94a5.2,5.2,0,0,1-.8-2.94,5.2,5.2,0,0,1,.8-2.94,2.35,2.35,0,0,1,4.1,0,5.19,5.19,0,0,1,.8,2.94,5.19,5.19,0,0,1-.8,2.94,2.35,2.35,0,0,1-4.1,0Zm.67-5.37a4.67,4.67,0,0,0-.59,2.44,4.67,4.67,0,0,0,.59,2.43,1.52,1.52,0,0,0,2.76,0,4.66,4.66,0,0,0,.59-2.43,4.66,4.66,0,0,0-.59-2.44,1.52,1.52,0,0,0-2.76,0Z"/></g></g></svg>