<?xml version="1.0" encoding="utf-8"?>
<!-- Generator: Adobe Illustrator 24.1.0, SVG Export Plug-In . SVG Version: 6.00 Build 0)  -->
<svg version="1.1" id="layer1" xmlns="http://www.w3.org/2000/svg" xmlns:xlink="http://www.w3.org/1999/xlink" x="0px" y="0px"
	 viewBox="0 0 512 512" style="enable-background:new 0 0 512 512;" xml:space="preserve">
<style type="text/css">
	.st0{fill:url(#a4_1_);}
	.st1{fill:url(#a3_1_);}
	.st2{fill:url(#a2_1_);}
	.st3{fill:url(#a1_1_);}
	.st4{fill:url(#ar_1_);}
</style>
<linearGradient id="a4_1_" gradientUnits="userSpaceOnUse" x1="240.94" y1="240.6702" x2="107.6147" y2="9.7382" gradientTransform="matrix(1 0 0 -1 0 511.8898)">
	<stop  offset="0" style="stop-color:#C8C8C8"/>
	<stop  offset="1" style="stop-color:#000000"/>
</linearGradient>
<path id="a4" class="st0" d="M202.9,361.6c9.4-13,17.5-24.1,17.6-24.1c3.8,7.3,8.2,14.4,8.2,14.4s-0.9-18.2-0.3-25.3
	s7.2-12.9,13-20.8c1.1,6.8,9.1,18,12.2,22.5c-0.4-7.8-2.9-32.1,2.3-48.4c-13.9,9.9-37.8,15-45.3,17.1c5.2,1.5,18.3,5.8,25.2,4.7
	c-5.8,7.9-9.2,16-15.8,18.8S196,328,196,328s8.1,2,16.2,3.3c0,0.2-8.1,11.3-17.5,24.2c-45.4-31-112-44.8-154.4-26.6
	c42-5.7,103.4,12.7,144.2,40.6c-9.9,13.6-18.7,25.6-18.7,25.6C143,407.5,116.2,400.6,97,417c-15.7,13.3-5.4,42.9,24.6,39
	c-5,6.9-7.9,7.4-17.4,8c2.8,6.6-0.2,18.8-5.8,32.8c11.6-9.7,22.3-16.3,29.4-15.7c-2.3-9.2-2.8-12.1,2.2-19
	c5.6,29.8,36.9,30.3,44.7,11.3c9.6-23.3-5.3-46.7-0.6-72.1c0,0,8.7-12.1,18.6-25.7c39.1,30.2,75.6,82.9,83.2,124.6
	C280.1,454.3,246.5,395.3,202.9,361.6z M165.2,463c-10.7,17.4-32.2,10.1-33.3-12.2c-21.6,5.9-35.1-12.4-21.9-27.9
	c10.6-12.5,42.6-17.9,56.6-19.8C169.1,417,173.8,449,165.2,463z"/>
<linearGradient id="a3_1_" gradientUnits="userSpaceOnUse" x1="271.0815" y1="240.6572" x2="404.4233" y2="9.7068" gradientTransform="matrix(1 0 0 -1 0 511.8898)">
	<stop  offset="0" style="stop-color:#C8C8C8"/>
	<stop  offset="1" style="stop-color:#000000"/>
</linearGradient>
<path id="a3" class="st1" d="M471.7,329c-42.4-18.1-108.9-4.4-154.4,26.6c-9.4-12.9-17.5-24.1-17.5-24.2c8.1-1.3,16.2-3.3,16.2-3.3
	s-17.6-4.8-24.1-7.5s-10-10.9-15.8-18.8c6.8,1.1,19.9-3.1,25.2-4.7c-7.5-2.1-31.5-7.2-45.3-17.1c5.1,16.2,2.6,40.6,2.3,48.4
	c3.1-4.5,11.2-15.7,12.2-22.5c5.8,7.9,12.4,13.7,13,20.8s-0.3,25.3-0.3,25.3s4.4-7.1,8.2-14.4c0.1,0,8.3,11.1,17.6,24.1
	c-43.5,33.6-77.2,92.7-73,138.6c7.6-41.7,44-94.4,83.2-124.6l18.6,25.7c4.7,25.5-10.2,48.8-0.6,72.1c7.8,19,39.2,18.4,44.8-11.3
	c5,6.9,4.6,9.8,2.3,19c7.1-0.6,17.8,6,29.4,15.7c-5.7-14-8.6-26.2-5.8-32.8c-9.5-0.6-12.4-1.1-17.4-8c30,3.9,40.3-25.7,24.6-39
	c-19.2-16.3-46-9.4-68.8-21.7c0,0-8.8-12-18.7-25.6C368.3,341.7,429.6,323.3,471.7,329z M345.5,403.1c14,1.8,45.9,7.3,56.6,19.8
	c13.2,15.5-0.3,33.8-21.9,27.9c-1.1,22.4-22.6,29.6-33.3,12.3C338.2,449,342.9,417,345.5,403.1z"/>
<linearGradient id="a2_1_" gradientUnits="userSpaceOnUse" x1="273.312" y1="202.0038" x2="500.3918" y2="333.1049" gradientTransform="matrix(1 0 0 -1 0 511.8898)">
	<stop  offset="0" style="stop-color:#C8C8C8"/>
	<stop  offset="1" style="stop-color:#000000"/>
</linearGradient>
<path id="a2" class="st2" d="M478,192.5c-3.5,8.9-4.9,11.4-13,14.1c13-27.4-12-46.2-29.5-35.5c-21.5,13.2-23.2,40.8-41.9,58.7
	l-30.1,9.9c-13.9-47.4-12.5-111.5,5.9-149.7c-30.3,34.7-37.8,102.3-22.4,155c-15.2,5-28.3,9.2-28.4,9.1c1.2-8.1,1.8-16.5,1.8-16.5
	s-9.9,15.2-14.6,20.6c-4.7,5.4-13.4,6.2-22.7,9.2c3.1-6.2,3.2-19.9,3.3-25.4c-4.3,6.5-16.6,27.7-30.3,37.8c17,0.1,39.4,10,46.7,12.8
	c-3.3-4.3-11.5-15.5-17.6-18.6c9.3-3,16.9-7.5,23.8-5.9s23.9,8.1,23.9,8.1s-5.4-6.4-11.1-12.2c0.1-0.1,13.2-4.4,28.4-9.3
	c18.6,51.8,64.3,102.1,109.2,112.3c-37.3-20.1-76.2-71.1-92.8-117.6c16-5.2,30.2-9.7,30.2-9.7c25.7,3.4,43.3,24.8,68.4,22.8
	c20.5-1.6,29.6-31.5,3-46c8.1-2.6,10.7-1.4,18.8,3.7c1.6-7,11.2-15.1,24-23.1C495.9,198.1,483.4,197.1,478,192.5z M458.1,250.1
	c-16,3.9-45-10.5-57.4-17.2c6.1-12.8,21.1-41.4,36.3-47.7c18.9-7.8,32,10.8,19.8,29.5C477.7,222.6,478,245.3,458.1,250.1
	L458.1,250.1z"/>
<linearGradient id="a1_1_" gradientUnits="userSpaceOnUse" x1="256" y1="231.9598" x2="256" y2="500.1098" gradientTransform="matrix(1 0 0 -1 0 511.8898)">
	<stop  offset="0" style="stop-color:#C8C8C8"/>
	<stop  offset="1" style="stop-color:#000000"/>
</linearGradient>
<path id="a1" class="st3" d="M401.6,113.5c-30.6,29.3-91.1,50.5-140.5,51.9c0-16.8,0.1-31.7,0.1-31.7c11.2-23.4,36.9-33.5,42.9-58
	c4.9-20-20.8-37.9-42.9-17.1c0-8.6,2-10.6,9.4-16.7c-6.1-3.7-10.9-15.3-14.6-30c-3.7,14.7-8.4,26.3-14.6,30
	c7.3,6.1,9.4,8.2,9.4,16.7c-22-20.8-47.7-2.9-42.9,17.1c5.9,24.5,31.7,34.7,42.9,58c0,0,0,14.9,0.1,31.7
	c-49.4-1.4-109.9-22.6-140.5-51.9C134,153,195.9,181,250.9,182.7c0,16,0,29.7-0.1,29.9c-7.3-3.7-15.1-6.8-15.1-6.8
	s11.4,14.2,15.1,20.3s1.7,14.7,1.7,24.5c-4.9-4.9-18-9.2-23.1-11c4.9,6.1,21.2,24.3,26.6,40.5c5.4-16.2,21.7-34.4,26.6-40.5
	c-5.1,1.8-18.2,6.1-23.1,11c0-9.8-1.9-18.4,1.7-24.5s15.1-20.3,15.1-20.3s-7.7,3.2-15.1,6.8c-0.1-0.1-0.1-13.9-0.1-29.9
	C316.1,181,378,153,401.6,113.5z M221.9,78.5c-1.6-20.3,20.1-27.2,34.1-9.7c14-17.5,35.7-10.7,34.1,9.7
	c-1.3,16.4-23.9,39.5-34.1,49.2C245.7,118,223.1,94.8,221.9,78.5z"/>
<linearGradient id="ar_1_" gradientUnits="userSpaceOnUse" x1="256" y1="283.4098" x2="1" y2="283.4098" gradientTransform="matrix(1 0 0 -1 0 511.8898)">
	<stop  offset="0" style="stop-color:#BF607F"/>
	<stop  offset="1" style="stop-color:#4D2734"/>
</linearGradient>
<path id="ar" class="st4" d="M209.3,292.7c7.3-2.8,29.7-12.7,46.7-12.8c-13.7-10.1-26-31.2-30.3-37.8c0.1,5.5,0.2,19.2,3.3,25.4
	c-9.3-3-18.1-3.8-22.7-9.2s-14.6-20.6-14.6-20.6s0.6,8.3,1.8,16.4c-0.1,0.1-13.2-4.2-28.4-9.1c15.4-52.8,8-120.4-22.4-155.1
	c18.4,38.2,19.9,102.3,5.9,149.7l-30.1-9.9c-18.7-17.8-20.5-45.5-41.9-58.7C59,160.3,34,179.2,47,206.6c-8.1-2.6-9.5-5.2-13-14.1
	c-5.4,4.7-17.9,5.6-33,4.6c12.8,8,22.4,16.2,24,23.1c8.1-5.1,10.6-6.4,18.8-3.7c-26.6,14.5-17.5,44.5,3,46.1
	c25.1,1.9,42.8-19.4,68.4-22.8c0,0,14.2,4.6,30.2,9.7C128.9,295.9,90,346.9,52.7,367c45-10.2,90.7-60.5,109.2-112.3
	c15.2,4.9,28.3,9.2,28.4,9.3c-5.8,5.9-11.1,12.2-11.1,12.2s17-6.5,23.9-8.1s14.5,2.9,23.8,5.9C220.7,277.2,212.6,288.4,209.3,292.7z
	 M53.9,250.1c-19.9-4.8-19.6-27.5,1.3-35.5c-12.3-18.7,0.9-37.3,19.8-29.5c15.2,6.2,30.2,34.9,36.3,47.7
	C98.8,239.6,69.8,254,53.9,250.1z"/>
</svg>
