<?xml version="1.0" encoding="utf-8"?>
<!-- Generator: Adobe Illustrator 24.1.0, SVG Export Plug-In . SVG Version: 6.00 Build 0)  -->
<svg version="1.1" id="layer_1" xmlns="http://www.w3.org/2000/svg" xmlns:xlink="http://www.w3.org/1999/xlink" x="0px" y="0px"
	 viewBox="0 0 320 40" style="enable-background:new 0 0 320 40;" xml:space="preserve">
<style type="text/css">
	.st0{fill:#898989;}
</style>
<g id="gp">
	<path class="st0" d="M1,8.5h10.9c6.4,0,9.4,4.2,9.4,10.5c0,6-2.6,11.1-9.2,11.1H1V8.5z M11.9,27.3c5.2,0,6.2-4.4,6.2-8.2
		c0-3.8-1.2-7.7-6.8-7.7H4.2v16H11.9z"/>
	<path class="st0" d="M27,22.5c0.2,3.3,3.1,5,5.8,5c1.7,0,4.1-0.6,5.1-2.8h3.2c-1.5,3.8-5,5.3-8.1,5.3c-6.1,0-9.2-3.9-9.2-8.4
		c0-4.5,3-8.4,9.2-8.4c4.2,0,8.6,2.4,8.6,8.9v0.4H27z M38.3,20.2c-0.5-2.9-2.7-4.5-5.5-4.5c-2.8,0-5.3,1.6-5.7,4.5H38.3z"/>
	<path class="st0" d="M46.7,24.5c0,1.4,1.1,3.2,5,3.2c3.9,0,4.8-1.4,4.8-2.5c0-1.1-0.6-1.8-3-2.1l-5-0.7c-2.3-0.3-4.3-1.7-4.3-4.2
		c0-3.2,2.8-5.1,7.2-5.1c5.2,0,7.4,2.2,7.7,5.3h-3c-0.1-1.6-1.6-3-4.7-3c-1.9,0-4.2,0.5-4.2,2.4c0,1.1,0.5,1.7,2.6,2l4.3,0.6
		c4,0.5,5.5,2,5.5,4.2c0,3.7-3.1,5.4-7.9,5.4c-3.6,0-7.7-0.9-8.1-5.5H46.7z"/>
	<path class="st0" d="M83.2,14.1h3v14.5c0,5.7-2.7,8-9.2,8c-3.4,0-7.3-0.5-8-4.9h3c0.5,2,2.4,2.6,5.2,2.6c4.3,0,5.9-2.2,5.9-4.8
		v-2.3h-0.1c-1.7,2.4-4.1,2.9-6.1,2.9c-4.2,0-8.6-2.3-8.6-8.1c0-5.9,4.4-8.2,8.6-8.2c2.6,0,5,0.9,6.1,2.7h0.1V14.1z M77.4,16.3
		c-3.7,0-5.8,2.4-5.8,5.7c0,3.3,2.1,5.6,5.8,5.6c3.6,0,5.8-2.3,5.8-5.6C83.2,18.7,81.1,16.3,77.4,16.3z"/>
	<path class="st0" d="M89.7,14.3h3v2.4h0.1c1.4-2.2,3.9-2.9,6.2-2.9c3.8,0,6.6,1.6,6.6,5.6V30h-3V19.9c0-2.3-1.4-3.6-4.7-3.6
		c-2.7,0-5.2,1.6-5.2,4.7V30h-3V14.3z"/>
	<path class="st0" d="M127.7,13.2c6.1,0,9.2,3.9,9.2,8.4c0,4.5-3,8.4-9.2,8.4c-6.1,0-9.2-3.9-9.2-8.4
		C118.5,17.1,121.5,13.2,127.7,13.2z M127.7,15.7c-4.4,0-6,3-6,5.9s1.6,5.9,6,5.9c4.4,0,6-3,6-5.9S132,15.7,127.7,15.7z"/>
	<path class="st0" d="M140.7,11.9c0-2.9,1.8-3.9,4.8-3.9c0.9,0,1.7,0.2,2.6,0.2v2.3c-0.6,0-1.1-0.1-1.7-0.1c-2,0-2.8,0.2-2.8,1.5
		v2.2h4.5v2.3h-4.5V30h-3V16.6h-3.2v-2.3h3.2V11.9z"/>
	<path class="st0" d="M150.8,11.9c0-2.9,1.8-3.9,4.8-3.9c0.9,0,1.7,0.2,2.6,0.2v2.3c-0.6,0-1.1-0.1-1.7-0.1c-2,0-2.8,0.2-2.8,1.5
		v2.2h4.5v2.3h-4.5V30h-3V16.6h-3.2v-2.3h3.2V11.9z"/>
	<path class="st0" d="M182.6,23.7c-1.3,4.7-4.1,6.3-8.2,6.3c-6.3,0-8.6-4.2-8.6-8.3c0-4.7,2.9-8.5,8.6-8.5c4.2,0,7.6,1.9,8.2,5.8
		h-3.2c-0.4-2-2-3.3-4.8-3.3c-3.9,0-5.6,2.5-5.6,5.9c0,3.4,1.7,5.9,5.6,5.9c2.7,0,4.2-1.2,4.8-3.8H182.6z"/>
	<path class="st0" d="M188,22.5c0.2,3.3,3.1,5,5.8,5c1.7,0,4.1-0.6,5.1-2.8h3.2c-1.5,3.8-5,5.3-8.1,5.3c-6.1,0-9.2-3.9-9.2-8.4
		c0-4.5,3-8.4,9.2-8.4c4.2,0,8.6,2.4,8.6,8.9v0.4H188z M199.3,20.2c-0.5-2.9-2.7-4.5-5.5-4.5c-2.8,0-5.3,1.6-5.7,4.5H199.3z"/>
	<path class="st0" d="M216,8.5h3.2V30H216V8.5z"/>
	<path class="st0" d="M224.2,8.5h13.3c4.3,0,5.9,3,5.9,5.7c0,2.6-1.3,4.5-3.6,5.3v0.1c1.9,0.3,3,2,3.1,4.6c0.2,4,0.3,5,1,5.8h-3.4
		c-0.5-0.6-0.5-1.5-0.7-4.1c-0.2-3.9-1.5-5-4.2-5h-8.3V30h-3.2V8.5z M236.3,18.1c3.1,0,3.9-1.9,3.9-3.4c0-2-1.2-3.4-3.8-3.4h-9v6.8
		H236.3z"/>
	<path class="st0" d="M246.9,8h3.2v13.8c0,3.9,2.6,5.5,6.5,5.5c3.9,0,6.5-1.6,6.5-5.5V8h3.2v13.4c0,5.8-3.2,8.7-9.7,8.7
		c-6.5,0-9.7-2.9-9.7-8.7V8z"/>
	<path class="st0" d="M286.6,8.5h3.9L281,21v9h-3.2v-8.9l-9.4-12.6h4.1l7,9.8L286.6,8.5z"/>
	<path class="st0" d="M305.3,23.8h-10.5L292,30h-3.4l9.7-21.5h3.6l9.7,21.5H308L305.3,23.8z M300,11.5l-4,9.5h8.2L300,11.5z"/>
	<g id="sub-gp_1_">
		<rect x="62.4" y="14.3" class="st0" width="3" height="15.8"/>
		<circle class="st0" cx="63.9" cy="10.7" r="1.7"/>
	</g>
	<g id="sub-gp">
		<rect x="159.8" y="14.3" class="st0" width="3" height="15.8"/>
		<circle class="st0" cx="161.4" cy="10.7" r="1.7"/>
	</g>
	<circle class="st0" cx="316" cy="28" r="2"/>
</g>
</svg>
