<?xml version="1.0" encoding="utf-8"?>
<!-- Generator: Adobe Illustrator 22.1.0, SVG Export Plug-In . SVG Version: 6.00 Build 0)  -->
<svg version="1.1" xmlns="http://www.w3.org/2000/svg" xmlns:xlink="http://www.w3.org/1999/xlink" x="0px" y="0px"
	 viewBox="0 0 1024 240" style="enable-background:new 0 0 1024 240;" xml:space="preserve">
<style type="text/css">
	.st0{fill:#E3007F;}
	.st1{fill:none;stroke:#E47FAF;stroke-width:14.2788;}
	.st2{fill:none;stroke:#FFFFFF;stroke-width:7.1394;}
	.st3{fill:#EA6000;}
	.st4{fill:#6CBA5A;}
</style>
<g id="layer2">
	<g>
		<path class="st0" d="M275.1,36.9v20h7.4v4h-12.1v-24H275.1z"/>
		<path class="st0" d="M299.5,56.6c-0.5,1.2-2.2,4.9-7.7,4.9c-2.5,0-4.4-0.7-6-2.2c-1.7-1.6-2.4-3.6-2.4-6.1c0-3.1,1.3-5,2.4-6.1
			c1.8-1.8,4-2.2,5.9-2.2c3.2,0,5,1.3,6.1,2.6c1.7,2,1.9,4.4,1.9,6.1v0.4h-11.7c0,0.9,0.3,1.9,0.8,2.6c0.5,0.6,1.4,1.5,3.1,1.5
			c1.7,0,2.9-0.8,3.6-2.1L299.5,56.6z M295.4,51.1c-0.4-2.1-2.1-3.1-3.7-3.1c-1.6,0-3.3,1-3.7,3.1H295.4z"/>
		<path class="st0" d="M306.5,49.1v11.8h-4.4V49.1h-1.7v-3.7h1.7V40h4.4v5.3h3v3.7H306.5z"/>
		<path class="st0" d="M315,46.6h-3l-0.8-9.6h4.7L315,46.6z"/>
		<path class="st0" d="M325.8,49c-1-1-2.1-1-2.6-1c-1,0-1.7,0.5-1.7,1.3c0,0.4,0.2,1,1.4,1.4l1,0.3c1.2,0.4,3.1,1,4,2.2
			c0.5,0.6,0.8,1.6,0.8,2.6c0,1.4-0.5,2.8-1.7,4s-2.8,1.7-4.7,1.7c-3.2,0-5.1-1.5-6-2.6l2.3-2.7c0.9,1,2.2,1.8,3.5,1.8
			c1.2,0,2.2-0.6,2.2-1.7c0-1-0.8-1.4-1.4-1.6l-1-0.4c-1.1-0.4-2.4-0.9-3.3-1.9c-0.7-0.8-1.2-1.7-1.2-3c0-1.5,0.7-2.8,1.6-3.5
			c1.2-1,2.8-1.1,4.1-1.1c1.2,0,3,0.1,5,1.7L325.8,49z"/>
		<path class="st0" d="M361.8,62.5l-6.3-22.3h-0.2l-7.7,22.3h-3L329.4,11h-2.6V9.1h43.5V11h-2.9l-5.4,17.7l4.9,17.4h0.2L377.2,11h-3
			V9.1h7.6V11h-2.2l-15,51.5H361.8z M339.6,11l10.6,36.2h0.2l3.9-10.8l-7-25.4H339.6z M356.7,11l3.9,14.2h0.2l4.2-14.2H356.7z"/>
		<path class="st0" d="M374.3,46c0-7.9,4.5-15.8,13.8-15.8S402,38,402,46c0,7.8-4.5,15.7-13.8,15.7S374.3,53.8,374.3,46z
			 M383.5,52.8c0,5.2,1.2,7.4,4.6,7.4c3.8,0,4.6-2.2,4.6-7.3V38.4c0-5.9-2.2-6.6-4.6-6.6s-4.6,0.7-4.6,6.6V52.8z"/>
		<path class="st0" d="M402.3,60.9v-1.7h3.4V32.6h-3.2v-1.7c1,0,3,0,5-0.1c2.1-0.1,4.2-0.2,6.2-0.5v4.6h0.2c1.4-2.7,3.3-4.7,6.8-4.7
			c3,0,5.8,2.1,5.8,4.9c0,2.2-1.4,4.5-3.9,4.5c-1.9,0-3.8-0.9-3.8-3.2c0-1.7,0.7-2.5,0.7-3.2c0-0.5-0.5-0.6-0.8-0.6
			c-1.4,0-4.3,3.4-4.3,8.2v18.5h4.1v1.7H402.3z"/>
		<path class="st0" d="M440.7,59.2v1.7h-15.1v-1.7h3.7V10.6H426V8.9c2.4,0,7.8-0.4,11.7-0.6v50.9H440.7z M456,59.2h2.2v1.7h-14.4
			v-1.7h3l-8.6-14.4l10.7-12.2H444v-1.7h11.3v1.7h-3.9l-6.7,7.9L456,59.2z"/>
		<path class="st0" d="M502.8,59v1.9h-17.4V59h3.8l-3.7-13.6h-10.4L471.5,59h4.8v1.9h-10.9V59h3.8l13.9-49.9h3.1L499.8,59H502.8z
			 M480.5,26.6h-0.2l-4.6,16.6h9.2L480.5,26.6z"/>
		<path class="st0" d="M513.2,51.2c-4,0-5.5,1.6-5.5,3.4c0,1.4,0.9,2.6,4.6,2.6c3.1,0,6.2-0.1,9.3-0.2c6.6-0.2,9.7,3.1,9.7,8.2
			c0,6.4-4.4,13.8-14.9,13.8c-10,0-11.8-5.6-11.8-7.4c0-3.8,1.8-5.2,5.8-7.4c-3.9-1.1-5.9-3.6-5.9-7.8c0-3.6,3.4-6,6.4-6.6v-0.2
			c-3.8-1.4-6.3-5-6.3-9.3c0-2.6,2.3-10.2,12-10.2c2.7,0,5.4,1,7.6,2.6c0.8-1.7,2.6-3.6,4.6-3.6c1.8,0,3.3,0.9,3.3,2.8
			c0,1.5-1,2.4-2.5,2.4c-1.3,0-2.2-0.5-2.7-1.7c-0.6,0.2-1.3,0.6-1.8,1.1c2.1,1.8,3,4.4,3,7.1c0,4.8-2.8,10.3-12.6,10.3H513.2z
			 M511.6,64.5c-1,1.7-1.5,2.6-1.5,4.6c0,5.1,3,7.7,8,7.7c5.4,0,10.6-3.8,10.6-8.6c0-2.3-0.6-3.7-6.2-3.7H511.6z M516.5,49.6
			c3.1,0,3.6-1.4,3.6-10.4c0-6.6-1-7.3-3.5-7.3c-3.8,0-4.2,1.8-4.2,9.7C512.4,47.9,513.2,49.6,516.5,49.6z"/>
		<path class="st0" d="M559.6,58.3c-1.4,2.3-3.8,3.4-6.5,3.4c-2.7,0-4.3-1.5-5.1-4c-2.1,2.5-4.6,4-9.3,4c-4.2,0-7.3-2.4-7.3-6.6
			c0-8.8,9.4-10.2,16.2-11v-6.2c0-4.5-0.7-5.8-3.9-5.8c-1.9,0-3.6,0.6-3.6,1.6c0,0.6,1.7,2,1.7,4c0,2.2-2.2,3.8-3.6,3.8
			c-2.6,0-4.3-1.4-4.3-4.1c0-2.4,1.9-7.1,11-7.1c6.5,0,10.7,2.5,10.7,7.2v18.9c0,1.5,0.4,1.9,1.1,1.9c0.6,0,1.2-0.4,2.1-1
			L559.6,58.3z M543.2,58.1c3.8,0,4.6-1.8,4.4-12.4c-4.2,0.1-7.9,1.5-7.9,6.5C539.7,54.6,540.1,58.1,543.2,58.1z"/>
		<path class="st0" d="M564.3,59.2V32.6H561v-1.7c1.6,0,3.6,0,5.6-0.1c2.1-0.1,4.2-0.2,6.2-0.5v28.9h3.1v1.7h-15.1v-1.7H564.3z
			 M568.4,20.8c-2.7,0-4.7-2.1-4.7-4.7c0-2.6,2-4.7,4.7-4.7c2.6,0,4.7,2.1,4.7,4.7C573.1,18.8,571,20.8,568.4,20.8z"/>
		<path class="st0" d="M592.2,59.2v1.7h-14.6v-1.7h3.1l0.1-26.6h-3.3v-1.7c1.4,0,3.4,0,5.4-0.1c2.1-0.1,4.2-0.2,6.2-0.5v5.5l0.2-0.1
			c1.5-3.3,5.1-5.6,9-5.6c6.2,0,8.6,4.6,8.6,9v20.1h3v1.7h-14.2v-1.7h2.8V37.6c0-2.8-0.9-4.2-3.7-4.2c-2.7,0-5.4,3.4-5.4,9.8v16
			H592.2z"/>
		<path class="st0" d="M617.3,61.7c-3,0-5.4-2.4-5.4-5.4c0-3,2.4-5.4,5.4-5.4c3,0,5.4,2.5,5.4,5.4C622.8,59.3,620.3,61.7,617.3,61.7
			z M616.4,44.5c0-4.6,0.1-7.4-0.4-10.9c-1.5-9.9-3.5-17.2-3.5-20.1c0-2.9,2.2-4.5,4.9-4.5c2.7,0,4.9,1.6,4.9,4.5
			c0,2.9-2,10.2-3.5,20.1c-0.5,3.4-0.4,6.3-0.5,10.9H616.4z"/>
		<path class="st0" d="M637.1,44.4c0.9,0,1.6,0.8,1.6,1.8s-0.7,1.8-1.6,1.8s-1.6-0.8-1.6-1.8S636.2,44.4,637.1,44.4z M638.4,50.5
			v10.4h-2.6V50.5H638.4z"/>
		<path class="st0" d="M640.3,50.5h2.6v1.3c0.5-0.8,1.4-1.7,2.9-1.7c0.8,0,2,0.3,2.8,1.3c0.6,0.9,0.7,1.9,0.7,2.9v6.5h-2.6v-5.7
			c0-0.6,0-1.5-0.5-2c-0.4-0.5-1-0.5-1.2-0.5c-0.7,0-1.2,0.3-1.6,0.9c-0.4,0.7-0.4,1.4-0.4,2v5.3h-2.6V50.5z"/>
		<path class="st0" d="M670.6,52.9c0,4.9-3.2,8.4-7.7,8.4s-7.7-3.5-7.7-8.4s3.2-8.4,7.7-8.4S670.6,48.1,670.6,52.9z M667.7,52.9
			c0-3.2-2-5.5-4.8-5.5s-4.8,2.3-4.8,5.5s2,5.5,4.8,5.5S667.7,56.2,667.7,52.9z"/>
		<path class="st0" d="M675.4,51.7l5.3-6.8h3.5l-6.1,7.4l6.4,8.6h-3.7l-5.1-7.2l-0.3,0.4v6.8h-2.8v-16h2.8V51.7z"/>
		<path class="st0" d="M695,57.6h-5.8l-1.3,3.4h-3l6.2-16h2.2l6,16h-3L695,57.6z M694.2,55l-2.1-5.8l-2.1,5.8H694.2z"/>
		<path class="st0" d="M702.1,53.6l-4.9-8.7h3.3l3.1,5.6l3.1-5.6h3.3l-5.1,8.7v7.3h-2.8V53.6z"/>
		<path class="st0" d="M717.8,57.6H712l-1.3,3.4h-3l6.2-16h2.2l6,16h-3L717.8,57.6z M717,55l-2.1-5.8l-2.1,5.8H717z"/>
		<path class="st0" d="M725.5,44.9h2l3.8,10.2l4-10.2h2l2.4,16H737l-1.3-9.9l-3.9,9.9h-1l-3.7-9.9l-1.5,9.9h-2.9L725.5,44.9z"/>
		<path class="st0" d="M750.7,57.6h-5.8l-1.3,3.4h-3l6.2-16h2.2l6,16h-3L750.7,57.6z M749.9,55l-2.1-5.8l-2.1,5.8H749.9z"/>
	</g>
</g>
<g id="layer1">
	<g>
		<g>
			<path class="st1" d="M155.7,183.6v15.7c0,11.2-7.1,15.6-13.7,15.6h-17.1v-11.1H139c1.6,0,5.3-1.3,5.3-6v-14.1h-81v16.7H51.8
				v-16.7h-6.6v-11.1h6.6v-58H98V98.7H63.4V87.5h80.3v11.2h-34.5v15.7h46.4v58h6.5v11.1H155.7z M98,125.5H63.3v18.6H98V125.5z
				 M98,154H63.3v18.4H98V154z M144.3,125.5h-35v18.6h35V125.5z M144.3,154h-35v18.4h35V154z"/>
			<path class="st1" d="M201.5,166.6v33.1c0,9.4-5.1,15.1-12.4,15.1h-7v-11.4h4.3c2.9,0,4.9-2.3,4.9-5.5v-31.4h-21v-47.7h52v47.7
				H201.5z M178.8,195.8l-8.6-1.4l1.4-9.8l8.6,1.6L178.8,195.8z M175.2,106.8V95.7h15.7V85.2h11v10.5h15.6v11.1H175.2z M211.6,129.7
				h-30.5v25.9h30.5V129.7z M213.8,195.8l-1.6-9.6l8.6-1.6l1.4,9.8L213.8,195.8z M257.4,125.7v22c0,0.6-0.1,1.2-0.1,1.7h6.2v47.2
				c0,2.4,1.4,4.2,3.8,4.2h7.5v12.2h-9.6c-7.3,0-11.8-5.3-11.8-13.4v-23.9c-3.1,10.4-7.9,19.7-14.3,27.2l-8.3-8.2
				c9.1-9.9,15.7-28.2,15.7-45.9v-23.2h-17.4V114h17.4V93.8h10.9V114h18.4v11.7H257.4z M271.5,104.8l-1.9-9.5l8.7-2l1.8,9.5
				L271.5,104.8z"/>
			<path class="st1" d="M326.1,98.6v116.2h-9.2V207c-7.6,3.6-17.1,3.9-28.1,3.9l-0.5-11.7c1.2,0,2.3,0.1,3.5,0.1V98.6h-3.5V87.5
				h41.2v11.1H326.1z M316.9,98.6h-15.8v25.3h15.8V98.6z M316.9,134.6h-15.8v25.2h15.8V134.6z M316.9,170.4h-15.8v28.8
				c6.2-0.1,11.3-1,15.8-3.7V170.4z M399.8,211.5c-3.4-3.7-6.4-7.8-8.9-12.2c-4.1,5.9-9.5,10.8-15.9,14.4l-4.1-8.4
				c6.5-3,11.7-8.2,15.7-14.7c-6.4-14.5-9.2-31.8-9.6-49.4h-47.6v-10.1h47.4V85.2h9.6v45.9H405v10.1h-18.5
				c0.3,14.1,1.9,26.9,5.7,37.9c2.6-6.8,4.4-14.5,5.6-22.8l7.5,1.3c-1.7,12-4.4,22.8-8.7,31.8c2.5,4.8,5.6,9.1,9.1,12.7L399.8,211.5
				z M332.5,103.8V93.6h13.9v-8.4h10.4v8.4h14.6v10.2H332.5z M334.2,207.6v-54.9h35.6v54.9H334.2z M339.5,124.4l-2.9-8.6l7.5-2.7
				l2.9,8.6L339.5,124.4z M361.2,162.1h-18.3v13.7h18.3V162.1z M361.2,184.8h-18.3v13.7h18.3V184.8z M364.6,124.7l-7.8-3l2.9-8.6
				l7.5,2.9L364.6,124.7z M396.3,109.3l-2.1-9.5l8.4-2.3l2.1,9.4L396.3,109.3z"/>
			<path class="st1" d="M411.3,97.7c2.3,0.5,4.9,0.8,7.2,0.8h103.7c-3.3,38.6-20.3,58.1-55.9,64.3c-2.7,23-15.7,37.6-42.9,48.2
				c-3.9,1.4-4.6,1.8-5.8,2.7l-2.9-7.4c3.3,0.2,10.5-2.7,17.4-6.9c16-9.8,24.5-25,24.5-44v-23.4c0-2.6-0.3-5.1-0.7-8h11.7
				c-0.4,2.6-0.7,5.4-0.7,8v24.5c25.6-5.9,40.2-23.2,43.5-51.4h-91.9c-2.4,0-4.6,0.3-7.2,0.8V97.7z"/>
			<path class="st1" d="M567.7,155.8c-6.3-6.2-33.8-17.9-43.9-18.7l2.6-7.7c2.4,1,3.6,1.3,8.2,2.2c11.7,2.6,25.8,7.5,37.7,13.3
				L567.7,155.8z M534,198.6c1,0.2,1.7,0.2,2.2,0.2c4.6,0,14-1.4,21-3c33.1-8.2,57-31.2,69.5-67c1.2-3.5,1.6-5.3,1.9-7.8l6.3,3.8
				c-0.9,1.3-1.9,4-2.7,6.7c-14.1,45.8-41.3,69.9-87.4,77.8c-4,0.8-6.2,1.3-7.5,1.8L534,198.6z M579.9,121.7
				c-5.9-7.2-32.1-21.8-42-23.4l2.9-7.2c1.3,0.8,3.9,1.8,7.1,2.6c11.7,3.4,25.2,9.6,37,17.1L579.9,121.7z"/>
			<path class="st1" d="M646.7,101.8c2.2,0.5,5,0.8,7.2,0.8h72.1c-3.5,20.2-10.7,38.9-20.9,54.6c17.1,12.8,31.2,25.9,42.2,39
				c1.2,1.4,4,4.6,4.8,5.3l-9.2,9.6c-4-10.9-23.8-33.9-41.5-48.6c-13.7,19.7-32.4,33.6-58.3,43.8c-2.3,1-5,2.4-6.6,3.4l-3.3-7.4
				c9.1-1.3,23.8-8.8,34.8-17.9c23.2-18.7,38.9-44.6,45.2-75h-59.3c-3.2,0-5.5,0.3-7.2,0.8V101.8z"/>
			<path class="st1" d="M771.3,207.4c0,2.4,0.3,5.3,0.7,8h-11.7c0.4-2.2,0.6-4.8,0.6-8v-113c0-3.4-0.1-5.8-0.6-8H772
				c-0.4,2.6-0.7,5.4-0.7,8v35.2c21.6,6.1,40.6,15.2,56.2,27.2c2.7,2.1,5.6,4.3,6.8,5l-7.3,10.7c-10.8-13.4-35.6-29.4-55.6-35.7
				V207.4z"/>
			<path class="st1" d="M832.9,134.3v-6.9H858v6.9H832.9z M834.8,192.1v-27.3H856v27.3H834.8z M837.8,121.2v-5.8h15v5.8H837.8z
				 M837.8,146.4v-5.8h15v5.8H837.8z M837.8,158.4v-5.7h15v5.7H837.8z M850.5,170.6h-10v15.7h10V170.6z M902.2,180.7v3.7
				c0,4.9-3,8.8-7.8,8.8h-4v-5.7h2.6c1.4,0,3-1.6,3-3.3v-3.4h-27.3v6.4h-6.1v-6.4h-2.2v-5.5h2.2v-22.4h16.9v-6.2H863V141h5.8v-6.2
				h-6.2v-5.3h6.2v-6.3h-6.2v-5.6h6.2v-3.7h6.4v3.7h14.3v-3.7h6.3v3.7h6.3v5.6h-6.3v6.3h6.3v5.3h-6.3v6.2h5.9v5.6H885v6.2h17.2v22.4
				h2.1v5.5H902.2z M879.5,158h-10.8v6.2h10.8V158z M879.5,169.1h-10.8v6.2h10.8V169.1z M889.5,123.2h-14.3v6.3h14.3V123.2z
				 M889.5,134.8h-14.3v6.2h14.3V134.8z M896,158h-11v6.2h11V158z M896,169.1h-11v6.2h11V169.1z"/>
			<path class="st1" d="M918.4,125.8v30c0,14.4-1.9,22.9-6.1,28.7l-4.4-5.4c2.9-4.3,3.8-9.9,3.8-24v-36.4h31.4v-4.8h7v4.8h19v7.1
				H918.4z M920.1,192.1v-6.7h26.8V173h-18.8v-6.9h18.8v-36.7h6.8v36.7h18.2v6.9h-18.2v12.4h26.2v6.7H920.1z M941.6,160.8
				c-3.6-2.2-6.7-5.9-8.7-10.3c-1.8,4.2-4.5,7.3-8.6,9.9l-3.3-5.1c7.3-4.2,9.1-9.1,9.1-23.4h5.5c0,4-0.2,7.3-0.6,10.3
				c1,6.1,5,11.5,9.5,13.6L941.6,160.8z M977.3,160.8c-3.7-2.3-6.9-6.1-8.9-10.6c-1.9,4.3-4.9,7.5-9.1,10.2l-3.3-5.1
				c7.4-4.2,9.7-9.2,9.7-23.5h5.6c0,3.8-0.2,7-0.6,9.9c0.8,6.2,4.9,11.9,9.5,13.9L977.3,160.8z"/>
		</g>
		<g>
			<path class="st2" d="M155.7,183.6v15.7c0,11.2-7.1,15.6-13.7,15.6h-17.1v-11.1H139c1.6,0,5.3-1.3,5.3-6v-14.1h-81v16.7H51.8
				v-16.7h-6.6v-11.1h6.6v-58H98V98.7H63.4V87.5h80.3v11.2h-34.5v15.7h46.4v58h6.5v11.1H155.7z M98,125.5H63.3v18.6H98V125.5z
				 M98,154H63.3v18.4H98V154z M144.3,125.5h-35v18.6h35V125.5z M144.3,154h-35v18.4h35V154z"/>
			<path class="st2" d="M201.5,166.6v33.1c0,9.4-5.1,15.1-12.4,15.1h-7v-11.4h4.3c2.9,0,4.9-2.3,4.9-5.5v-31.4h-21v-47.7h52v47.7
				H201.5z M178.8,195.8l-8.6-1.4l1.4-9.8l8.6,1.6L178.8,195.8z M175.2,106.8V95.7h15.7V85.2h11v10.5h15.6v11.1H175.2z M211.6,129.7
				h-30.5v25.9h30.5V129.7z M213.8,195.8l-1.6-9.6l8.6-1.6l1.4,9.8L213.8,195.8z M257.4,125.7v22c0,0.6-0.1,1.2-0.1,1.7h6.2v47.2
				c0,2.4,1.4,4.2,3.8,4.2h7.5v12.2h-9.6c-7.3,0-11.8-5.3-11.8-13.4v-23.9c-3.1,10.4-7.9,19.7-14.3,27.2l-8.3-8.2
				c9.1-9.9,15.7-28.2,15.7-45.9v-23.2h-17.4V114h17.4V93.8h10.9V114h18.4v11.7H257.4z M271.5,104.8l-1.9-9.5l8.7-2l1.8,9.5
				L271.5,104.8z"/>
			<path class="st2" d="M326.1,98.6v116.2h-9.2V207c-7.6,3.6-17.1,3.9-28.1,3.9l-0.5-11.7c1.2,0,2.3,0.1,3.5,0.1V98.6h-3.5V87.5
				h41.2v11.1H326.1z M316.9,98.6h-15.8v25.3h15.8V98.6z M316.9,134.6h-15.8v25.2h15.8V134.6z M316.9,170.4h-15.8v28.8
				c6.2-0.1,11.3-1,15.8-3.7V170.4z M399.8,211.5c-3.4-3.7-6.4-7.8-8.9-12.2c-4.1,5.9-9.5,10.8-15.9,14.4l-4.1-8.4
				c6.5-3,11.7-8.2,15.7-14.7c-6.4-14.5-9.2-31.8-9.6-49.4h-47.6v-10.1h47.4V85.2h9.6v45.9H405v10.1h-18.5
				c0.3,14.1,1.9,26.9,5.7,37.9c2.6-6.8,4.4-14.5,5.6-22.8l7.5,1.3c-1.7,12-4.4,22.8-8.7,31.8c2.5,4.8,5.6,9.1,9.1,12.7L399.8,211.5
				z M332.5,103.8V93.6h13.9v-8.4h10.4v8.4h14.6v10.2H332.5z M334.2,207.6v-54.9h35.6v54.9H334.2z M339.5,124.4l-2.9-8.6l7.5-2.7
				l2.9,8.6L339.5,124.4z M361.2,162.1h-18.3v13.7h18.3V162.1z M361.2,184.8h-18.3v13.7h18.3V184.8z M364.6,124.7l-7.8-3l2.9-8.6
				l7.5,2.9L364.6,124.7z M396.3,109.3l-2.1-9.5l8.4-2.3l2.1,9.4L396.3,109.3z"/>
			<path class="st2" d="M411.3,97.7c2.3,0.5,4.9,0.8,7.2,0.8h103.7c-3.3,38.6-20.3,58.1-55.9,64.3c-2.7,23-15.7,37.6-42.9,48.2
				c-3.9,1.4-4.6,1.8-5.8,2.7l-2.9-7.4c3.3,0.2,10.5-2.7,17.4-6.9c16-9.8,24.5-25,24.5-44v-23.4c0-2.6-0.3-5.1-0.7-8h11.7
				c-0.4,2.6-0.7,5.4-0.7,8v24.5c25.6-5.9,40.2-23.2,43.5-51.4h-91.9c-2.4,0-4.6,0.3-7.2,0.8V97.7z"/>
			<path class="st2" d="M567.7,155.8c-6.3-6.2-33.8-17.9-43.9-18.7l2.6-7.7c2.4,1,3.6,1.3,8.2,2.2c11.7,2.6,25.8,7.5,37.7,13.3
				L567.7,155.8z M534,198.6c1,0.2,1.7,0.2,2.2,0.2c4.6,0,14-1.4,21-3c33.1-8.2,57-31.2,69.5-67c1.2-3.5,1.6-5.3,1.9-7.8l6.3,3.8
				c-0.9,1.3-1.9,4-2.7,6.7c-14.1,45.8-41.3,69.9-87.4,77.8c-4,0.8-6.2,1.3-7.5,1.8L534,198.6z M579.9,121.7
				c-5.9-7.2-32.1-21.8-42-23.4l2.9-7.2c1.3,0.8,3.9,1.8,7.1,2.6c11.7,3.4,25.2,9.6,37,17.1L579.9,121.7z"/>
			<path class="st2" d="M646.7,101.8c2.2,0.5,5,0.8,7.2,0.8h72.1c-3.5,20.2-10.7,38.9-20.9,54.6c17.1,12.8,31.2,25.9,42.2,39
				c1.2,1.4,4,4.6,4.8,5.3l-9.2,9.6c-4-10.9-23.8-33.9-41.5-48.6c-13.7,19.7-32.4,33.6-58.3,43.8c-2.3,1-5,2.4-6.6,3.4l-3.3-7.4
				c9.1-1.3,23.8-8.8,34.8-17.9c23.2-18.7,38.9-44.6,45.2-75h-59.3c-3.2,0-5.5,0.3-7.2,0.8V101.8z"/>
			<path class="st2" d="M771.3,207.4c0,2.4,0.3,5.3,0.7,8h-11.7c0.4-2.2,0.6-4.8,0.6-8v-113c0-3.4-0.1-5.8-0.6-8H772
				c-0.4,2.6-0.7,5.4-0.7,8v35.2c21.6,6.1,40.6,15.2,56.2,27.2c2.7,2.1,5.6,4.3,6.8,5l-7.3,10.7c-10.8-13.4-35.6-29.4-55.6-35.7
				V207.4z"/>
			<path class="st2" d="M832.9,134.3v-6.9H858v6.9H832.9z M834.8,192.1v-27.3H856v27.3H834.8z M837.8,121.2v-5.8h15v5.8H837.8z
				 M837.8,146.4v-5.8h15v5.8H837.8z M837.8,158.4v-5.7h15v5.7H837.8z M850.5,170.6h-10v15.7h10V170.6z M902.2,180.7v3.7
				c0,4.9-3,8.8-7.8,8.8h-4v-5.7h2.6c1.4,0,3-1.6,3-3.3v-3.4h-27.3v6.4h-6.1v-6.4h-2.2v-5.5h2.2v-22.4h16.9v-6.2H863V141h5.8v-6.2
				h-6.2v-5.3h6.2v-6.3h-6.2v-5.6h6.2v-3.7h6.4v3.7h14.3v-3.7h6.3v3.7h6.3v5.6h-6.3v6.3h6.3v5.3h-6.3v6.2h5.9v5.6H885v6.2h17.2v22.4
				h2.1v5.5H902.2z M879.5,158h-10.8v6.2h10.8V158z M879.5,169.1h-10.8v6.2h10.8V169.1z M889.5,123.2h-14.3v6.3h14.3V123.2z
				 M889.5,134.8h-14.3v6.2h14.3V134.8z M896,158h-11v6.2h11V158z M896,169.1h-11v6.2h11V169.1z"/>
			<path class="st2" d="M918.4,125.8v30c0,14.4-1.9,22.9-6.1,28.7l-4.4-5.4c2.9-4.3,3.8-9.9,3.8-24v-36.4h31.4v-4.8h7v4.8h19v7.1
				H918.4z M920.1,192.1v-6.7h26.8V173h-18.8v-6.9h18.8v-36.7h6.8v36.7h18.2v6.9h-18.2v12.4h26.2v6.7H920.1z M941.6,160.8
				c-3.6-2.2-6.7-5.9-8.7-10.3c-1.8,4.2-4.5,7.3-8.6,9.9l-3.3-5.1c7.3-4.2,9.1-9.1,9.1-23.4h5.5c0,4-0.2,7.3-0.6,10.3
				c1,6.1,5,11.5,9.5,13.6L941.6,160.8z M977.3,160.8c-3.7-2.3-6.9-6.1-8.9-10.6c-1.9,4.3-4.9,7.5-9.1,10.2l-3.3-5.1
				c7.4-4.2,9.7-9.2,9.7-23.5h5.6c0,3.8-0.2,7-0.6,9.9c0.8,6.2,4.9,11.9,9.5,13.9L977.3,160.8z"/>
		</g>
		<g>
			<path class="st0" d="M155.7,183.6v15.7c0,11.2-7.1,15.6-13.7,15.6h-17.1v-11.1H139c1.6,0,5.3-1.3,5.3-6v-14.1h-81v16.7H51.8
				v-16.7h-6.6v-11.1h6.6v-58H98V98.7H63.4V87.5h80.3v11.2h-34.5v15.7h46.4v58h6.5v11.1H155.7z M98,125.5H63.3v18.6H98V125.5z
				 M98,154H63.3v18.4H98V154z M144.3,125.5h-35v18.6h35V125.5z M144.3,154h-35v18.4h35V154z"/>
			<path class="st3" d="M201.5,166.6v33.1c0,9.4-5.1,15.1-12.4,15.1h-7v-11.4h4.3c2.9,0,4.9-2.3,4.9-5.5v-31.4h-21v-47.7h52v47.7
				H201.5z M178.8,195.8l-8.6-1.4l1.4-9.8l8.6,1.6L178.8,195.8z M175.2,106.8V95.7h15.7V85.2h11v10.5h15.6v11.1H175.2z M211.6,129.7
				h-30.5v25.9h30.5V129.7z M213.8,195.8l-1.6-9.6l8.6-1.6l1.4,9.8L213.8,195.8z M257.4,125.7v22c0,0.6-0.1,1.2-0.1,1.7h6.2v47.2
				c0,2.4,1.4,4.2,3.8,4.2h7.5v12.2h-9.6c-7.3,0-11.8-5.3-11.8-13.4v-23.9c-3.1,10.4-7.9,19.7-14.3,27.2l-8.3-8.2
				c9.1-9.9,15.7-28.2,15.7-45.9v-23.2h-17.4V114h17.4V93.8h10.9V114h18.4v11.7H257.4z M271.5,104.8l-1.9-9.5l8.7-2l1.8,9.5
				L271.5,104.8z"/>
			<path class="st0" d="M326.1,98.6v116.2h-9.2V207c-7.6,3.6-17.1,3.9-28.1,3.9l-0.5-11.7c1.2,0,2.3,0.1,3.5,0.1V98.6h-3.5V87.5
				h41.2v11.1H326.1z M316.9,98.6h-15.8v25.3h15.8V98.6z M316.9,134.6h-15.8v25.2h15.8V134.6z M316.9,170.4h-15.8v28.8
				c6.2-0.1,11.3-1,15.8-3.7V170.4z M399.8,211.5c-3.4-3.7-6.4-7.8-8.9-12.2c-4.1,5.9-9.5,10.8-15.9,14.4l-4.1-8.4
				c6.5-3,11.7-8.2,15.7-14.7c-6.4-14.5-9.2-31.8-9.6-49.4h-47.6v-10.1h47.4V85.2h9.6v45.9H405v10.1h-18.5
				c0.3,14.1,1.9,26.9,5.7,37.9c2.6-6.8,4.4-14.5,5.6-22.8l7.5,1.3c-1.7,12-4.4,22.8-8.7,31.8c2.5,4.8,5.6,9.1,9.1,12.7L399.8,211.5
				z M332.5,103.8V93.6h13.9v-8.4h10.4v8.4h14.6v10.2H332.5z M334.2,207.6v-54.9h35.6v54.9H334.2z M339.5,124.4l-2.9-8.6l7.5-2.7
				l2.9,8.6L339.5,124.4z M361.2,162.1h-18.3v13.7h18.3V162.1z M361.2,184.8h-18.3v13.7h18.3V184.8z M364.6,124.7l-7.8-3l2.9-8.6
				l7.5,2.9L364.6,124.7z M396.3,109.3l-2.1-9.5l8.4-2.3l2.1,9.4L396.3,109.3z"/>
			<path class="st4" d="M411.3,97.7c2.3,0.5,4.9,0.8,7.2,0.8h103.7c-3.3,38.6-20.3,58.1-55.9,64.3c-2.7,23-15.7,37.6-42.9,48.2
				c-3.9,1.4-4.6,1.8-5.8,2.7l-2.9-7.4c3.3,0.2,10.5-2.7,17.4-6.9c16-9.8,24.5-25,24.5-44v-23.4c0-2.6-0.3-5.1-0.7-8h11.7
				c-0.4,2.6-0.7,5.4-0.7,8v24.5c25.6-5.9,40.2-23.2,43.5-51.4h-91.9c-2.4,0-4.6,0.3-7.2,0.8V97.7z"/>
			<path class="st0" d="M567.7,155.8c-6.3-6.2-33.8-17.9-43.9-18.7l2.6-7.7c2.4,1,3.6,1.3,8.2,2.2c11.7,2.6,25.8,7.5,37.7,13.3
				L567.7,155.8z M534,198.6c1,0.2,1.7,0.2,2.2,0.2c4.6,0,14-1.4,21-3c33.1-8.2,57-31.2,69.5-67c1.2-3.5,1.6-5.3,1.9-7.8l6.3,3.8
				c-0.9,1.3-1.9,4-2.7,6.7c-14.1,45.8-41.3,69.9-87.4,77.8c-4,0.8-6.2,1.3-7.5,1.8L534,198.6z M579.9,121.7
				c-5.9-7.2-32.1-21.8-42-23.4l2.9-7.2c1.3,0.8,3.9,1.8,7.1,2.6c11.7,3.4,25.2,9.6,37,17.1L579.9,121.7z"/>
			<path class="st0" d="M646.7,101.8c2.2,0.5,5,0.8,7.2,0.8h72.1c-3.5,20.2-10.7,38.9-20.9,54.6c17.1,12.8,31.2,25.9,42.2,39
				c1.2,1.4,4,4.6,4.8,5.3l-9.2,9.6c-4-10.9-23.8-33.9-41.5-48.6c-13.7,19.7-32.4,33.6-58.3,43.8c-2.3,1-5,2.4-6.6,3.4l-3.3-7.4
				c9.1-1.3,23.8-8.8,34.8-17.9c23.2-18.7,38.9-44.6,45.2-75h-59.3c-3.2,0-5.5,0.3-7.2,0.8V101.8z"/>
			<path class="st0" d="M771.3,207.4c0,2.4,0.3,5.3,0.7,8h-11.7c0.4-2.2,0.6-4.8,0.6-8v-113c0-3.4-0.1-5.8-0.6-8H772
				c-0.4,2.6-0.7,5.4-0.7,8v35.2c21.6,6.1,40.6,15.2,56.2,27.2c2.7,2.1,5.6,4.3,6.8,5l-7.3,10.7c-10.8-13.4-35.6-29.4-55.6-35.7
				V207.4z"/>
			<path class="st3" d="M832.9,134.3v-6.9H858v6.9H832.9z M834.8,192.1v-27.3H856v27.3H834.8z M837.8,121.2v-5.8h15v5.8H837.8z
				 M837.8,146.4v-5.8h15v5.8H837.8z M837.8,158.4v-5.7h15v5.7H837.8z M850.5,170.6h-10v15.7h10V170.6z M902.2,180.7v3.7
				c0,4.9-3,8.8-7.8,8.8h-4v-5.7h2.6c1.4,0,3-1.6,3-3.3v-3.4h-27.3v6.4h-6.1v-6.4h-2.2v-5.5h2.2v-22.4h16.9v-6.2H863V141h5.8v-6.2
				h-6.2v-5.3h6.2v-6.3h-6.2v-5.6h6.2v-3.7h6.4v3.7h14.3v-3.7h6.3v3.7h6.3v5.6h-6.3v6.3h6.3v5.3h-6.3v6.2h5.9v5.6H885v6.2h17.2v22.4
				h2.1v5.5H902.2z M879.5,158h-10.8v6.2h10.8V158z M879.5,169.1h-10.8v6.2h10.8V169.1z M889.5,123.2h-14.3v6.3h14.3V123.2z
				 M889.5,134.8h-14.3v6.2h14.3V134.8z M896,158h-11v6.2h11V158z M896,169.1h-11v6.2h11V169.1z"/>
			<path class="st0" d="M918.4,125.8v30c0,14.4-1.9,22.9-6.1,28.7l-4.4-5.4c2.9-4.3,3.8-9.9,3.8-24v-36.4h31.4v-4.8h7v4.8h19v7.1
				H918.4z M920.1,192.1v-6.7h26.8V173h-18.8v-6.9h18.8v-36.7h6.8v36.7h18.2v6.9h-18.2v12.4h26.2v6.7H920.1z M941.6,160.8
				c-3.6-2.2-6.7-5.9-8.7-10.3c-1.8,4.2-4.5,7.3-8.6,9.9l-3.3-5.1c7.3-4.2,9.1-9.1,9.1-23.4h5.5c0,4-0.2,7.3-0.6,10.3
				c1,6.1,5,11.5,9.5,13.6L941.6,160.8z M977.3,160.8c-3.7-2.3-6.9-6.1-8.9-10.6c-1.9,4.3-4.9,7.5-9.1,10.2l-3.3-5.1
				c7.4-4.2,9.7-9.2,9.7-23.5h5.6c0,3.8-0.2,7-0.6,9.9c0.8,6.2,4.9,11.9,9.5,13.9L977.3,160.8z"/>
		</g>
	</g>
</g>
</svg>
