<?xml version="1.0" encoding="utf-8"?>
<!-- Generator: Adobe Illustrator 21.1.0, SVG Export Plug-In . SVG Version: 6.00 Build 0)  -->
<svg version="1.1" id="レイヤー_1" xmlns="http://www.w3.org/2000/svg" xmlns:xlink="http://www.w3.org/1999/xlink" x="0px"
	 y="0px" viewBox="0 0 1200 1920" style="enable-background:new 0 0 1200 1920;" xml:space="preserve">
<style type="text/css">
	.st0{fill:#808080;}
	.st1{fill:none;stroke:#808080;stroke-miterlimit:10;}
	.st2{fill:none;stroke:#808080;stroke-width:4;stroke-linejoin:round;stroke-miterlimit:10;}
</style>
<g id="guide">
	<g>
		<path class="st0" d="M1,1h1198v1918H1L1,1 M0,0l0,1920h1200V0L0,0L0,0z"/>
	</g>
	<g>
		<path class="st0" d="M81,121h1038v1678H81V121 M80,120v1680h1040V120H80L80,120z"/>
	</g>
	<g>
		<line class="st1" x1="80" y1="1800" x2="1120" y2="120"/>
	</g>
	<g>
		<line class="st1" x1="80" y1="122.9" x2="1120" y2="1800"/>
	</g>
</g>
<g id="five-star_x0A_">
	<g>
		<path class="st0" d="M600,441c70.1,0,138,13.7,202,40.8c61.8,26.1,117.3,63.6,165,111.2c47.7,47.7,85.1,103.2,111.2,165
			c27.1,64,40.8,132,40.8,202s-13.7,138-40.8,202c-26.1,61.8-63.6,117.3-111.2,165c-47.7,47.7-103.2,85.1-165,111.2
			c-64,27.1-132,40.8-202,40.8c-70.1,0-138-13.7-202-40.8c-61.8-26.1-117.3-63.6-165-111.2c-47.7-47.7-85.1-103.2-111.2-165
			C94.7,1098,81,1030,81,960s13.7-138,40.8-202c26.1-61.8,63.6-117.3,111.2-165c47.7-47.7,103.2-85.1,165-111.2
			C462,454.7,529.9,441,600,441 M600,440C312.8,440,80,672.8,80,960s232.8,520,520,520s520-232.8,520-520S887.2,440,600,440L600,440
			z"/>
	</g>
	<g>
		<path class="st0" d="M600,442.5l492.2,357.6l-188,578.6H295.8l-188-578.6L600,442.5 M600,440L105.5,799.3l188.9,581.4h611.3
			l188.9-581.4L600,440L600,440z"/>
	</g>
	<polygon class="st2" points="294.9,1380.8 1094.8,799.3 105.2,799.2 905.5,1380.8 600.2,440 	"/>
</g>
</svg>
