<?xml version="1.0" encoding="utf-8"?>
<!-- Generator: Adobe Illustrator 21.1.0, SVG Export Plug-In . SVG Version: 6.00 Build 0)  -->
<svg version="1.1" id="レイヤー_1" xmlns="http://www.w3.org/2000/svg" xmlns:xlink="http://www.w3.org/1999/xlink" x="0px"
	 y="0px" viewBox="0 0 1200 1920" style="enable-background:new 0 0 1200 1920;" xml:space="preserve">
<style type="text/css">
	.st0{fill:#808080;}
	.st1{fill:none;stroke:#808080;stroke-miterlimit:10;}
	.st2{fill:none;stroke:#808080;stroke-width:4;stroke-miterlimit:10;}
</style>
<g id="guide1">
	<g>
		<path class="st0" d="M1,1h1198v1918H1L1,1 M0,0l0,1920h1200V0L0,0L0,0z"/>
	</g>
	<g>
		<path class="st0" d="M81,121h1038v1678H81V121 M80,120v1680h1040V120H80L80,120z"/>
	</g>
	<g>
		<line class="st1" x1="80" y1="1800" x2="1120" y2="120"/>
	</g>
	<g>
		<line class="st1" x1="80" y1="122.9" x2="1120" y2="1800"/>
	</g>
</g>
<g id="guide2">
	<line class="st1" x1="80" y1="750" x2="1120" y2="120"/>
	<line class="st1" x1="704" y1="1800" x2="1120" y2="120"/>
	<line class="st1" x1="496" y1="1800" x2="1120" y2="120"/>
	<path class="st1" d="M1120,1800"/>
	<path class="st1" d="M80,750"/>
	<line class="st1" x1="80" y1="1170" x2="1120" y2="1800"/>
	<line class="st1" x1="704" y1="120" x2="1120" y2="1800"/>
	<line class="st1" x1="496" y1="120" x2="1120" y2="1800"/>
	<line class="st1" x1="1120" y1="750" x2="80" y2="120"/>
	<line class="st1" x1="496" y1="1800" x2="80" y2="120"/>
	<line class="st1" x1="704" y1="1800" x2="80" y2="120"/>
	<line class="st1" x1="1120" y1="750" x2="80" y2="1170"/>
	<path class="st1" d="M80,1799"/>
	<path class="st1" d="M1120,750"/>
	<line class="st1" x1="1120" y1="1170" x2="80" y2="1800"/>
	<line class="st1" x1="496" y1="120" x2="80" y2="1800"/>
	<line class="st1" x1="704" y1="120" x2="80" y2="1800"/>
	<line class="st1" x1="1120" y1="1170" x2="80" y2="750"/>
	<line class="st1" x1="704" y1="1800" x2="496" y2="120"/>
	<line class="st1" x1="496" y1="1800" x2="704" y2="120"/>
</g>
<g id="guide3">
	<line class="st1" x1="80" y1="750" x2="704" y2="120"/>
	<line class="st1" x1="80" y1="750" x2="1120" y2="1800"/>
	<line class="st1" x1="80" y1="1170" x2="704" y2="1800"/>
	<line class="st1" x1="80" y1="1170" x2="1120" y2="120"/>
	<line class="st1" x1="1120" y1="750" x2="496" y2="120"/>
	<line class="st1" x1="1120" y1="750" x2="80" y2="1800"/>
	<line class="st1" x1="1120" y1="1170" x2="496" y2="1800"/>
	<line class="st1" x1="1120" y1="1170" x2="80" y2="120"/>
</g>
<g id="guide4_1_">
	<line class="st1" x1="80" y1="750" x2="496" y2="120"/>
	<line class="st1" x1="80" y1="750" x2="704" y2="1800"/>
	<line class="st1" x1="80" y1="750" x2="496" y2="1800"/>
	<line class="st1" x1="80" y1="1170" x2="496" y2="1800"/>
	<line class="st1" x1="80" y1="1170" x2="704" y2="120"/>
	<line class="st1" x1="80" y1="1170" x2="496" y2="120"/>
	<line class="st1" x1="1120" y1="750" x2="705" y2="120"/>
	<line class="st1" x1="1120" y1="750" x2="496" y2="1800"/>
	<line class="st1" x1="1120" y1="750" x2="704" y2="1800"/>
	<line class="st1" x1="1120" y1="1170" x2="704" y2="1800"/>
	<line class="st1" x1="1120" y1="1170" x2="496" y2="120"/>
	<line class="st1" x1="1120" y1="1170" x2="704" y2="120"/>
</g>
<g id="division">
	<line class="st2" x1="80" y1="750" x2="1120" y2="750"/>
	<line class="st2" x1="80" y1="1170" x2="1120" y2="1170"/>
	<line class="st2" x1="704" y1="1800" x2="704" y2="120"/>
	<line class="st2" x1="496" y1="1800" x2="496" y2="120"/>
</g>
</svg>
