<?xml version="1.0" encoding="utf-8"?>
<!-- Generator: Adobe Illustrator 21.1.0, SVG Export Plug-In . SVG Version: 6.00 Build 0)  -->
<svg version="1.1" id="レイヤー_1" xmlns="http://www.w3.org/2000/svg" xmlns:xlink="http://www.w3.org/1999/xlink" x="0px"
	 y="0px" viewBox="0 0 1200 1920" style="enable-background:new 0 0 1200 1920;" xml:space="preserve">
<style type="text/css">
	.st0{fill:none;stroke:#808080;stroke-miterlimit:10;}
	.st1{fill:#808080;}
	.st2{fill:none;stroke:#808080;stroke-width:4;stroke-miterlimit:10;}
</style>
<g id="guide">
	<rect x="80" y="118.7" class="st0" width="1040" height="1682.7"/>
	<rect x="80" y="118.7" class="st0" width="1040" height="642.7"/>
	<rect x="722.7" y="118.7" class="st0" width="397.3" height="642.7"/>
	<rect x="722.7" y="516" class="st0" width="397.3" height="245.4"/>
	<rect x="722.7" y="516" class="st0" width="151.8" height="245.4"/>
	<rect x="722.7" y="515.9" class="st0" width="151.8" height="93.6"/>
	<rect x="816.3" y="515.9" class="st0" width="58.2" height="93.6"/>
	<rect x="816.3" y="574.1" class="st0" width="58.2" height="35.4"/>
	<rect x="816.3" y="574.1" class="st0" width="22.9" height="35.4"/>
	<g>
		<path class="st1" d="M1,1h1198v1918H1L1,1 M0,0l0,1920h1200V0L0,0L0,0z"/>
	</g>
	<g>
		<line class="st0" x1="80" y1="1801.4" x2="1120" y2="118.6"/>
	</g>
	<g>
		<line class="st0" x1="80" y1="118.6" x2="1120" y2="1801.4"/>
	</g>
</g>
<g id="spiral">
	<path class="st2" d="M1120,1801.4c-574.4,0-1040-465.6-1040-1040c0-355,287.8-642.7,642.7-642.7c219.4,0,397.2,177.8,397.2,397.2
		c0,135.6-109.9,245.5-245.5,245.5c-83.8,0-151.7-67.9-151.7-151.7c0-51.8,42-93.8,93.8-93.8c32,0,57.9,25.9,57.9,57.9
		c0,19.8-16,35.8-35.8,35.8"/>
</g>
</svg>
