<?xml version="1.0" encoding="utf-8"?>
<!-- Generator: Adobe Illustrator 21.1.0, SVG Export Plug-In . SVG Version: 6.00 Build 0)  -->
<svg version="1.1" xmlns="http://www.w3.org/2000/svg" xmlns:xlink="http://www.w3.org/1999/xlink" x="0px" y="0px"
	 viewBox="0 0 1920 1200" style="enable-background:new 0 0 1920 1200;" xml:space="preserve">
<style type="text/css">
	.st0{fill:none;stroke:#808080;stroke-miterlimit:10;}
	.st1{fill:#808080;}
	.st2{fill:none;stroke:#808080;stroke-width:4;stroke-miterlimit:10;}
</style>
<g id="guide">
	<rect x="118.6" y="80" class="st0" width="1682.7" height="1040"/>
	<rect x="1158.6" y="80" class="st0" width="642.7" height="1040"/>
	<rect x="1158.6" y="722.7" class="st0" width="642.7" height="397.3"/>
	<rect x="1158.6" y="722.7" class="st0" width="245.4" height="397.3"/>
	<rect x="1158.6" y="722.7" class="st0" width="245.4" height="151.8"/>
	<rect x="1310.5" y="722.7" class="st0" width="93.6" height="151.8"/>
	<rect x="1310.5" y="816.3" class="st0" width="93.6" height="58.2"/>
	<rect x="1310.5" y="816.3" class="st0" width="35.4" height="58.2"/>
	<rect x="1310.5" y="816.3" class="st0" width="35.4" height="22.9"/>
	<g>
		<path class="st1" d="M1919,1v1198H1V1H1919 M1920,0H0v1200h1920V0L1920,0z"/>
	</g>
	<g>
		<line class="st0" x1="118.6" y1="80" x2="1801.4" y2="1120"/>
	</g>
	<g>
		<line class="st0" x1="1801.4" y1="80" x2="118.6" y2="1120"/>
	</g>
</g>
<g id="spiral">
	<path class="st2" d="M118.6,1120c0-574.4,465.6-1040,1040-1040c355,0,642.7,287.8,642.7,642.7c0,219.4-177.8,397.2-397.2,397.2
		c-135.6,0-245.5-109.9-245.5-245.5c0-83.8,67.9-151.7,151.7-151.7c51.8,0,93.8,42,93.8,93.8c0,32-25.9,57.9-57.9,57.9
		c-19.8,0-35.8-16-35.8-35.8"/>
</g>
</svg>
